<?xml version="1.0" encoding="utf-8"?>
<!-- Generator: Adobe Illustrator 17.1.0, SVG Export Plug-In . SVG Version: 6.00 Build 0)  -->
<!DOCTYPE svg PUBLIC "-//W3C//DTD SVG 1.1//EN" "http://www.w3.org/Graphics/SVG/1.1/DTD/svg11.dtd">
<svg version="1.1" id="Layer_1" xmlns="http://www.w3.org/2000/svg" xmlns:xlink="http://www.w3.org/1999/xlink" x="0px" y="0px"
	 width="55px" height="55px" viewBox="0 0 55 55" enable-background="new 0 0 55 55" xml:space="preserve">
<g>
	<circle fill-rule="evenodd" clip-rule="evenodd" fill="#3DC6EC" cx="27.5" cy="27.5" r="27.5"/>
	<g>
		<path fill-rule="evenodd" clip-rule="evenodd" fill="#293582" d="M26.5,16.9c1.7,0,2.5,1.3,2.5,2.6c0,1.5-1.1,2.5-3.2,3.8
			c-1.3-1.3-2-2.4-2-3.7C23.9,18.2,24.9,16.9,26.5,16.9z M25.7,35.8c-3,0-4.9-1.9-4.9-4.1c0-1.7,1.1-2.8,2.3-3.6
			c2.4,2.4,4.8,4.7,6.5,6.3C28.9,35.2,27.5,35.8,25.7,35.8z M41.1,39.9c-1.7-1.8-3.2-3.4-4.8-5c2.4-2.6,3.8-6,4.5-10.1h-5.4
			c-0.4,2.4-1.2,4.8-2.2,6.4c-1.2-1.3-2.8-3.3-4.3-4.9l0-0.2c3.5-1.8,5-4.1,5-6.8c0-3.8-3-6.3-7.2-6.3c-5.3,0-7.7,3.7-7.7,7.1
			c0,1.9,0.8,3.9,1.8,5.1v0.2c-3.7,1.4-5.8,3.8-5.8,7.3c0,3.6,2.9,7,9.7,7c3.5,0,5.9-0.9,7.5-2.1c0.6,1.1,1.1,1.7,1.7,2.3H41.1z"/>
	</g>
</g>
</svg>
