<?xml version="1.0" encoding="utf-8"?>
<!-- Generator: Adobe Illustrator 18.0.0, SVG Export Plug-In . SVG Version: 6.00 Build 0)  -->
<!DOCTYPE svg PUBLIC "-//W3C//DTD SVG 1.1//EN" "http://www.w3.org/Graphics/SVG/1.1/DTD/svg11.dtd">
<svg version="1.1" id="Layer_1" xmlns="http://www.w3.org/2000/svg" xmlns:xlink="http://www.w3.org/1999/xlink" x="0px" y="0px"
	 viewBox="45.7 81.8 250.1 215.2" enable-background="new 45.7 81.8 250.1 215.2" xml:space="preserve">
<g>
	<g>
		<g>
			<path fill="#1AB7B8" d="M284.7,156c-1.1,0-2,0.8-2,1.9v4.3c0,0.9,1.4,0.9,1.4,0v-4h0.3v11.1c0,1.2,1.8,1.1,1.8,0v-6.5h0.3v6.5
				c0,1.1,1.8,1.2,1.8,0v-11.1h0.3v4c0,0.9,1.4,0.9,1.4,0v-4.3c0-0.9-0.8-1.9-2-1.9H284.7z"/>
		</g>
		<g>
			<path fill="#1AB7B8" d="M286.3,155.6c0.9,0,1.6-0.7,1.6-1.4c0-0.8-0.7-1.4-1.6-1.4s-1.5,0.7-1.5,1.4
				C284.8,154.9,285.5,155.6,286.3,155.6z"/>
		</g>
	</g>
	<g>
		<path fill="#FFFFFF" d="M128.8,235.3V232l2.6-4.6h-2l-0.7,1.9c-0.1,0.6-0.3,1-0.4,1.5l0,0c-0.1-0.5-0.3-0.9-0.4-1.5l-0.7-1.9h-2
			l2.5,4.6v3.2L128.8,235.3L128.8,235.3z"/>
		<path fill="#FFFFFF" d="M136.5,228.7c1.4,0,2.2,1.2,2.2,2.7c0,1.5-0.8,2.7-2.2,2.7c-1.4,0-2.2-1.1-2.2-2.7
			C134.3,229.9,135.1,228.7,136.5,228.7z M136.6,227.4c-2.5,0-3.6,1.7-3.6,4.1c0,2.2,1,3.9,3.5,3.9c2.5,0,3.7-1.4,3.7-4.1
			C140.1,229.1,139.1,227.4,136.6,227.4z"/>
		<path fill="#FFFFFF" d="M142.1,227.5v4.4c0,2.5,0.9,3.5,3.1,3.5c2.4,0,3.3-1,3.3-3.5v-4.4h-1.4v4.6c0,1.4-0.7,2-1.9,2
			c-1.2,0-1.8-0.7-1.8-2v-4.6H142.1z"/>
		<path fill="#FFFFFF" d="M152.5,235.3v-2.4c0-1.3,0-2.4-0.1-3.4l0,0c0.4,0.9,1,2,1.5,2.8l2,3h1.6v-7.9h-1.4v2.3
			c0,1.2,0,2.2,0.1,3.3l0,0c-0.4-0.9-0.9-1.9-1.4-2.7l-1.9-2.9h-1.9v7.9H152.5z"/>
		<path fill="#FFFFFF" d="M166.7,231.1h-2.7v1.3h1.4v1.6c-0.1,0.1-0.5,0.1-0.9,0.1c-1.6,0-2.8-0.9-2.8-2.5c0-1.9,1.2-3,2.9-3
			c0.9,0,1.4,0.2,1.7,0.4l0.3-1.4c-0.3-0.1-0.9-0.4-2-0.4c-2.8,0-4.3,1.3-4.3,4.3c0,1.1,0.3,2,0.8,2.7c0.5,0.7,1.7,0.9,3.3,0.9
			c1.1,0,2-0.2,2.4-0.4L166.7,231.1L166.7,231.1z"/>
		<path fill="#FFFFFF" d="M174.1,228.8c0.1-0.1,0.5-0.1,1-0.1c1.2,0,2,0.4,2,1.1c0,0.8-0.8,1.2-2.2,1.2c-0.4,0-0.7,0-0.8-0.1
			L174.1,228.8L174.1,228.8z M172.8,235.3h1.4v-3c0.2,0,0.5,0.1,0.9,0.1c1.4,0,2.5-0.3,3-0.8c0.4-0.4,0.6-1.1,0.6-1.8
			c0-0.7-0.3-1.4-0.7-1.7c-0.4-0.4-1.2-0.7-2.8-0.7c-1.2,0-1.8,0.1-2.2,0.1L172.8,235.3L172.8,235.3z"/>
		<polygon fill="#FFFFFF" points="184.7,230.4 181.8,230.4 181.8,228.7 184.9,228.7 184.9,227.4 180.5,227.4 180.5,235.4 
			185.1,235.4 185.1,234.1 181.8,234.1 181.8,231.7 184.7,231.7 		"/>
		<path fill="#FFFFFF" d="M191.7,228.7c1.4,0,2.2,1.2,2.2,2.7c0,1.5-0.8,2.7-2.2,2.7c-1.4,0-2.2-1.1-2.2-2.7
			C189.5,229.9,190.4,228.7,191.7,228.7z M191.8,227.4c-2.5,0-3.6,1.7-3.6,4.1c0,2.2,1,3.9,3.5,3.9c2.5,0,3.7-1.4,3.7-4.1
			C195.3,229.1,194.4,227.4,191.8,227.4z"/>
		<path fill="#FFFFFF" d="M198.6,228.8c0.1-0.1,0.5-0.1,1-0.1c1.2,0,2,0.4,2,1.1c0,0.8-0.8,1.2-2.2,1.2c-0.4,0-0.7,0-0.9-0.1
			L198.6,228.8L198.6,228.8z M197.3,235.3h1.4v-3c0.2,0,0.5,0.1,0.9,0.1c1.4,0,2.5-0.3,3-0.8c0.4-0.4,0.6-1.1,0.6-1.8
			c0-0.7-0.3-1.4-0.7-1.7c-0.4-0.4-1.2-0.7-2.8-0.7c-1.2,0-1.8,0.1-2.2,0.1L197.3,235.3L197.3,235.3z"/>
		<polygon fill="#FFFFFF" points="205,235.4 209.4,235.4 209.4,234.1 206.3,234.1 206.3,227.5 205,227.5 		"/>
		<polygon fill="#FFFFFF" points="216.2,230.4 213.3,230.4 213.3,228.7 216.3,228.7 216.3,227.4 212,227.4 212,235.4 216.5,235.4 
			216.5,234.1 213.3,234.1 213.3,231.7 216.2,231.7 		"/>
	</g>
	<g>
		<g>
			<path fill="#00959F" d="M109.1,134.1c1.5,0,2.7-1.2,2.7-2.6c0-1.4-1.2-2.6-2.7-2.6s-2.7,1.2-2.7,2.6
				C106.4,132.9,107.7,134.1,109.1,134.1z"/>
		</g>
		<g>
			<path fill="#00959F" d="M108.8,150.4v9.1c0,1.6-2.5,1.6-2.5,0v-9.1h-3.4l3.6-12h-0.6l-2.1,6.9c-0.5,1.5-2.7,0.9-2.2-0.7l2.3-7.5
				c0.2-0.9,1.4-2.3,3.3-2.3h1.8h2c1.9,0,3,1.5,3.3,2.3l2.4,7.5c0.4,1.6-1.7,2.2-2.2,0.7l-2.2-6.9h-0.6l3.6,12H112v9.1
				c0,1.6-2.5,1.6-2.5,0v-9.1H108.8z"/>
		</g>
	</g>
	<g>
		<g>
			<path fill="#00959F" d="M142.1,131.2c1.3,0,2.3-1,2.3-2.2c0-1.2-1-2.2-2.3-2.2c-1.3,0-2.3,1-2.3,2.2
				C139.8,130.1,140.9,131.2,142.1,131.2z"/>
		</g>
		<g>
			<path fill="#00959F" d="M141.8,145.4v7.8c0,1.4-2.2,1.4-2.2,0v-7.8h-2.9l3.1-10.4h-0.5l-1.8,5.9c-0.4,1.3-2.2,0.8-1.9-0.7l2-6.5
				c0.2-0.7,1.2-2,2.8-2h1.5h1.7c1.7,0,2.6,1.3,2.9,2l2,6.5c0.4,1.4-1.4,2-1.9,0.6l-1.8-5.9h-0.5l3.1,10.4h-2.9v7.8
				c0,1.4-2.2,1.4-2.2,0v-7.8H141.8z"/>
		</g>
	</g>
	<g>
		<g>
			<path fill="#1AB7B8" d="M184.9,113.3c1.2,0,2-0.9,2-2c0-1.1-0.9-2-2-2c-1.2,0-2,0.9-2,2C182.8,112.4,183.7,113.3,184.9,113.3z"/>
		</g>
		<g>
			<path fill="#1AB7B8" d="M184.6,125.9v7c0,1.2-2,1.2-2,0v-7h-2.5l2.8-9.3h-0.4l-1.6,5.3c-0.4,1.2-2,0.7-1.7-0.6l1.8-5.8
				c0.2-0.7,1-1.8,2.5-1.8h1.4h1.4c1.4,0,2.3,1.2,2.5,1.8l1.8,5.8c0.4,1.2-1.2,1.7-1.7,0.6l-1.6-5.3H187l2.8,9.3h-2.6v7
				c0,1.2-2,1.2-2,0v-7H184.6z"/>
		</g>
	</g>
	<g>
		<g>
			<path fill="#00959F" d="M234.9,138.9c1,0,1.8-0.8,1.8-1.7c0-1-0.8-1.7-1.8-1.7c-1,0-1.8,0.8-1.8,1.7
				C233.1,138.1,233.9,138.9,234.9,138.9z"/>
		</g>
		<g>
			<path fill="#00959F" d="M234.6,150.1v6.2c0,1.1-1.7,1.1-1.7,0v-6.2h-2.2l2.4-8.2h-0.4l-1.4,4.7c-0.4,1-1.7,0.6-1.4-0.5l1.6-5.1
				c0.1-0.6,0.9-1.6,2.2-1.6h1.2h1.3c1.3,0,2,1,2.2,1.6l1.6,5.1c0.3,1.1-1.1,1.5-1.4,0.5L237,142h-0.4l2.4,8.2h-2.2v6.2
				c0,1.1-1.7,1.1-1.7,0v-6.2L234.6,150.1L234.6,150.1z"/>
		</g>
	</g>
	<g>
		<g>
			<path fill="#3DC6EC" d="M256.3,221c1.5,0,2.7-1.2,2.7-2.6c0-1.4-1.2-2.6-2.7-2.6c-1.4,0-2.7,1.2-2.7,2.6
				C253.6,219.9,254.8,221,256.3,221z"/>
		</g>
		<g>
			<path fill="#3DC6EC" d="M255.9,237.4v9.1c0,1.6-2.5,1.6-2.5,0v-9.1H250l3.6-12H253l-2.1,6.9c-0.5,1.5-2.7,0.9-2.2-0.7l2.3-7.5
				c0.3-0.9,1.4-2.3,3.3-2.3h1.8h2c2,0,3,1.5,3.3,2.3l2.4,7.5c0.4,1.6-1.7,2.2-2.2,0.7l-2.1-6.8h-0.7l3.6,12h-3.4v9.1
				c0,1.6-2.5,1.6-2.5,0v-9.1L255.9,237.4L255.9,237.4z"/>
		</g>
	</g>
	<g>
		<g>
			<path fill="#00959F" d="M200.8,250.5c1.4,0,2.6-1.1,2.6-2.5c0-1.4-1.2-2.5-2.6-2.5c-1.4,0-2.5,1.1-2.5,2.5
				C198.3,249.4,199.4,250.5,200.8,250.5z"/>
		</g>
		<g>
			<path fill="#00959F" d="M200.4,266.2v8.6c0,1.5-2.4,1.5-2.4,0v-8.6h-3.2l3.4-11.5h-0.6l-2,6.5c-0.5,1.4-2.5,0.9-2-0.7l2.2-7.1
				c0.2-0.8,1.3-2.2,3.2-2.2h1.7h1.8c1.8,0,2.9,1.4,3.2,2.2l2.2,7.1c0.4,1.5-1.6,2.2-2,0.7l-2-6.5h-0.6l3.5,11.5h-3.2v8.6
				c0,1.5-2.4,1.5-2.4,0v-8.6H200.4z"/>
		</g>
	</g>
	<g>
		<g>
			<path fill="#00959F" d="M147.9,263.6c1,0,1.8-0.8,1.8-1.7c0-1-0.8-1.7-1.8-1.7s-1.8,0.8-1.8,1.7
				C146.1,262.8,146.9,263.6,147.9,263.6z"/>
		</g>
		<g>
			<path fill="#00959F" d="M147.6,274.7v6.2c0,1.1-1.7,1.1-1.7,0v-6.2h-2.2l2.4-8.2h-0.4l-1.4,4.7c-0.4,1-1.7,0.6-1.4-0.5l1.6-5.1
				c0.1-0.6,0.9-1.6,2.2-1.6h1.2h1.3c1.3,0,2,1,2.2,1.6l1.6,5.1c0.3,1.1-1.1,1.5-1.4,0.5l-1.4-4.7h-0.4l2.4,8.2h-2.2v6.2
				c0,1.1-1.7,1.1-1.7,0v-6.2H147.6z"/>
		</g>
	</g>
	<g>
		<g>
			<path fill="#3DC6EC" d="M95.3,221.7c1.5,0,2.7-1.2,2.7-2.6c0-1.4-1.2-2.6-2.7-2.6s-2.7,1.2-2.7,2.6
				C92.7,220.6,93.9,221.7,95.3,221.7z"/>
		</g>
		<g>
			<path fill="#3DC6EC" d="M95,238.1v9.1c0,1.6-2.5,1.6-2.5,0v-9.1h-3.3l3.6-12h-0.7L90,233c-0.5,1.5-2.7,0.9-2.2-0.7l2.3-7.5
				c0.3-0.9,1.4-2.3,3.3-2.3h1.8h2c1.9,0,3,1.5,3.3,2.3l2.4,7.5c0.4,1.6-1.7,2.2-2.2,0.7l-2.1-6.8h-0.6l3.6,12h-3.4v9.1
				c0,1.6-2.5,1.6-2.5,0v-9.1L95,238.1L95,238.1z"/>
		</g>
	</g>
	<g>
		<g>
			<path fill="#00959F" d="M59.5,205.6c1,0,1.8-0.8,1.8-1.7c0-1-0.8-1.7-1.8-1.7c-1,0-1.8,0.8-1.8,1.7
				C57.7,204.8,58.5,205.6,59.5,205.6z"/>
		</g>
		<g>
			<path fill="#00959F" d="M59.2,216.8v6.2c0,1.1-1.7,1.1-1.7,0v-6.2h-2.2l2.4-8.2h-0.4l-1.4,4.7c-0.4,1-1.7,0.6-1.4-0.5l1.6-5.1
				c0.1-0.6,0.9-1.6,2.2-1.6h1.2h1.3c1.3,0,2,1,2.2,1.6l1.6,5.1c0.3,1.1-1.1,1.5-1.4,0.5l-1.4-4.6h-0.4l2.4,8.2h-2.2v6.2
				c0,1.1-1.7,1.1-1.7,0v-6.2L59.2,216.8L59.2,216.8z"/>
		</g>
	</g>
	<g>
		<g>
			<path fill="#1AB7B8" d="M61.6,146.2c1,0,1.8-0.8,1.8-1.7c0-1-0.8-1.7-1.8-1.7s-1.8,0.8-1.8,1.7C59.8,145.4,60.6,146.2,61.6,146.2
				z"/>
		</g>
		<g>
			<path fill="#1AB7B8" d="M61.4,157.3v6.2c0,1.1-1.7,1.1-1.7,0v-6.2h-2.2l2.4-8.2h-0.4l-1.4,4.7c-0.4,1-1.7,0.6-1.4-0.5l1.6-5.1
				c0.1-0.6,0.9-1.6,2.2-1.6h1.2h1.3c1.3,0,2,1,2.2,1.6l1.6,5.1c0.3,1.1-1.1,1.5-1.4,0.5l-1.4-4.7h-0.4l2.4,8.2h-2.2v6.2
				c0,1.1-1.7,1.1-1.7,0v-6.2H61.4z"/>
		</g>
	</g>
	<g>
		<g>
			<path fill="#1AB7B8" d="M74.3,119.8c0.9,0,1.7-0.7,1.7-1.7c0-0.9-0.7-1.7-1.7-1.7c-0.9,0-1.7,0.7-1.7,1.7
				C72.7,119.1,73.4,119.8,74.3,119.8z"/>
		</g>
		<g>
			<path fill="#1AB7B8" d="M74.1,130.3v5.8c0,1-1.6,1-1.6,0v-5.8h-2.1l2.2-7.7h-0.4L71,127c-0.3,0.9-1.7,0.6-1.3-0.4l1.4-4.7
				c0.1-0.6,0.9-1.5,2-1.5h1.1h1.2c1.2,0,1.9,0.9,2,1.5l1.4,4.7c0.3,1-1,1.4-1.3,0.4l-1.3-4.3H76l2.2,7.7h-2.1v5.8c0,1-1.6,1-1.6,0
				v-5.8H74.1z"/>
		</g>
	</g>
	<g>
		<g>
			<path fill="#00959F" d="M108.4,100.5c0.8,0,1.4-0.7,1.4-1.4c0-0.7-0.7-1.4-1.4-1.4c-0.8,0-1.4,0.7-1.4,1.4
				C106.9,99.9,107.6,100.5,108.4,100.5z"/>
		</g>
		<g>
			<path fill="#00959F" d="M108.2,109.5v4.9c0,0.9-1.3,0.9-1.3,0v-4.9h-1.7l1.9-6.5h-0.3l-1.1,3.8c-0.3,0.8-1.4,0.5-1.2-0.4l1.2-4.1
				c0.1-0.4,0.7-1.3,1.7-1.3h0.9h1c1,0,1.6,0.8,1.7,1.3l1.2,4.1c0.2,0.9-0.9,1.2-1.2,0.4l-1.1-3.7h-0.3l1.9,6.5h-1.8v4.9
				c0,0.9-1.3,0.9-1.3,0v-4.9L108.2,109.5L108.2,109.5z"/>
		</g>
	</g>
	<g>
		<g>
			<path fill="#00959F" d="M153,101.9c1,0,1.8-0.8,1.8-1.7c0-1-0.8-1.7-1.8-1.7c-1,0-1.8,0.8-1.8,1.7S152,101.9,153,101.9z"/>
		</g>
		<g>
			<path fill="#00959F" d="M152.7,113.1v6.2c0,1.1-1.7,1.1-1.7,0v-6.2h-2.2l2.4-8.2h-0.4l-1.4,4.7c-0.4,1-1.7,0.6-1.4-0.5l1.6-5.1
				c0.1-0.6,0.9-1.6,2.2-1.6h1.2h1.3c1.3,0,2,1,2.2,1.6l1.6,5.1c0.3,1.1-1.1,1.5-1.4,0.5l-1.4-4.7h-0.4l2.4,8.2h-2.2v6.2
				c0,1.1-1.7,1.1-1.7,0v-6.2H152.7z"/>
		</g>
	</g>
	<g>
		<g>
			<path fill="#00959F" d="M176.2,270.8c1,0,1.8-0.8,1.8-1.7c0-1-0.8-1.7-1.8-1.7c-1,0-1.8,0.8-1.8,1.7
				C174.4,270,175.1,270.8,176.2,270.8z"/>
		</g>
		<g>
			<path fill="#00959F" d="M175.9,282v6.2c0,1.1-1.7,1.1-1.7,0V282H172l2.4-8.2H174l-1.4,4.7c-0.4,1-1.7,0.6-1.4-0.5l1.6-5.1
				c0.1-0.6,0.9-1.6,2.2-1.6h1.2h1.3c1.3,0,2,1,2.2,1.6l1.6,5.1c0.3,1.1-1.1,1.5-1.4,0.5l-1.4-4.7h-0.4l2.4,8.2H178v6.2
				c0,1.1-1.7,1.1-1.7,0V282H175.9z"/>
		</g>
	</g>
	<g>
		<g>
			<path fill="#00959F" d="M202.3,95.4c1,0,1.8-0.8,1.8-1.7c0-1-0.8-1.7-1.8-1.7s-1.8,0.8-1.8,1.7S201.2,95.4,202.3,95.4z"/>
		</g>
		<g>
			<path fill="#00959F" d="M202,106.6v6.2c0,1.1-1.7,1.1-1.7,0v-6.2h-2.2l2.4-8.2h-0.4l-1.4,4.7c-0.4,1-1.7,0.6-1.4-0.5l1.6-5.1
				c0.1-0.6,0.9-1.6,2.2-1.6h1.2h1.3c1.3,0,2,1,2.2,1.6l1.6,5.1c0.3,1.1-1.1,1.5-1.4,0.5l-1.4-4.7H204l2.4,8.2h-2.2v6.2
				c0,1.1-1.7,1.1-1.7,0v-6.2H202z"/>
		</g>
	</g>
	<g>
		<g>
			<path fill="#00959F" d="M222.5,112.8c1,0,1.8-0.8,1.8-1.7c0-0.9-0.8-1.7-1.8-1.7s-1.8,0.8-1.8,1.7
				C220.7,112,221.5,112.8,222.5,112.8z"/>
		</g>
		<g>
			<path fill="#00959F" d="M222.3,124v6.2c0,1.1-1.7,1.1-1.7,0V124h-2.2l2.4-8.2h-0.4l-1.4,4.7c-0.4,1-1.7,0.6-1.4-0.5l1.6-5.1
				c0.1-0.6,0.9-1.6,2.2-1.6h1.2h1.3c1.3,0,2,1,2.2,1.6l1.6,5.1c0.3,1.1-1.1,1.5-1.4,0.5l-1.4-4.7h-0.4l2.4,8.2h-2.2v6.2
				c0,1.1-1.7,1.1-1.7,0V124C222.8,124,222.3,124,222.3,124z"/>
		</g>
	</g>
	<g>
		<g>
			<path fill="#00959F" d="M263.1,130.9c1,0,1.8-0.8,1.8-1.7c0-1-0.8-1.7-1.8-1.7c-1,0-1.8,0.8-1.8,1.7S262.1,130.9,263.1,130.9z"/>
		</g>
		<g>
			<path fill="#00959F" d="M262.8,142.1v6.2c0,1.1-1.7,1.1-1.7,0v-6.2h-2.2l2.4-8.2H261l-1.4,4.7c-0.4,1-1.7,0.6-1.4-0.5l1.6-5.1
				c0.1-0.6,0.9-1.6,2.2-1.6h1.2h1.3c1.3,0,2,1,2.2,1.6l1.6,5.1c0.3,1.1-1.1,1.5-1.4,0.5l-1.4-4.6h-0.4l2.4,8.2H265v6.2
				c0,1.1-1.7,1.1-1.7,0v-6.2L262.8,142.1L262.8,142.1z"/>
		</g>
	</g>
	<g>
		<g>
			<path fill="#00959F" d="M271.8,158.5c1,0,1.8-0.8,1.8-1.7c0-1-0.8-1.7-1.8-1.7s-1.8,0.8-1.8,1.7S270.8,158.5,271.8,158.5z"/>
		</g>
		<g>
			<path fill="#00959F" d="M271.5,169.6v6.2c0,1.1-1.7,1.1-1.7,0v-6.2h-2.2l2.4-8.2h-0.4l-1.4,4.7c-0.4,1-1.7,0.6-1.4-0.5l1.6-5.1
				c0.1-0.6,0.9-1.6,2.2-1.6h1.2h1.3c1.3,0,2,1,2.2,1.6l1.6,5.1c0.3,1.1-1.1,1.5-1.4,0.5l-1.4-4.6h-0.4l2.4,8.2h-2.2v6.2
				c0,1.1-1.7,1.1-1.7,0v-6.2L271.5,169.6L271.5,169.6z"/>
		</g>
	</g>
	<g>
		<g>
			<path fill="#00959F" d="M278.7,214.7c1.4,0,2.5-1.1,2.5-2.3c0-1.3-1.1-2.3-2.5-2.3s-2.5,1-2.5,2.3
				C276.3,213.6,277.4,214.7,278.7,214.7z"/>
		</g>
		<g>
			<path fill="#00959F" d="M278.4,229.7v8.3c0,1.4-2.3,1.4-2.3,0v-8.3h-3l3.3-10.9h-0.5l-1.9,6.2c-0.4,1.4-2.4,0.8-2-0.7l2.1-6.7
				c0.2-0.8,1.2-2.2,3-2.2h1.6h1.7c1.7,0,2.8,1.4,3,2.2l2.2,6.7c0.4,1.4-1.5,2-2,0.7l-1.9-6.2h-0.6l3.3,10.9h-3v8.3
				c0,1.4-2.3,1.4-2.3,0v-8.3H278.4z"/>
		</g>
	</g>
	<g>
		<g>
			<path fill="#00959F" d="M259.5,255.6c1,0,1.8-0.8,1.8-1.7c0-1-0.8-1.7-1.8-1.7s-1.8,0.8-1.8,1.7
				C257.7,254.8,258.5,255.6,259.5,255.6z"/>
		</g>
		<g>
			<path fill="#00959F" d="M259.2,266.8v6.2c0,1.1-1.7,1.1-1.7,0v-6.2h-2.2l2.4-8.2h-0.4l-1.4,4.7c-0.4,1-1.7,0.6-1.4-0.5l1.6-5.1
				c0.1-0.6,0.9-1.6,2.2-1.6h1.2h1.3c1.3,0,2,1,2.2,1.6l1.6,5.1c0.3,1.1-1.1,1.5-1.4,0.5l-1.4-4.6h-0.4l2.4,8.2h-2.2v6.2
				c0,1.1-1.7,1.1-1.7,0v-6.2L259.2,266.8L259.2,266.8z"/>
		</g>
	</g>
	<g>
		<g>
			<path fill="#1AB7B8" d="M238.5,244.7c1,0,1.8-0.8,1.8-1.7c0-1-0.8-1.7-1.8-1.7c-1,0-1.8,0.8-1.8,1.7
				C236.7,243.9,237.5,244.7,238.5,244.7z"/>
		</g>
		<g>
			<path fill="#1AB7B8" d="M238.2,255.9v6.2c0,1.1-1.7,1.1-1.7,0v-6.2h-2.2l2.4-8.2h-0.4l-1.4,4.7c-0.4,1-1.7,0.6-1.4-0.5l1.6-5.1
				c0.1-0.6,0.9-1.6,2.2-1.6h1.2h1.3c1.3,0,2,1,2.2,1.6l1.6,5.1c0.3,1.1-1.1,1.5-1.4,0.5l-1.4-4.6h-0.4l2.4,8.2h-2.2v6.2
				c0,1.1-1.7,1.1-1.7,0V256L238.2,255.9L238.2,255.9z"/>
		</g>
	</g>
	<g>
		<g>
			<path fill="#00959F" d="M51.5,164.8c0.7,0,1.3-0.6,1.3-1.3c0-0.7-0.6-1.3-1.3-1.3s-1.3,0.6-1.3,1.3S50.8,164.8,51.5,164.8z"/>
		</g>
		<g>
			<path fill="#00959F" d="M51.4,173v4.5c0,0.8-1.2,0.8-1.2,0V173h-1.6l1.7-6H50l-1,3.4c-0.2,0.7-1.2,0.4-1-0.4l1.1-3.7
				c0.1-0.4,0.7-1.2,1.6-1.2h0.9h0.9c0.9,0,1.4,0.7,1.6,1.2l1.2,3.7c0.2,0.8-0.8,1.2-1,0.4l-1-3.4h-0.4l1.7,6h-1.6v4.5
				c0,0.8-1.2,0.8-1.2,0V173C51.6,173,51.4,173,51.4,173z"/>
		</g>
	</g>
	<g>
		<g>
			<path fill="#00959F" d="M101.9,264.3c0.8,0,1.4-0.7,1.4-1.4s-0.7-1.4-1.4-1.4c-0.8,0-1.4,0.7-1.4,1.4S101.1,264.3,101.9,264.3z"
				/>
		</g>
		<g>
			<path fill="#00959F" d="M101.7,273.3v4.9c0,0.9-1.3,0.9-1.3,0v-4.9h-1.7l1.9-6.5h-0.3l-1.1,3.8c-0.3,0.8-1.4,0.5-1.2-0.4l1.2-4.1
				c0.1-0.4,0.7-1.3,1.7-1.3h0.9h1c1,0,1.6,0.9,1.7,1.3l1.2,4.1c0.2,0.9-0.9,1.2-1.2,0.4l-1.1-3.7h-0.3l1.9,6.5h-1.8v4.9
				c0,0.9-1.3,0.9-1.3,0v-4.9L101.7,273.3L101.7,273.3z"/>
		</g>
	</g>
	<g>
		<g>
			<path fill="#00959F" d="M278,256.3c0.8,0,1.4-0.7,1.4-1.4s-0.7-1.4-1.4-1.4c-0.8,0-1.4,0.7-1.4,1.4S277.2,256.3,278,256.3z"/>
		</g>
		<g>
			<path fill="#00959F" d="M277.8,265.3v4.9c0,0.9-1.3,0.9-1.3,0v-4.9h-1.7l1.9-6.5h-0.3l-1.1,3.8c-0.3,0.8-1.4,0.5-1.2-0.4l1.2-4.1
				c0.1-0.4,0.7-1.3,1.7-1.3h0.9h1c1,0,1.6,0.9,1.7,1.3l1.2,4.1c0.2,0.9-0.9,1.2-1.2,0.4l-1.1-3.7h-0.3l1.9,6.5h-1.7v4.9
				c0,0.9-1.3,0.9-1.3,0v-4.9L277.8,265.3L277.8,265.3z"/>
		</g>
	</g>
	<g>
		<g>
			<path fill="#3DC6EC" d="M120.8,123.3c-1.9,0-3.3,1.4-3.3,3v7.3c0,1.4,2.3,1.4,2.3,0V127h0.6v18.5c0,1.9,3,1.8,3,0v-10.8h0.5v10.8
				c0,1.8,3,1.9,3,0V127h0.5v6.7c0,1.4,2.3,1.4,2.3,0v-7.2c0-1.6-1.4-3.1-3.4-3.1C126.4,123.3,120.8,123.3,120.8,123.3z"/>
		</g>
		<g>
			<path fill="#3DC6EC" d="M123.6,122.7c1.4,0,2.7-1.1,2.7-2.3c0-1.3-1.2-2.4-2.7-2.4c-1.4,0-2.7,1.1-2.7,2.4
				C120.9,121.6,122.2,122.7,123.6,122.7z"/>
		</g>
	</g>
	<g>
		<g>
			<path fill="#00959F" d="M166.4,109c-1.2,0-2.2,1-2.2,2.3v5.4c0,1.1,1.5,1.1,1.5,0v-5h0.4v13.8c0,1.4,2.1,1.4,2.1,0v-8.1h0.4v8.1
				c0,1.4,2.1,1.4,2.1,0v-13.8h0.4v5c0,1.1,1.5,1.1,1.5,0v-5.4c0-1.2-0.9-2.3-2.3-2.3C170.2,109,166.4,109,166.4,109z"/>
		</g>
		<g>
			<path fill="#00959F" d="M168.3,108.5c1,0,1.8-0.8,1.8-1.7c0-0.9-0.8-1.7-1.8-1.7c-1,0-1.8,0.8-1.8,1.7
				C166.6,107.7,167.4,108.5,168.3,108.5z"/>
		</g>
	</g>
	<g>
		<g>
			<path fill="#3DC6EC" d="M209.4,130.4c-2,0-3.6,1.5-3.6,3.4v8c0,1.6,2.5,1.6,2.5,0v-7.4h0.6v20.4c0,2.1,3.3,2,3.3,0v-12h0.6v11.9
				c0,2,3.3,2.1,3.3,0v-20.3h0.6v7.3c0,1.6,2.4,1.6,2.4,0v-8c0-1.7-1.4-3.5-3.6-3.5L209.4,130.4L209.4,130.4z"/>
		</g>
		<g>
			<path fill="#3DC6EC" d="M212.4,129.7c1.5,0,2.8-1.2,2.8-2.6s-1.2-2.6-2.8-2.6s-2.8,1.2-2.8,2.6S210.9,129.7,212.4,129.7z"/>
		</g>
	</g>
	<g>
		<g>
			<path fill="#3DC6EC" d="M126.8,255.8c-2,0-3.6,1.5-3.6,3.4v8c0,1.5,2.5,1.5,2.5,0V260h0.6v20.4c0,2.1,3.3,2,3.3,0v-11.9h0.6v11.9
				c0,2,3.3,2.1,3.3,0V260h0.6v7.3c0,1.6,2.4,1.6,2.4,0v-8c0-1.7-1.4-3.5-3.6-3.5H126.8z"/>
		</g>
		<g>
			<path fill="#3DC6EC" d="M129.8,255.1c1.5,0,2.8-1.2,2.8-2.6s-1.2-2.6-2.8-2.6c-1.6,0-2.8,1.2-2.8,2.6S128.2,255.1,129.8,255.1z"
				/>
		</g>
	</g>
	<g>
		<g>
			<path fill="#1AB7B8" d="M250.2,141.2c-1.7,0-3,1.3-3,2.9v7c0,1.4,2,1.4,2,0v-6.4h0.5v17.5c0,1.8,2.7,1.7,2.7,0V152h0.4v10.3
				c0,1.7,2.7,1.8,2.7,0v-17.6h0.4v6.4c0,1.4,2,1.4,2,0v-6.9c0-1.5-1.2-3-3-3L250.2,141.2z"/>
		</g>
		<g>
			<path fill="#1AB7B8" d="M252.6,140.6c1.3,0,2.3-1,2.3-2.2c0-1.2-1.1-2.2-2.3-2.2s-2.3,1-2.3,2.2
				C250.3,139.6,251.3,140.6,252.6,140.6z"/>
		</g>
	</g>
	<g>
		<g>
			<path fill="#00959F" d="M218.6,250.3c-1.2,0-2.2,1-2.2,2.3v5.4c0,1.1,1.5,1.1,1.5,0v-5h0.4v13.8c0,1.4,2.1,1.4,2.1,0v-8.1h0.4
				v8.1c0,1.4,2.1,1.4,2.1,0v-13.8h0.4v5c0,1.1,1.5,1.1,1.5,0v-5.4c0-1.2-0.9-2.3-2.3-2.3H218.6z"/>
		</g>
		<g>
			<path fill="#00959F" d="M220.5,249.8c1,0,1.8-0.8,1.8-1.7c0-1-0.8-1.7-1.8-1.7c-1,0-1.8,0.8-1.8,1.7
				C218.8,249,219.6,249.8,220.5,249.8z"/>
		</g>
	</g>
	<g>
		<g>
			<path fill="#1AB7B8" d="M161,252.1c-1.7,0-3,1.3-3,3v7c0,1.4,2,1.4,2,0v-6.4h0.5v17.5c0,1.8,2.7,1.7,2.7,0v-10.3h0.4v10.3
				c0,1.7,2.7,1.8,2.7,0v-17.5h0.4v6.4c0,1.4,2,1.4,2,0v-6.9c0-1.5-1.2-3-3-3L161,252.1z"/>
		</g>
		<g>
			<path fill="#1AB7B8" d="M163.5,251.5c1.3,0,2.3-1,2.3-2.2c0-1.2-1-2.2-2.3-2.2c-1.3,0-2.3,1-2.3,2.2S162.2,251.5,163.5,251.5z"/>
		</g>
	</g>
	<g>
		<g>
			<path fill="#00959F" d="M107,240.9c-1.2,0-2.2,1-2.2,2.3v5.4c0,1.1,1.6,1.1,1.6,0v-5h0.4v13.8c0,1.4,2.1,1.4,2.1,0v-8.1h0.4v8.1
				c0,1.4,2.1,1.4,2.1,0v-13.8h0.4v5c0,1.1,1.5,1.1,1.5,0v-5.4c0-1.2-0.9-2.3-2.3-2.3H107z"/>
		</g>
		<g>
			<path fill="#00959F" d="M108.9,240.4c1,0,1.8-0.8,1.8-1.7c0-1-0.8-1.7-1.8-1.7c-1,0-1.8,0.8-1.8,1.7
				C107.2,239.6,108,240.4,108.9,240.4z"/>
		</g>
	</g>
	<g>
		<g>
			<path fill="#00959F" d="M79,155.8c-2,0-3.6,1.5-3.6,3.4v8c0,1.6,2.5,1.6,2.5,0v-7.3h0.6v20.4c0,2.1,3.3,2,3.3,0v-11.9h0.6v11.9
				c0,2,3.3,2.1,3.3,0v-20.4h0.6v7.3c0,1.6,2.4,1.6,2.4,0v-8c0-1.7-1.4-3.5-3.6-3.5H79z"/>
		</g>
		<g>
			<path fill="#00959F" d="M81.9,155.1c1.5,0,2.8-1.2,2.8-2.6s-1.2-2.6-2.8-2.6c-1.5,0-2.8,1.2-2.8,2.6S80.3,155.1,81.9,155.1z"/>
		</g>
	</g>
	<g>
		<g>
			<path fill="#3DC6EC" d="M91.8,128.5c-1.2,0-2.2,1-2.2,2.3v5.4c0,1.1,1.5,1.1,1.5,0v-5h0.4v13.8c0,1.4,2.1,1.4,2.1,0V137h0.4v8.1
				c0,1.4,2.1,1.4,2.1,0v-13.8h0.4v5c0,1.1,1.5,1.1,1.5,0v-5.4c0-1.2-0.9-2.3-2.3-2.3C95.6,128.5,91.8,128.5,91.8,128.5z"/>
		</g>
		<g>
			<path fill="#3DC6EC" d="M93.7,128c1,0,1.8-0.8,1.8-1.7c0-0.9-0.8-1.7-1.8-1.7c-1,0-1.8,0.8-1.8,1.7C91.9,127.2,92.7,128,93.7,128
				z"/>
		</g>
	</g>
	<g>
		<g>
			<path fill="#00959F" d="M129.5,94.5c-1.2,0-2.2,1-2.2,2.3v5.4c0,1.1,1.6,1.1,1.6,0v-5h0.4v13.8c0,1.4,2.1,1.4,2.1,0V103h0.4v8.1
				c0,1.4,2.1,1.4,2.1,0V97.2h0.4v5c0,1.1,1.5,1.1,1.5,0v-5.4c0-1.2-0.9-2.3-2.3-2.3C133.3,94.5,129.5,94.5,129.5,94.5z"/>
		</g>
		<g>
			<path fill="#00959F" d="M131.4,94c1,0,1.8-0.8,1.8-1.7c0-0.9-0.8-1.7-1.8-1.7s-1.8,0.8-1.8,1.7C129.6,93.2,130.4,94,131.4,94z"/>
		</g>
	</g>
	<g>
		<g>
			<path fill="#1AB7B8" d="M176.6,85.8c-1.2,0-2.2,1-2.2,2.3v5.4c0,1.1,1.5,1.1,1.5,0v-5h0.4v13.8c0,1.4,2.1,1.4,2.1,0v-8.1h0.4v8.1
				c0,1.4,2.1,1.4,2.1,0V88.5h0.4v5c0,1.1,1.5,1.1,1.5,0v-5.4c0-1.2-0.9-2.3-2.3-2.3C180.4,85.8,176.6,85.8,176.6,85.8z"/>
		</g>
		<g>
			<path fill="#1AB7B8" d="M178.5,85.3c1,0,1.8-0.8,1.8-1.7c0-1-0.8-1.7-1.8-1.7c-1,0-1.8,0.8-1.8,1.7
				C176.7,84.5,177.5,85.3,178.5,85.3z"/>
		</g>
	</g>
	<g>
		<g>
			<path fill="#00959F" d="M189,280c-1.1,0-2,0.8-2,1.9v4.3c0,0.9,1.4,0.9,1.4,0v-4h0.3v11.1c0,1.2,1.8,1.1,1.8,0v-6.5h0.3v6.5
				c0,1.1,1.8,1.2,1.8,0v-11.1h0.3v4c0,0.9,1.4,0.9,1.4,0v-4.3c0-0.9-0.8-1.9-2-1.9H189z"/>
		</g>
		<g>
			<path fill="#00959F" d="M190.7,279.5c0.9,0,1.5-0.7,1.5-1.4s-0.7-1.4-1.5-1.4c-0.9,0-1.5,0.7-1.5,1.4S189.8,279.5,190.7,279.5z"
				/>
		</g>
	</g>
	<g>
		<g>
			<path fill="#00959F" d="M114.3,276.3c-1.1,0-2,0.8-2,1.9v4.3c0,0.9,1.4,0.9,1.4,0v-4h0.3v11.1c0,1.2,1.8,1.1,1.8,0v-6.5h0.3v6.5
				c0,1.1,1.8,1.2,1.8,0v-11.1h0.3v4c0,0.9,1.3,0.9,1.3,0v-4.3c0-0.9-0.8-1.9-2-1.9H114.3z"/>
		</g>
		<g>
			<path fill="#00959F" d="M116,275.9c0.9,0,1.6-0.7,1.6-1.4s-0.7-1.4-1.6-1.4s-1.5,0.7-1.5,1.4C114.4,275.2,115.1,275.9,116,275.9z
				"/>
		</g>
	</g>
	<g>
		<g>
			<path fill="#00959F" d="M216.5,87.2c-1.1,0-2,0.8-2,1.9v4.3c0,0.9,1.4,0.9,1.4,0v-4h0.3v11.1c0,1.2,1.8,1.1,1.8,0V94h0.3v6.5
				c0,1.1,1.8,1.2,1.8,0V89.3h0.3v4c0,0.9,1.4,0.9,1.4,0V89c0-0.9-0.8-1.9-2-1.9L216.5,87.2L216.5,87.2z"/>
		</g>
		<g>
			<path fill="#00959F" d="M218.2,86.7c0.9,0,1.5-0.7,1.5-1.4c0-0.8-0.7-1.4-1.5-1.4c-0.9,0-1.5,0.7-1.5,1.4S217.3,86.7,218.2,86.7z
				"/>
		</g>
	</g>
	<g>
		<g>
			<path fill="#00959F" d="M243.9,103.7c-1.4,0-2.5,1.2-2.5,2.6v6.2c0,1.2,1.7,1.2,1.7,0v-5.7h0.4v15.7c0,1.6,2.3,1.6,2.3,0v-9.2
				h0.4v9.2c0,1.6,2.3,1.6,2.3,0v-15.7h0.4v5.7c0,1.2,1.7,1.2,1.7,0v-6.2c0-1.3-1-2.7-2.6-2.7H243.9z"/>
		</g>
		<g>
			<path fill="#00959F" d="M246.1,103.1c1.2,0,2-0.9,2-2c0-1.1-0.9-2-2-2c-1.1,0-2,0.9-2,2S245,103.1,246.1,103.1z"/>
		</g>
	</g>
	<g>
		<g>
			<path fill="#00959F" d="M280.9,114.4c-1,0-1.8,0.7-1.8,1.7v4.1c0,0.8,1.2,0.8,1.2,0v-3.7h0.3v10.1c0,1,1.6,1,1.6,0v-5.9h0.3v5.9
				c0,1,1.6,1,1.6,0v-10.1h0.3v3.7c0,0.8,1.2,0.8,1.2,0v-4c0-0.9-0.7-1.7-1.8-1.7H280.9z"/>
		</g>
		<g>
			<path fill="#00959F" d="M282.3,114.1c0.8,0,1.4-0.6,1.4-1.3c0-0.7-0.7-1.3-1.4-1.3c-0.8,0-1.4,0.6-1.4,1.3
				C281,113.5,281.5,114.1,282.3,114.1z"/>
		</g>
	</g>
	<g>
		<g>
			<path fill="#00959F" d="M64.9,248.5c-1,0-1.8,0.8-1.8,1.7v4c0,0.8,1.2,0.8,1.2,0v-3.7h0.3v10.1c0,1,1.6,1,1.6,0v-5.9h0.3v5.9
				c0,1,1.6,1,1.6,0v-10.1h0.3v3.7c0,0.8,1.2,0.8,1.2,0v-4c0-0.9-0.7-1.7-1.8-1.7L64.9,248.5z"/>
		</g>
		<g>
			<path fill="#00959F" d="M66.4,248.1c0.8,0,1.4-0.6,1.4-1.3c0-0.7-0.7-1.3-1.4-1.3c-0.8,0-1.4,0.6-1.4,1.3
				C65,247.6,65.6,248.1,66.4,248.1z"/>
		</g>
	</g>
	<g>
		<g>
			<path fill="#00959F" d="M47.5,228.2c-1,0-1.8,0.8-1.8,1.7v4c0,0.8,1.2,0.8,1.2,0v-3.7h0.3v10.1c0,1,1.6,1,1.6,0v-5.9h0.3v5.9
				c0,1,1.6,1,1.6,0v-10.1H51v3.7c0,0.8,1.2,0.8,1.2,0v-4c0-0.9-0.7-1.7-1.8-1.7L47.5,228.2z"/>
		</g>
		<g>
			<path fill="#00959F" d="M49,227.8c0.8,0,1.4-0.6,1.4-1.3c0-0.7-0.7-1.3-1.4-1.3c-0.8,0-1.4,0.6-1.4,1.3
				C47.6,227.3,48.2,227.8,49,227.8z"/>
		</g>
	</g>
	<g>
		<g>
			<path fill="#00959F" d="M259.9,106.4c-1,0-1.8,0.7-1.8,1.7v4.1c0,0.8,1.2,0.8,1.2,0v-3.7h0.3v10.1c0,1,1.6,1,1.6,0v-5.9h0.3v5.9
				c0,1,1.6,1,1.6,0v-10.1h0.3v3.7c0,0.8,1.2,0.8,1.2,0v-4c0-0.9-0.7-1.7-1.8-1.7H259.9z"/>
		</g>
		<g>
			<path fill="#00959F" d="M261.3,106.1c0.8,0,1.4-0.6,1.4-1.3c0-0.7-0.7-1.3-1.4-1.3c-0.8,0-1.4,0.6-1.4,1.3
				C259.9,105.5,260.5,106.1,261.3,106.1z"/>
		</g>
	</g>
	<g>
		<g>
			<path fill="#3DC6EC" d="M229.4,268.8c-1,0-1.8,0.8-1.8,1.7v4c0,0.8,1.2,0.8,1.2,0v-3.7h0.3V281c0,1,1.6,1,1.6,0V275h0.3v5.9
				c0,1,1.6,1,1.6,0v-10.1h0.3v3.7c0,0.8,1.2,0.8,1.2,0v-4c0-0.9-0.7-1.7-1.8-1.7H229.4z"/>
		</g>
		<g>
			<path fill="#3DC6EC" d="M230.9,268.4c0.8,0,1.4-0.6,1.4-1.3s-0.7-1.3-1.4-1.3c-0.8,0-1.4,0.6-1.4,1.3
				C229.5,267.9,230.1,268.4,230.9,268.4z"/>
		</g>
	</g>
	<g>
		<g>
			<path fill="#1AB7B8" d="M290.5,233.6c-1.1,0-2,0.8-2,1.8v4.3c0,0.9,1.4,0.9,1.4,0v-4h0.3v11.1c0,1.2,1.8,1.1,1.8,0v-6.5h0.3v6.5
				c0,1.1,1.8,1.2,1.8,0v-11.1h0.3v4c0,0.9,1.4,0.9,1.4,0v-4.3c0-0.9-0.8-1.9-2-1.9L290.5,233.6L290.5,233.6z"/>
		</g>
		<g>
			<path fill="#1AB7B8" d="M292.1,233.1c0.9,0,1.6-0.7,1.6-1.4s-0.7-1.4-1.6-1.4s-1.5,0.7-1.5,1.4
				C290.6,232.4,291.3,233.1,292.1,233.1z"/>
		</g>
	</g>
	<g>
		<g>
			<path fill="#00959F" d="M214.3,279.3c-1.2,0-2.2,1-2.2,2.3v5.4c0,1.1,1.5,1.1,1.5,0v-5h0.4v13.8c0,1.4,2.1,1.4,2.1,0v-8.1h0.4
				v8.1c0,1.4,2.1,1.4,2.1,0v-13.8h0.4v5c0,1.1,1.5,1.1,1.5,0v-5.4c0-1.2-0.9-2.3-2.3-2.3H214.3z"/>
		</g>
		<g>
			<path fill="#00959F" d="M216.2,278.8c1,0,1.8-0.8,1.8-1.7c0-1-0.8-1.7-1.8-1.7c-1,0-1.8,0.8-1.8,1.7
				C214.4,278,215.2,278.8,216.2,278.8z"/>
		</g>
	</g>
	<g>
		<g>
			<path fill="#00959F" d="M75.9,229.3c-1.2,0-2.2,1-2.2,2.3v5.4c0,1.1,1.5,1.1,1.5,0v-5h0.4v13.8c0,1.4,2.1,1.4,2.1,0v-8.1H78v8.1
				c0,1.4,2.1,1.4,2.1,0V232h0.4v5c0,1.1,1.5,1.1,1.5,0v-5.4c0-1.2-0.9-2.3-2.3-2.3H75.9z"/>
		</g>
		<g>
			<path fill="#00959F" d="M77.7,228.8c1,0,1.8-0.8,1.8-1.7c0-1-0.8-1.7-1.8-1.7c-1,0-1.8,0.8-1.8,1.7C76,228,76.8,228.8,77.7,228.8
				z"/>
		</g>
	</g>
	<g>
		<g>
			<path fill="#00959F" d="M86,98.1c-1.2,0-2.2,1-2.2,2.3v5.4c0,1.1,1.5,1.1,1.5,0v-5h0.4v13.8c0,1.4,2.1,1.4,2.1,0v-8.1h0.4v8.1
				c0,1.4,2.1,1.4,2.1,0v-13.8h0.4v5c0,1.1,1.5,1.1,1.5,0v-5.4c0-1.2-0.9-2.3-2.3-2.3C89.8,98.1,86,98.1,86,98.1z"/>
		</g>
		<g>
			<path fill="#00959F" d="M87.9,97.6c1,0,1.8-0.8,1.8-1.7c0-1-0.8-1.7-1.8-1.7c-1,0-1.8,0.8-1.8,1.7C86.1,96.8,86.9,97.6,87.9,97.6
				z"/>
		</g>
	</g>
	<g>
		<g>
			<path fill="#3DC6EC" d="M267.2,186.5c-1.2,0-2.2,1-2.2,2.3v5.4c0,1.1,1.6,1.1,1.6,0v-5h0.4v13.8c0,1.4,2.1,1.4,2.1,0V195h0.4v8.1
				c0,1.4,2.1,1.4,2.1,0v-13.8h0.4v5c0,1.1,1.5,1.1,1.5,0v-5.4c0-1.2-0.9-2.3-2.3-2.3H267.2z"/>
		</g>
		<g>
			<path fill="#3DC6EC" d="M269.1,186c1,0,1.8-0.8,1.8-1.7c0-1-0.8-1.7-1.8-1.7s-1.8,0.8-1.8,1.7C267.3,185.2,268.1,186,269.1,186z"
				/>
		</g>
	</g>
	<g>
		<g>
			<path fill="#00959F" d="M72.2,189.1c-1.9,0-3.3,1.5-3.3,3.4v8c0,1.6,2.3,1.6,2.3,0v-7.3h0.6v20.4c0,2.1,3,2,3,0v-11.9h0.5v11.9
				c0,2,3,2.1,3,0v-20.4h0.5v7.3c0,1.6,2.3,1.6,2.3,0v-8c0-1.7-1.4-3.5-3.4-3.5H72.2z"/>
		</g>
		<g>
			<path fill="#00959F" d="M75.1,188.4c1.4,0,2.6-1.2,2.6-2.6c0-1.4-1.2-2.6-2.6-2.6s-2.7,1.2-2.7,2.6
				C72.4,187.3,73.6,188.4,75.1,188.4z"/>
		</g>
	</g>
	<g>
		<g>
			<path fill="#00959F" d="M287.8,188.4c-1.2,0-2.2,0.9-2.2,2.2v5.1c0,1,1.4,1,1.4,0v-4.6h0.4v13c0,1.3,2,1.3,2,0v-7.6h0.4v7.6
				c0,1.3,2,1.3,2,0v-13h0.4v4.6c0,1,1.4,1,1.4,0v-5.1c0-1.1-0.9-2.2-2.2-2.2L287.8,188.4L287.8,188.4z"/>
		</g>
		<g>
			<path fill="#00959F" d="M289.6,188c0.9,0,1.7-0.7,1.7-1.7s-0.8-1.7-1.7-1.7c-0.9,0-1.7,0.7-1.7,1.7S288.6,188,289.6,188z"/>
		</g>
	</g>
	<g>
		<polygon fill="#F7C044" points="107.2,207.8 107.2,171.8 101.8,171.8 93.6,174.3 93.6,180.8 94,180.8 99.4,179 99.4,207.8 		"/>
		<path fill="#F7C044" d="M115.9,192.5h3.3c1.2,0,2.8,0,3.8,0.6c1.2,0.7,1.7,1.9,1.7,3.8c0,3.1-1.4,4.3-4.9,4.3c-3,0-6-1-6-1h-0.4
			v6.5c0,0,2.6,0.9,6.7,0.9c8.7,0,13-4.1,13-10.5c0-5-2.6-7.9-6.7-8.6c3.3-0.8,6-3.2,6-8.1c0-5.9-4.1-8.9-11.6-8.9
			c-4.1,0-7.2,0.9-7.2,0.9v6.5h0.4c0,0,3.1-1,5.9-1c2.9,0,4,1.2,4,3.8c0,1.9-0.5,2.9-1.4,3.5c-1,0.7-2.3,0.7-3.8,0.7h-2.9
			C115.9,186.1,115.9,192.5,115.9,192.5z"/>
		<path fill="#F7C044" d="M153,189.6c0,7-0.2,9.6-0.9,11.2c-0.5,1.3-1.2,1.8-2.4,1.8c-1.2,0-2-0.6-2.5-1.8
			c-0.7-1.8-0.9-5.6-0.9-10.9c0-7,0.2-9.6,0.9-11.2c0.5-1.3,1.2-1.8,2.4-1.8s2,0.6,2.5,1.8C152.8,180.4,153,184.2,153,189.6z
			 M161.6,189.6c0-6.5-0.5-12-2.8-15c-1.9-2.4-5-3.6-9.1-3.6c-4.1,0-7.2,1.2-9.1,3.6c-2.3,3-2.8,8.3-2.8,15.1c0,6.5,0.5,11.9,2.8,15
			c1.9,2.4,5,3.6,9.1,3.6c4.1,0,7.2-1.2,9.1-3.6C161.1,201.7,161.6,196.5,161.6,189.6z"/>
		<polygon fill="#F7C044" points="166.7,199.9 165.1,213.2 171.1,213.2 174.4,199.9 		"/>
		<path fill="#F7C044" d="M192.6,189.6c0,7-0.2,9.6-0.9,11.2c-0.5,1.3-1.2,1.8-2.4,1.8s-2-0.6-2.5-1.8c-0.7-1.8-0.9-5.6-0.9-10.9
			c0-7,0.2-9.6,0.9-11.2c0.5-1.3,1.2-1.8,2.4-1.8s2,0.6,2.5,1.8C192.5,180.4,192.6,184.2,192.6,189.6z M201.2,189.6
			c0-6.5-0.5-12-2.8-15c-1.9-2.4-5-3.6-9.1-3.6c-4.1,0-7.2,1.2-9.1,3.6c-2.2,3-2.8,8.3-2.8,15.1c0,6.5,0.5,11.9,2.8,15
			c1.9,2.4,5,3.6,9.1,3.6c4.1,0,7.2-1.2,9.1-3.6C200.7,201.7,201.2,196.5,201.2,189.6z"/>
		<path fill="#F7C044" d="M221.6,189.6c0,7-0.2,9.6-0.9,11.2c-0.5,1.3-1.2,1.8-2.4,1.8s-2-0.6-2.5-1.8c-0.7-1.8-0.9-5.6-0.9-10.9
			c0-7,0.2-9.6,0.9-11.2c0.5-1.3,1.2-1.8,2.4-1.8c1.2,0,2,0.6,2.5,1.8C221.5,180.4,221.6,184.2,221.6,189.6z M230.2,189.6
			c0-6.5-0.5-12-2.8-15c-1.9-2.4-5-3.6-9.1-3.6c-4.1,0-7.2,1.2-9.1,3.6c-2.2,3-2.8,8.3-2.8,15.1c0,6.5,0.5,11.9,2.8,15
			c1.9,2.4,5,3.6,9.1,3.6c4.1,0,7.2-1.2,9.1-3.6C229.7,201.7,230.2,196.5,230.2,189.6z"/>
		<path fill="#F7C044" d="M250.6,189.6c0,7-0.2,9.6-0.9,11.2c-0.5,1.3-1.2,1.8-2.4,1.8c-1.2,0-2-0.6-2.5-1.8
			c-0.7-1.8-0.9-5.6-0.9-10.9c0-7,0.2-9.6,0.9-11.2c0.5-1.3,1.2-1.8,2.4-1.8c1.2,0,2,0.6,2.5,1.8
			C250.5,180.4,250.6,184.2,250.6,189.6z M259.2,189.6c0-6.5-0.5-12-2.8-15c-1.9-2.4-5-3.6-9.1-3.6c-4.1,0-7.2,1.2-9.1,3.6
			c-2.2,3-2.8,8.3-2.8,15.1c0,6.5,0.5,11.9,2.8,15c1.9,2.4,5,3.6,9.1,3.6c4.1,0,7.2-1.2,9.1-3.6
			C258.7,201.7,259.2,196.5,259.2,189.6z"/>
	</g>
	<g>
		<path fill="#FFFFFF" d="M161,143.9c1.4,0,2.2,1.2,2.2,2.7c0,1.5-0.8,2.7-2.2,2.7c-1.4,0-2.2-1.1-2.2-2.7
			C158.8,145.1,159.6,143.9,161,143.9z M161.1,142.6c-2.5,0-3.6,1.7-3.6,4.1c0,2.2,1,3.9,3.5,3.9c2.5,0,3.7-1.4,3.7-4.1
			C164.6,144.3,163.6,142.6,161.1,142.6z"/>
		<path fill="#FFFFFF" d="M170.4,150.5l2.6-7.9h-1.9l-1,3.4c-0.3,1.2-0.5,2.2-0.7,3.3l0,0c-0.2-1.1-0.4-2-0.7-3l-0.9-3.6h-2l2.5,7.9
			H170.4z"/>
		<polygon fill="#FFFFFF" points="179.2,145.6 176.3,145.6 176.3,143.9 179.4,143.9 179.4,142.6 175,142.6 175,150.6 179.6,150.6 
			179.6,149.3 176.3,149.3 176.3,146.9 179.2,146.9 		"/>
		<path fill="#FFFFFF" d="M184,144c0.1,0,0.5-0.1,1.2-0.1c1.2,0,1.9,0.4,1.9,1.2c0,0.7-0.7,1.2-2,1.2h-1L184,144L184,144z
			 M182.7,150.5h1.4v-3h0.8c1,0,1.5,0.3,1.8,1.2c0.4,0.9,0.5,1.5,0.7,1.7h1.4c-0.1-0.3-0.4-1.3-0.6-2.1c-0.1-0.7-0.4-1.2-0.8-1.4
			l0,0c0.5-0.2,1.1-0.9,1.1-2c0-0.8-0.2-1.4-0.6-1.7c-0.4-0.4-1.3-0.6-3-0.6c-1.1,0-1.7,0.1-2.2,0.1L182.7,150.5L182.7,150.5z"/>
	</g>
</g>
</svg>
