<?xml version="1.0" encoding="utf-8"?>
<!-- Generator: Adobe Illustrator 17.1.0, SVG Export Plug-In . SVG Version: 6.00 Build 0)  -->
<!DOCTYPE svg PUBLIC "-//W3C//DTD SVG 1.1//EN" "http://www.w3.org/Graphics/SVG/1.1/DTD/svg11.dtd">
<svg version="1.1" id="Layer_1" xmlns="http://www.w3.org/2000/svg" xmlns:xlink="http://www.w3.org/1999/xlink" x="0px" y="0px"
	 width="252.7px" height="199px" viewBox="0 0 252.7 199" enable-background="new 0 0 252.7 199" xml:space="preserve">
<g>
	<g>
		<path fill-rule="evenodd" clip-rule="evenodd" fill="#FFFFFF" d="M88.6,5.9h0.9c1.9,0,3.2,0.5,3.2,1.7c0,1.2-1.3,1.7-2.8,1.7
			c-0.6,0-1,0-1.3,0V5.9z M88.6,1.9c0.2,0,0.6-0.1,1.2-0.1c1.2,0,1.9,0.4,1.9,1.1c0,0.7-0.8,1.2-2.2,1.2h-0.9V1.9z M86.7,10.9
			c0.4,0.1,1.1,0.2,2.2,0.2c2.9,0,4.3-0.4,4.9-1c0.5-0.5,0.8-1.4,0.8-2.4c0-1.5-0.7-2.5-1.6-2.8v0c0.1-0.4,0.6-1.3,0.6-2.2
			c0-0.9-0.4-1.6-1-2C92,0.2,91.1,0,89.4,0c-1.2,0-2.2,0.1-2.7,0.2V10.9z"/>
		<path fill-rule="evenodd" clip-rule="evenodd" fill="#FFFFFF" d="M98.3,0.1v6.1c0,3.5,1.2,4.8,4.3,4.8c3.3,0,4.6-1.4,4.6-4.8V0.1
			h-1.9v6.3c0,1.9-0.9,2.8-2.6,2.8c-1.6,0-2.5-1-2.5-2.8V0.1H98.3z"/>
		<rect x="110.9" y="0.1" fill-rule="evenodd" clip-rule="evenodd" fill="#FFFFFF" width="1.9" height="10.9"/>
		<polygon fill-rule="evenodd" clip-rule="evenodd" fill="#FFFFFF" points="117.5,11 123.7,11 123.7,9.2 119.4,9.2 119.4,0.1 
			117.5,0.1 		"/>
		<polygon fill-rule="evenodd" clip-rule="evenodd" fill="#FFFFFF" points="128.1,10.9 130,10.9 130,1.8 132.9,1.8 132.9,0 125.2,0 
			125.2,1.8 128.1,1.8 		"/>
		<path fill-rule="evenodd" clip-rule="evenodd" fill="#FFFFFF" d="M146.2,1.8c2,0,3.1,1.7,3.1,3.7c0,2.1-1.1,3.7-3,3.7
			c-1.9,0-3.1-1.5-3.1-3.7C143.2,3.4,144.3,1.8,146.2,1.8z M146.3,0c-3.5,0-5,2.3-5,5.6c0,3.1,1.4,5.4,4.8,5.4c3.5,0,5.1-2,5.1-5.6
			C151.2,2.4,149.9,0,146.3,0z"/>
		<path fill-rule="evenodd" clip-rule="evenodd" fill="#FFFFFF" d="M159.2,10.9l3.6-10.9h-2.6l-1.4,4.6c-0.4,1.7-0.7,3.1-1,4.5h0
			c-0.3-1.5-0.6-2.8-1-4.2l-1.3-5h-2.7l3.4,10.9L159.2,10.9z"/>
		<polygon fill-rule="evenodd" clip-rule="evenodd" fill="#FFFFFF" points="171.4,4.1 167.4,4.1 167.4,1.8 171.6,1.8 171.6,0 
			165.5,0 165.5,11 171.8,11 171.8,9.2 167.4,9.2 167.4,5.9 171.4,5.9 		"/>
		<path fill-rule="evenodd" clip-rule="evenodd" fill="#FFFFFF" d="M178,1.9c0.2,0,0.7-0.1,1.6-0.1c1.6,0,2.6,0.6,2.6,1.6
			c0,1-1,1.7-2.8,1.7H178V1.9z M176.1,10.9h1.9V6.9h1.1c1.4,0,2.1,0.4,2.5,1.7c0.5,1.3,0.7,2.1,0.9,2.4h2c-0.2-0.4-0.5-1.8-0.8-2.9
			c-0.2-0.9-0.5-1.7-1.1-2v0c0.7-0.3,1.5-1.3,1.5-2.8c0-1.1-0.3-1.9-0.8-2.4c-0.6-0.6-1.8-0.9-4.1-0.9c-1.5,0-2.4,0.1-3.1,0.2V10.9z
			"/>
	</g>
	<g>
		<path fill-rule="evenodd" clip-rule="evenodd" fill="#FFFFFF" d="M4,189.8c0.7,0,1,0.5,1,1c0,0.6-0.4,1-1.3,1.5
			c-0.5-0.5-0.8-0.9-0.8-1.5C2.9,190.3,3.3,189.8,4,189.8z M3.7,197.2c-1.1,0-1.9-0.7-1.9-1.6c0-0.7,0.4-1.1,0.9-1.4
			c0.9,0.9,1.8,1.9,2.5,2.5C4.9,197,4.4,197.2,3.7,197.2z M9.7,198.9c-0.7-0.6-1.3-1.1-1.9-1.7c1-1.1,1.5-2.5,1.8-4.1H7.4
			c-0.1,1-0.5,2-0.9,2.7c-0.5-0.6-1.1-1.3-1.7-2l0-0.1c1.4-0.8,2-1.7,2-2.8c0-1.7-1.2-2.8-2.8-2.8c-2.1,0-3.1,1.8-3.1,3.1
			c0,0.8,0.3,1.6,0.7,2.1v0.1c-1,0.4-1.7,1.3-1.7,2.7c0,1.4,0.9,3,3.4,3c1.3,0,2.2-0.4,2.9-0.9c0.2,0.4,0.4,0.7,0.6,0.9H9.7z"/>
		<path fill-rule="evenodd" clip-rule="evenodd" fill="#FFFFFF" d="M22.1,189.8c2,0,3.1,1.7,3.1,3.7c0,2.1-1.1,3.7-3,3.7
			c-1.9,0-3.1-1.5-3.1-3.7C19.1,191.4,20.2,189.8,22.1,189.8z M22.2,188c-3.5,0-5,2.3-5,5.6c0,3.1,1.4,5.4,4.8,5.4
			c3.5,0,5.1-2,5.1-5.6C27.1,190.4,25.8,188,22.2,188z"/>
		<polygon fill-rule="evenodd" clip-rule="evenodd" fill="#FFFFFF" points="31.8,198.9 33.7,198.9 33.7,189.8 36.6,189.8 36.6,188 
			28.9,188 28.9,189.8 31.8,189.8 		"/>
		<polygon fill-rule="evenodd" clip-rule="evenodd" fill="#FFFFFF" points="40.4,188.1 40.4,198.9 42.3,198.9 42.3,193.9 
			47.4,193.9 47.4,198.9 49.3,198.9 49.3,188.1 47.4,188.1 47.4,192.1 42.3,192.1 42.3,188.1 		"/>
		<polygon fill-rule="evenodd" clip-rule="evenodd" fill="#FFFFFF" points="58.8,192.1 54.9,192.1 54.9,189.8 59.1,189.8 59.1,188 
			53,188 53,199 59.3,199 59.3,197.2 54.9,197.2 54.9,193.9 58.8,193.9 		"/>
		<path fill-rule="evenodd" clip-rule="evenodd" fill="#FFFFFF" d="M65.5,189.9c0.2,0,0.7-0.1,1.6-0.1c1.6,0,2.5,0.6,2.5,1.6
			c0,1-1,1.7-2.8,1.7h-1.4V189.9z M63.6,198.9h1.9v-4.1h1c1.4,0,2.1,0.4,2.5,1.6c0.5,1.3,0.7,2.1,0.8,2.4h2
			c-0.2-0.4-0.5-1.8-0.8-2.9c-0.2-0.9-0.5-1.7-1.1-2v0c0.7-0.3,1.5-1.3,1.5-2.8c0-1.1-0.3-1.9-0.8-2.4c-0.6-0.6-1.8-0.9-4-0.9
			c-1.5,0-2.5,0.1-3.1,0.2V198.9z"/>
		<path fill-rule="evenodd" clip-rule="evenodd" fill="#FFFFFF" d="M86.2,196.9c-0.5,0.2-1.3,0.4-2,0.4c-2.2,0-3.4-1.4-3.4-3.7
			c0-2.5,1.5-3.7,3.4-3.7c0.9,0,1.5,0.2,2,0.4l0.5-1.8c-0.4-0.2-1.4-0.4-2.7-0.4c-3.3,0-5.2,1.8-5.2,5.7c0,3.2,1.4,5.3,5,5.3
			c1.3,0,2.3-0.2,2.8-0.4L86.2,196.9z"/>
		<path fill-rule="evenodd" clip-rule="evenodd" fill="#FFFFFF" d="M94.3,189.8c2,0,3.1,1.7,3.1,3.7c0,2.1-1.1,3.7-3,3.7
			c-1.9,0-3.1-1.5-3.1-3.7C91.3,191.4,92.4,189.8,94.3,189.8z M94.4,188c-3.5,0-5,2.3-5,5.6c0,3.1,1.4,5.4,4.8,5.4
			c3.5,0,5.1-2,5.1-5.6C99.3,190.4,98,188,94.4,188z"/>
		<path fill-rule="evenodd" clip-rule="evenodd" fill="#FFFFFF" d="M111.5,198.9h2.4l-0.6-10.9h-3.2l-1.2,3.2
			c-0.3,1.3-0.7,2.8-1,4.1h-0.1c-0.2-1.4-0.6-2.8-0.9-4.1l-1.1-3.3h-3.2l-0.7,10.9h2.2l0.2-4.4c0.1-1.4,0.1-3.2,0.2-4.8h0
			c0.2,1.5,0.6,3.1,1,4.5l1.2,4.5h1.9l1.3-4.5c0.4-1.3,0.9-3,1.2-4.5h0c0,1.7,0.1,3.3,0.1,4.7L111.5,198.9z"/>
		<path fill-rule="evenodd" clip-rule="evenodd" fill="#FFFFFF" d="M127.1,198.9h2.4l-0.6-10.9h-3.2l-1.2,3.2
			c-0.3,1.3-0.7,2.8-1,4.1h-0.1c-0.2-1.4-0.6-2.8-0.9-4.1l-1.1-3.3h-3.2l-0.7,10.9h2.2l0.2-4.4c0.1-1.4,0.1-3.2,0.2-4.8h0
			c0.2,1.5,0.6,3.1,1,4.5l1.2,4.5h1.9l1.3-4.5c0.4-1.3,0.9-3,1.2-4.5h0c0,1.7,0.1,3.3,0.1,4.7L127.1,198.9z"/>
		<path fill-rule="evenodd" clip-rule="evenodd" fill="#FFFFFF" d="M133.2,188.1v6.1c0,3.5,1.2,4.8,4.3,4.8c3.3,0,4.6-1.4,4.6-4.8
			v-6.1h-1.9v6.3c0,1.9-0.9,2.8-2.6,2.8c-1.6,0-2.5-1-2.5-2.8v-6.3H133.2z"/>
		<path fill-rule="evenodd" clip-rule="evenodd" fill="#FFFFFF" d="M147.7,198.9v-3.3c0-1.8,0-3.3-0.1-4.7l0,0
			c0.6,1.3,1.4,2.7,2.1,3.8l2.6,4.2h2.2v-10.9h-1.9v3.2c0,1.6,0,3.1,0.2,4.5h0c-0.5-1.2-1.2-2.6-2-3.7l-2.6-4h-2.6v10.9H147.7z"/>
		<rect x="158.4" y="188.1" fill-rule="evenodd" clip-rule="evenodd" fill="#FFFFFF" width="1.9" height="10.9"/>
		<polygon fill-rule="evenodd" clip-rule="evenodd" fill="#FFFFFF" points="167,198.9 168.9,198.9 168.9,189.8 171.8,189.8 
			171.8,188 164.1,188 164.1,189.8 167,189.8 		"/>
		<path fill-rule="evenodd" clip-rule="evenodd" fill="#FFFFFF" d="M180.5,198.9v-4.5l3.6-6.3h-2.7l-1,2.6c-0.2,0.8-0.4,1.4-0.6,2.1
			h0c-0.2-0.7-0.4-1.3-0.6-2.1l-1-2.6h-2.8l3.4,6.4v4.4H180.5z"/>
		<path fill-rule="evenodd" clip-rule="evenodd" fill="#FFFFFF" d="M194.5,194.1l0.6-2.2c0.2-0.6,0.3-1.4,0.5-2h0
			c0.2,0.6,0.4,1.4,0.5,2l0.7,2.2H194.5z M197.2,195.9l0.8,3h2.6l-3.3-10.9h-3.2l-3.3,10.9h2.5l0.8-3H197.2z"/>
		<path fill-rule="evenodd" clip-rule="evenodd" fill="#FFFFFF" d="M203.3,198.4c0.5,0.3,1.4,0.6,2.6,0.6c3.3,0,4.4-1.4,4.4-3.2
			c0-1.6-0.7-2.6-2.3-3.4c-1.9-0.6-2.7-0.9-2.7-1.6c0-0.6,0.7-1.1,2.1-1.1c1.2,0,1.8,0.3,2.1,0.5l0.4-1.8c-0.5-0.3-1.1-0.5-2.5-0.5
			c-2.9,0-4.1,1.3-4.1,3.1c0,1.6,0.9,2.7,2.6,3.3c1.8,0.5,2.4,0.9,2.4,1.6c0,0.7-0.8,1.2-2.3,1.2c-1.1,0-1.9-0.4-2.4-0.7
			L203.3,198.4z"/>
		<path fill-rule="evenodd" clip-rule="evenodd" fill="#FFFFFF" d="M213.9,198.4c0.5,0.3,1.4,0.6,2.6,0.6c3.3,0,4.4-1.4,4.4-3.2
			c0-1.6-0.7-2.6-2.3-3.4c-1.9-0.6-2.7-0.9-2.7-1.6c0-0.6,0.7-1.1,2.1-1.1c1.2,0,1.8,0.3,2.1,0.5l0.4-1.8c-0.5-0.3-1.2-0.5-2.5-0.5
			c-2.9,0-4.1,1.3-4.1,3.1c0,1.6,0.9,2.7,2.6,3.3c1.8,0.5,2.4,0.9,2.4,1.6c0,0.7-0.8,1.2-2.3,1.2c-1.1,0-1.9-0.4-2.4-0.7
			L213.9,198.4z"/>
		<polygon fill-rule="evenodd" clip-rule="evenodd" fill="#FFFFFF" points="230.4,192.1 226.5,192.1 226.5,189.8 230.7,189.8 
			230.7,188 224.6,188 224.6,199 230.9,199 230.9,197.2 226.5,197.2 226.5,193.9 230.4,193.9 		"/>
		<polygon fill-rule="evenodd" clip-rule="evenodd" fill="#FFFFFF" points="237.2,198.9 239.1,198.9 239.1,189.8 242,189.8 242,188 
			234.3,188 234.3,189.8 237.2,189.8 		"/>
		<path fill-rule="evenodd" clip-rule="evenodd" fill="#FFFFFF" d="M245.7,198.4c0.5,0.3,1.4,0.6,2.6,0.6c3.3,0,4.4-1.4,4.4-3.2
			c0-1.6-0.7-2.6-2.3-3.4c-1.9-0.6-2.7-0.9-2.7-1.6c0-0.6,0.7-1.1,2.1-1.1c1.2,0,1.8,0.3,2.1,0.5l0.4-1.8c-0.5-0.3-1.2-0.5-2.5-0.5
			c-2.9,0-4.1,1.3-4.1,3.1c0,1.6,0.9,2.7,2.6,3.3c1.8,0.5,2.4,0.9,2.4,1.6c0,0.7-0.8,1.2-2.3,1.2c-1.1,0-1.9-0.4-2.4-0.7
			L245.7,198.4z"/>
	</g>
	<g>
		<path fill-rule="evenodd" clip-rule="evenodd" fill="#F7BE44" d="M50.2,136.4h-14c6.2-7.7,14.1-15.8,14.1-26.8
			c0-8.4-4.8-13.4-16-13.4c-5.7,0-10.2,1.3-10.2,1.3v9h0.5c0,0,4.4-1.4,7.9-1.4c4,0,5.9,1.8,5.9,6c0,7.8-6.3,15.7-14.9,26.9v8.1
			h26.7V136.4z"/>
		<path fill-rule="evenodd" clip-rule="evenodd" fill="#F7BE44" d="M67.2,132.1c0-4,1.2-6.6,3.8-8.2c3.1,1.6,5.9,3.8,5.9,8.8
			c0,3.9-1.7,6.2-4.9,6.2C68.9,138.9,67.2,136.7,67.2,132.1z M68.3,108.1c0-2.9,1.1-5,4.1-5c2.9,0,4.1,2.1,4.1,5.5
			c0,3.7-1.3,6-3.2,7.2C70.5,114.6,68.3,112.4,68.3,108.1z M57.4,108.5c0,5.5,1.9,10,6.8,12.6c-4.8,2.2-7.8,5.7-7.8,12.4
			c0,8.3,4.8,13.3,15.6,13.3c11.4,0,16.4-5.5,16.4-14.2c0-6.3-2.6-11.1-8-13.8c4.1-1.8,6.9-5.1,6.9-11.2c0-7.6-4.7-12.2-14.9-12.2
			C62,95.3,57.4,100.1,57.4,108.5z"/>
		<polygon fill-rule="evenodd" clip-rule="evenodd" fill="#F7BE44" points="95.6,135.1 93.4,153.4 101.6,153.4 106.2,135.1 		"/>
		<path fill-rule="evenodd" clip-rule="evenodd" fill="#F7BE44" d="M131.4,120.8c0,9.6-0.3,13.2-1.2,15.5c-0.7,1.8-1.7,2.6-3.3,2.6
			c-1.6,0-2.7-0.8-3.4-2.6c-1-2.5-1.2-7.7-1.2-15.1c0-9.6,0.3-13.2,1.2-15.5c0.7-1.8,1.7-2.6,3.3-2.6c1.6,0,2.7,0.8,3.4,2.6
			C131.2,108.2,131.4,113.4,131.4,120.8z M143.3,120.9c0-8.9-0.7-16.5-3.8-20.7c-2.6-3.3-6.9-5-12.6-5c-5.6,0-9.9,1.6-12.6,5
			c-3.1,4.2-3.9,11.4-3.9,20.8c0,8.9,0.7,16.4,3.8,20.7c2.6,3.3,6.9,5,12.6,5c5.6,0,9.9-1.6,12.6-5
			C142.6,137.5,143.3,130.3,143.3,120.9z"/>
		<path fill-rule="evenodd" clip-rule="evenodd" fill="#F7BE44" d="M171.4,120.8c0,9.6-0.3,13.2-1.2,15.5c-0.7,1.8-1.7,2.6-3.3,2.6
			c-1.6,0-2.7-0.8-3.4-2.6c-1-2.5-1.2-7.7-1.2-15.1c0-9.6,0.3-13.2,1.2-15.5c0.7-1.8,1.7-2.6,3.3-2.6c1.6,0,2.7,0.8,3.4,2.6
			C171.2,108.2,171.4,113.4,171.4,120.8z M183.3,120.9c0-8.9-0.7-16.5-3.8-20.7c-2.6-3.3-6.9-5-12.6-5c-5.6,0-9.9,1.6-12.6,5
			c-3.2,4.2-3.9,11.4-3.9,20.8c0,8.9,0.7,16.4,3.8,20.7c2.6,3.3,6.9,5,12.6,5c5.6,0,9.9-1.6,12.6-5
			C182.6,137.5,183.3,130.3,183.3,120.9z"/>
		<path fill-rule="evenodd" clip-rule="evenodd" fill="#F7BE44" d="M211.4,120.8c0,9.6-0.3,13.2-1.2,15.5c-0.7,1.8-1.7,2.6-3.3,2.6
			c-1.6,0-2.7-0.8-3.4-2.6c-1-2.5-1.2-7.7-1.2-15.1c0-9.6,0.3-13.2,1.2-15.5c0.7-1.8,1.7-2.6,3.3-2.6c1.6,0,2.7,0.8,3.4,2.6
			C211.2,108.2,211.4,113.4,211.4,120.8z M223.3,120.9c0-8.9-0.7-16.5-3.8-20.7c-2.6-3.3-6.9-5-12.6-5c-5.6,0-9.9,1.6-12.6,5
			c-3.2,4.2-3.9,11.4-3.9,20.8c0,8.9,0.7,16.4,3.8,20.7c2.6,3.3,6.9,5,12.6,5c5.6,0,9.9-1.6,12.6-5
			C222.6,137.5,223.3,130.3,223.3,120.9z"/>
	</g>
	<g>
		<path fill-rule="evenodd" clip-rule="evenodd" fill="#0DAAAC" d="M15.8,170.1l0.8-3c0.2-1,0.4-2.2,0.6-3h0c0.2,0.9,0.4,2,0.7,2.9
			l0.8,3.1H15.8z M19.1,171.9l1,4h3.2l-4-13.9h-3.9l-4,13.9h3.1l0.9-4H19.1z"/>
		<polygon fill-rule="evenodd" clip-rule="evenodd" fill="#0DAAAC" points="27.4,175.9 30.3,175.9 30.3,169.9 35.1,169.9 
			35.1,168.1 30.3,168.1 30.3,164.1 35.5,164.1 35.5,162.2 27.4,162.2 		"/>
		<polygon fill-rule="evenodd" clip-rule="evenodd" fill="#0DAAAC" points="40.4,175.9 43.3,175.9 43.3,169.9 48.1,169.9 
			48.1,168.1 43.3,168.1 43.3,164.1 48.5,164.1 48.5,162.2 40.4,162.2 		"/>
		<path fill-rule="evenodd" clip-rule="evenodd" fill="#0DAAAC" d="M59.8,164.1c2.3,0,3.6,2.3,3.6,4.9c0,2.9-1.3,5-3.5,5
			c-2.2,0-3.6-2-3.6-4.9C56.3,166.2,57.6,164.1,59.8,164.1z M59.9,162.2c-4.2,0-6.5,2.5-6.5,6.9c0,4.2,2.1,6.7,6.3,6.7
			c4.2,0,6.6-2.2,6.6-7C66.3,164.8,64.3,162.2,59.9,162.2z"/>
		<path fill-rule="evenodd" clip-rule="evenodd" fill="#0DAAAC" d="M72.3,164.2c0.2-0.1,0.7-0.1,1.6-0.1c1.6,0,2.6,0.8,2.6,2.5
			c0,1.6-1,2.5-2.8,2.5h-1.4V164.2z M69.4,175.9h2.9v-5h1.1c1.4,0,2.1,0.4,2.5,2c0.5,1.6,0.8,2.6,1,3h3c-0.3-0.5-0.7-2.1-1.1-3.6
			c-0.3-1.2-0.8-2-1.7-2.3V170c1.1-0.4,2.3-1.6,2.3-3.8c0-1.6-0.4-2.6-1.2-3.1c-0.9-0.6-2.4-0.9-4.6-0.9c-1.7,0-3.1,0.1-4.1,0.2
			V175.9z"/>
		<path fill-rule="evenodd" clip-rule="evenodd" fill="#0DAAAC" d="M86.3,164.2c0.3-0.1,0.8-0.1,1.5-0.1c2.9,0,4.6,1.6,4.6,4.7
			c0,3.5-2,5.2-5,5.2c-0.4,0-0.9,0-1.2-0.1V164.2z M83.4,175.7c0.7,0.1,1.8,0.2,3.3,0.2c2.9,0,5.2-0.4,6.6-1.4c1.2-1,2-3,2-5.8
			c0-2.6-0.8-4.4-2-5.3c-1.2-0.8-3-1.2-5.8-1.2c-1.6,0-3,0.1-4,0.2V175.7z"/>
		<path fill-rule="evenodd" clip-rule="evenodd" fill="#0DAAAC" d="M102.8,170.1l0.8-3c0.2-1,0.4-2.2,0.6-3h0c0.2,0.9,0.4,2,0.7,2.9
			l0.8,3.1H102.8z M106.1,171.9l1,4h3.2l-4-13.9h-3.9l-4,13.9h3l0.9-4H106.1z"/>
		<path fill-rule="evenodd" clip-rule="evenodd" fill="#0DAAAC" d="M117.3,169.9h1.2c1.6,0,2.9,0.6,2.9,2c0,1.5-1.3,2-2.8,2
			c-0.6,0-1,0-1.3,0V169.9z M117.3,164.2c0.3-0.1,0.8-0.1,1.6-0.1c1.6,0,2.6,0.7,2.6,1.9c0,1.2-1,2.1-2.9,2.1h-1.2V164.2z
			 M114.4,175.7c0.7,0.1,1.7,0.2,3.2,0.2c2.9,0,4.6-0.4,5.4-1c0.8-0.6,1.3-1.5,1.3-2.8c0-1.8-1-2.9-2.4-3.2v0
			c1.8-0.5,2.4-1.8,2.4-3.3c0-1.5-0.6-2.3-1.5-2.7c-0.9-0.5-2.2-0.6-4.4-0.6c-1.7,0-3.2,0.1-4,0.2V175.7z"/>
		<polygon fill-rule="evenodd" clip-rule="evenodd" fill="#0DAAAC" points="128.4,175.8 136.6,175.8 136.6,173.9 131.3,173.9 
			131.3,162.1 128.4,162.1 		"/>
		<polygon fill-rule="evenodd" clip-rule="evenodd" fill="#0DAAAC" points="148.2,168.1 143.3,168.1 143.3,164.1 148.5,164.1 
			148.5,162.2 140.4,162.2 140.4,175.8 148.8,175.8 148.8,173.9 143.3,173.9 143.3,169.9 148.2,169.9 		"/>
		<polygon fill-rule="evenodd" clip-rule="evenodd" fill="#0DAAAC" points="159.4,162.1 159.4,175.9 162.3,175.9 162.3,169.9 
			167.4,169.9 167.4,175.9 170.3,175.9 170.3,162.1 167.4,162.1 167.4,168.1 162.3,168.1 162.3,162.1 		"/>
		<path fill-rule="evenodd" clip-rule="evenodd" fill="#0DAAAC" d="M181.8,164.1c2.3,0,3.6,2.3,3.6,4.9c0,2.9-1.3,5-3.5,5
			c-2.2,0-3.6-2-3.6-4.9C178.3,166.2,179.6,164.1,181.8,164.1z M181.9,162.2c-4.2,0-6.5,2.5-6.5,6.9c0,4.2,2.1,6.7,6.3,6.7
			c4.2,0,6.6-2.2,6.6-7C188.3,164.8,186.3,162.2,181.9,162.2z"/>
		<path fill-rule="evenodd" clip-rule="evenodd" fill="#0DAAAC" d="M203.3,175.9h3l-0.8-13.8h-4l-1.4,3.8c-0.4,1.7-0.9,3.6-1.3,5.4
			h-0.1c-0.3-1.8-0.7-3.6-1.1-5.4l-1.3-3.8h-4.1l-0.9,13.8h2.8l0.2-5.7c0.1-1.9,0.2-4.2,0.2-6.2h0c0.3,1.9,0.8,4.1,1.2,5.8l1.4,5.8
			h2.4l1.6-5.8c0.5-1.8,1.1-3.9,1.5-5.8h0.1c0,2.2,0.1,4.3,0.1,6.1L203.3,175.9z"/>
		<polygon fill-rule="evenodd" clip-rule="evenodd" fill="#0DAAAC" points="218.2,168.1 213.3,168.1 213.3,164.1 218.5,164.1 
			218.5,162.2 210.4,162.2 210.4,175.8 218.8,175.8 218.8,173.9 213.3,173.9 213.3,169.9 218.2,169.9 		"/>
		<path fill-rule="evenodd" clip-rule="evenodd" fill="#0DAAAC" d="M223.2,175.2c0.7,0.3,2.1,0.6,3.7,0.6c3.8,0,5.4-1.4,5.4-3.7
			c0-2.1-1-3.5-3.3-4.5c-1.9-0.7-2.7-1.1-2.7-2.1c0-0.8,0.7-1.4,2.1-1.4c1.4,0,2.3,0.4,2.8,0.7l0.6-2.1c-0.7-0.3-1.8-0.5-3.3-0.5
			c-3.3,0-5.1,1.3-5.1,3.6c0,2.2,1.4,3.6,3.6,4.4c1.8,0.6,2.4,1.2,2.4,2.1c0,1-0.8,1.6-2.3,1.6c-1.3,0-2.5-0.5-3.3-0.9L223.2,175.2z
			"/>
	</g>
	<g>
		<polygon fill-rule="evenodd" clip-rule="evenodd" fill="#0DAAAC" points="88.3,20 154.3,86 22.3,86 		"/>
		<polygon fill-rule="evenodd" clip-rule="evenodd" fill="#0A8C9E" points="113.3,36 221.3,36 221.3,86 163.3,86 		"/>
		<rect x="187.3" y="20" fill-rule="evenodd" clip-rule="evenodd" fill="#293481" width="22" height="32"/>
		<g>
			<rect x="72.3" y="55" fill-rule="evenodd" clip-rule="evenodd" fill="#253D8D" width="14" height="10"/>
			<rect x="88.3" y="55" fill-rule="evenodd" clip-rule="evenodd" fill="#253D8D" width="14" height="10"/>
			<rect x="72.3" y="67" fill-rule="evenodd" clip-rule="evenodd" fill="#253D8D" width="14" height="10"/>
			<rect x="88.3" y="67" fill-rule="evenodd" clip-rule="evenodd" fill="#253D8D" width="14" height="10"/>
		</g>
	</g>
	<rect x="190.3" y="21" fill-rule="evenodd" clip-rule="evenodd" fill="#3DC6EC" width="5" height="4"/>
	<rect x="197.3" y="21" fill-rule="evenodd" clip-rule="evenodd" fill="#3DC6EC" width="9" height="4"/>
	<rect x="201.3" y="27" fill-rule="evenodd" clip-rule="evenodd" fill="#3DC6EC" width="5" height="4"/>
	<rect x="190.3" y="27" fill-rule="evenodd" clip-rule="evenodd" fill="#3DC6EC" width="9" height="4"/>
	<rect x="190.3" y="33" fill-rule="evenodd" clip-rule="evenodd" fill="#3DC6EC" width="5" height="4"/>
	<rect x="197.3" y="33" fill-rule="evenodd" clip-rule="evenodd" fill="#3DC6EC" width="9" height="4"/>
	<rect x="201.3" y="39" fill-rule="evenodd" clip-rule="evenodd" fill="#3DC6EC" width="5" height="4"/>
	<rect x="190.3" y="39" fill-rule="evenodd" clip-rule="evenodd" fill="#3DC6EC" width="9" height="4"/>
	<rect x="190.3" y="45" fill-rule="evenodd" clip-rule="evenodd" fill="#3DC6EC" width="5" height="4"/>
	<rect x="197.3" y="45" fill-rule="evenodd" clip-rule="evenodd" fill="#3DC6EC" width="9" height="4"/>
	<path fill-rule="evenodd" clip-rule="evenodd" fill="#FFFFFF" d="M74.3,57h24c0,0-8.8,1-14.8,5.5S74.3,71,74.3,71V57z"/>
	<rect x="86.3" y="58" fill-rule="evenodd" clip-rule="evenodd" fill="#0DAAAC" width="2" height="22"/>
	<rect x="72.3" y="65" fill-rule="evenodd" clip-rule="evenodd" fill="#0DAAAC" width="30" height="2"/>
</g>
</svg>
