<?xml version="1.0" encoding="utf-8"?>
<!-- Generator: Adobe Illustrator 17.1.0, SVG Export Plug-In . SVG Version: 6.00 Build 0)  -->
<!DOCTYPE svg PUBLIC "-//W3C//DTD SVG 1.1//EN" "http://www.w3.org/Graphics/SVG/1.1/DTD/svg11.dtd">
<svg version="1.1" id="Layer_1" xmlns="http://www.w3.org/2000/svg" xmlns:xlink="http://www.w3.org/1999/xlink" x="0px" y="0px"
	 width="183.5px" height="151px" viewBox="0 0 183.5 151" enable-background="new 0 0 183.5 151" xml:space="preserve">
<g>
	<path fill-rule="evenodd" clip-rule="evenodd" fill="#097F9E" d="M2,21h166c1.1,0,2,0.9,2,2v126c0,1.1-0.9,2-2,2H2
		c-1.1,0-2-0.9-2-2V23C0,21.9,0.9,21,2,21z"/>
	<path fill-rule="evenodd" clip-rule="evenodd" fill="#097F9E" d="M8,15h166c1.1,0,2,0.9,2,2v126c0,1.1-0.9,2-2,2H8
		c-1.1,0-2-0.9-2-2V17C6,15.9,6.9,15,8,15z"/>
	
		<path fill-rule="evenodd" clip-rule="evenodd" fill="#293682" stroke="#03969F" stroke-width="3" stroke-linecap="round" stroke-linejoin="round" stroke-miterlimit="10" d="
		M14,9h166c1.1,0,2,0.9,2,2v126c0,1.1-0.9,2-2,2H14c-1.1,0-2-0.9-2-2V11C12,9.9,12.9,9,14,9z"/>
	<path fill-rule="evenodd" clip-rule="evenodd" fill="#00959F" d="M14,9h166c1.1,0,2,0.9,2,2v38H12V11C12,9.9,12.9,9,14,9z"/>
	<path fill-rule="evenodd" clip-rule="evenodd" fill="#00959F" d="M14,9h166c1.1,0,2,0.9,2,2v40H12V11C12,9.9,12.9,9,14,9z"/>
	<path fill-rule="evenodd" clip-rule="evenodd" fill="#FFFFFF" d="M66.9,34.3c0.7,0.3,2.1,0.6,3.4,0.6c3,0,4.6-1.4,4.6-3.6
		c0-2-1-3.2-3.1-4.1c-1.3-0.7-1.9-1.1-1.9-1.9c0-0.7,0.5-1.3,1.5-1.3c1.1,0,1.9,0.4,2.4,0.6l0.6-2c-0.7-0.3-1.7-0.5-3-0.5
		c-2.6,0-4.3,1.3-4.3,3.5c0,2,1.3,3.3,3.2,4.1c1.2,0.6,1.7,1.1,1.7,1.9c0,0.9-0.6,1.5-1.7,1.5c-1.1,0-2.2-0.4-2.9-0.9L66.9,34.3z"/>
	<rect x="78.9" y="22.1" fill-rule="evenodd" clip-rule="evenodd" fill="#FFFFFF" width="2.8" height="12.9"/>
	<path fill-rule="evenodd" clip-rule="evenodd" fill="#FFFFFF" d="M88.5,34.9v-3.9c0-2.1,0-3.9-0.1-5.6l0.1,0
		c0.5,1.5,1.2,3.2,1.8,4.5l2.2,5h3.1V22.1h-2.7v3.8c0,1.9,0.1,3.7,0.3,5.4h-0.1c-0.5-1.5-1.1-3.1-1.7-4.4l-2.1-4.7h-3.3v12.9H88.5z"
		/>
	<path fill-rule="evenodd" clip-rule="evenodd" fill="#FFFFFF" d="M108.4,32.6c-0.5,0.2-1.5,0.5-2.3,0.5c-2.5,0-3.9-1.7-3.9-4.5
		c0-3.1,1.7-4.6,3.9-4.6c1,0,1.8,0.2,2.3,0.5l0.6-1.9c-0.5-0.2-1.6-0.5-3-0.5c-3.7,0-6.5,1.9-6.5,6.6c0,3.9,2.1,6.2,6.2,6.2
		c1.5,0,2.6-0.2,3.1-0.4L108.4,32.6z"/>
	<polygon fill-rule="evenodd" clip-rule="evenodd" fill="#FFFFFF" points="119.5,28.1 115.1,28.1 115.1,24 119.8,24 119.8,22.1 
		112.3,22.1 112.3,34.9 120.1,34.9 120.1,33 115.1,33 115.1,29.9 119.5,29.9 	"/>
	<path fill-rule="evenodd" clip-rule="evenodd" fill="#272D6F" d="M33,27c0-3.9,3.1-7,7-7s7,3.1,7,7s-3.1,7-7,7S33,30.9,33,27z"/>
	<path fill-rule="evenodd" clip-rule="evenodd" fill="#3DC6EC" d="M40,31c2.8,0,5-2.2,5-5V5c0-2.8-2.2-5-5-5s-5,2.2-5,5V26
		C35,28.8,37.2,31,40,31z"/>
	<path fill-rule="evenodd" clip-rule="evenodd" fill="#FFFFFF" d="M41.4,1.2C41.1,1.1,40.7,1,40.3,1c-2.1,0-3.9,1.8-3.9,4v20.8
		c0,1.3,0.6,2.5,1.6,3.2V5.8C38,3.6,39.5,1.7,41.4,1.2z"/>
	<path fill-rule="evenodd" clip-rule="evenodd" fill="#272D6F" d="M146,27c0-3.9,3.1-7,7-7s7,3.1,7,7s-3.1,7-7,7S146,30.9,146,27z"
		/>
	<path fill-rule="evenodd" clip-rule="evenodd" fill="#3DC6EC" d="M153,31c2.8,0,5-2.2,5-5V5c0-2.8-2.2-5-5-5s-5,2.2-5,5V26
		C148,28.8,150.2,31,153,31z"/>
	<path fill-rule="evenodd" clip-rule="evenodd" fill="#FFFFFF" d="M154.4,1.2c-0.4-0.1-0.7-0.2-1.1-0.2c-2.1,0-3.9,1.8-3.9,4v20.8
		c0,1.3,0.6,2.5,1.6,3.2V5.8C151,3.6,152.5,1.7,154.4,1.2z"/>
	
		<rect x="24" y="62" fill-rule="evenodd" clip-rule="evenodd" fill="none" stroke="#293179" stroke-linecap="round" stroke-linejoin="round" stroke-miterlimit="10" width="146" height="66"/>
	<rect x="43" y="62" fill-rule="evenodd" clip-rule="evenodd" fill="#292B77" width="1" height="66"/>
	<rect x="64" y="62" fill-rule="evenodd" clip-rule="evenodd" fill="#292B77" width="1" height="66"/>
	<rect x="23" y="94" fill-rule="evenodd" clip-rule="evenodd" fill="#292B77" width="147" height="1"/>
	<rect x="23" y="112" fill-rule="evenodd" clip-rule="evenodd" fill="#292B77" width="147" height="1"/>
	<rect x="23" y="76" fill-rule="evenodd" clip-rule="evenodd" fill="#292B77" width="147" height="1"/>
	<rect x="85" y="62" fill-rule="evenodd" clip-rule="evenodd" fill="#292B77" width="1" height="66"/>
	<rect x="106" y="62" fill-rule="evenodd" clip-rule="evenodd" fill="#292B77" width="1" height="66"/>
	<rect x="127" y="62" fill-rule="evenodd" clip-rule="evenodd" fill="#292B77" width="1" height="66"/>
	<rect x="148" y="62" fill-rule="evenodd" clip-rule="evenodd" fill="#292B77" width="1" height="66"/>
	<polygon fill-rule="evenodd" clip-rule="evenodd" fill="#F7BE44" points="50.9,117.9 50.9,68.3 43.4,68.3 32.1,71.7 32.1,80.7 
		32.6,80.7 40.1,78.2 40.1,117.9 	"/>
	<path fill-rule="evenodd" clip-rule="evenodd" fill="#F7BE44" d="M74,92.1c-3.7,0-5.1-2.8-5.1-8.5c0-5.6,1.3-8.4,5-8.4
		c3.7,0,5.1,2.8,5.1,8.5C79.1,89.3,77.8,92.1,74,92.1z M58.1,84.6c0,9.9,4,15.4,11.4,15.4c4.1,0,8.1-1.2,9.7-4.7
		c0,9.8-2.6,13.8-10.4,13.8c-3.6,0-7.5-1.2-7.5-1.2h-0.4v9.1c0,0,3.5,1,8.3,1c15.7,0,20.8-8.6,20.8-27.7c0-8.5-0.9-14.7-3.4-18.1
		c-2.7-3.5-6.9-4.8-12.3-4.8C62.8,67.2,58.1,73.6,58.1,84.6z"/>
	<path fill-rule="evenodd" clip-rule="evenodd" fill="#F7BE44" d="M112,92.1c-3.7,0-5.1-2.8-5.1-8.5c0-5.6,1.3-8.4,5-8.4
		c3.7,0,5.1,2.8,5.1,8.5C117.1,89.3,115.8,92.1,112,92.1z M96.1,84.6c0,9.9,4,15.4,11.4,15.4c4.1,0,8.1-1.2,9.7-4.7
		c0,9.8-2.6,13.8-10.4,13.8c-3.6,0-7.5-1.2-7.5-1.2h-0.4v9.1c0,0,3.5,1,8.3,1c15.7,0,20.8-8.6,20.8-27.7c0-8.5-0.9-14.7-3.4-18.1
		c-2.7-3.5-6.9-4.8-12.3-4.8C100.8,67.2,96.1,73.6,96.1,84.6z"/>
	<path fill-rule="evenodd" clip-rule="evenodd" fill="#F7BE44" d="M142.3,100.1l7.7-18.4v18.4H142.3z M164.8,108.9v-8.9h-4.9v-32
		h-12.9l-14,32.3v8.6h17v9h9.9v-9H164.8z"/>
</g>
</svg>
