<?xml version="1.0" encoding="utf-8"?>
<!-- Generator: Adobe Illustrator 17.1.0, SVG Export Plug-In . SVG Version: 6.00 Build 0)  -->
<!DOCTYPE svg PUBLIC "-//W3C//DTD SVG 1.1//EN" "http://www.w3.org/Graphics/SVG/1.1/DTD/svg11.dtd">
<svg version="1.1" id="Layer_1" xmlns="http://www.w3.org/2000/svg" xmlns:xlink="http://www.w3.org/1999/xlink" x="0px" y="0px"
	 width="319.8px" height="199px" viewBox="0 0 319.8 199" enable-background="new 0 0 319.8 199" xml:space="preserve">
<g>
	<g>
		<polygon fill-rule="evenodd" clip-rule="evenodd" fill="#FFFFFF" points="89,11 95.1,11 95.1,9.2 90.8,9.2 90.8,0.1 89,0.1 		"/>
		<path fill-rule="evenodd" clip-rule="evenodd" fill="#FFFFFF" d="M103.5,1.8c2,0,3.1,1.7,3.1,3.7c0,2.1-1.1,3.7-3,3.7
			c-1.9,0-3.1-1.5-3.1-3.7C100.4,3.4,101.6,1.8,103.5,1.8z M103.6,0c-3.5,0-5,2.3-5,5.6c0,3.1,1.4,5.4,4.8,5.4c3.5,0,5.1-2,5.1-5.6
			C108.4,2.4,107.1,0,103.6,0z"/>
		<path fill-rule="evenodd" clip-rule="evenodd" fill="#FFFFFF" d="M120,5.1h-3.7v1.8h1.9v2.2c-0.2,0.1-0.7,0.2-1.3,0.2
			c-2.2,0-3.8-1.3-3.8-3.4c0-2.6,1.7-4,4-4c1.3,0,1.9,0.3,2.3,0.6l0.4-1.9C119.3,0.3,118.5,0,117,0c-3.9,0-5.9,1.8-5.9,6
			c0,1.5,0.4,2.8,1.1,3.7c0.7,0.9,2.3,1.3,4.5,1.3c1.5,0,2.7-0.3,3.3-0.6V5.1z"/>
		<path fill-rule="evenodd" clip-rule="evenodd" fill="#FFFFFF" d="M132.6,5.1h-3.7v1.8h1.9v2.2c-0.2,0.1-0.7,0.2-1.3,0.2
			c-2.2,0-3.8-1.3-3.8-3.4c0-2.6,1.7-4,4-4c1.3,0,1.9,0.3,2.3,0.6l0.4-1.9c-0.4-0.2-1.3-0.5-2.7-0.5c-3.9,0-5.9,1.8-5.9,6
			c0,1.5,0.4,2.8,1.1,3.7c0.7,0.9,2.3,1.3,4.5,1.3c1.5,0,2.7-0.3,3.3-0.6V5.1z"/>
		<polygon fill-rule="evenodd" clip-rule="evenodd" fill="#FFFFFF" points="142.2,4.1 138.2,4.1 138.2,1.8 142.4,1.8 142.4,0 
			136.4,0 136.4,11 142.7,11 142.7,9.2 138.2,9.2 138.2,5.9 142.2,5.9 		"/>
		<path fill-rule="evenodd" clip-rule="evenodd" fill="#FFFFFF" d="M148.8,2c0.2-0.1,0.6-0.1,1.3-0.1c2.4,0,3.9,1.2,3.9,3.5
			c0,2.6-1.6,3.9-4.2,3.9c-0.3,0-0.7,0-1-0.1V2z M147,10.9c0.5,0.1,1.1,0.2,2.2,0.2c2.4,0,4.4-0.4,5.3-1.3c0.8-0.9,1.3-2.3,1.3-4.4
			c0-2-0.5-3.3-1.3-4.2c-0.9-0.8-2.4-1.1-4.7-1.1c-1.3,0-2.1,0.1-2.8,0.2V10.9z"/>
		<path fill-rule="evenodd" clip-rule="evenodd" fill="#FFFFFF" d="M169.1,1.8c2,0,3.1,1.7,3.1,3.7c0,2.1-1.1,3.7-3,3.7
			c-1.9,0-3.1-1.5-3.1-3.7C166,3.4,167.2,1.8,169.1,1.8z M169.2,0c-3.5,0-5,2.3-5,5.6c0,3.1,1.4,5.4,4.8,5.4c3.5,0,5.1-2,5.1-5.6
			C174,2.4,172.7,0,169.2,0z"/>
		<path fill-rule="evenodd" clip-rule="evenodd" fill="#FFFFFF" d="M182,11l3.6-10.9h-2.6l-1.4,4.7c-0.4,1.7-0.7,3.1-1,4.5h0
			c-0.3-1.5-0.6-2.8-1-4.2l-1.3-5h-2.7l3.4,10.9L182,11z"/>
		<polygon fill-rule="evenodd" clip-rule="evenodd" fill="#FFFFFF" points="194.2,4.1 190.2,4.1 190.2,1.8 194.4,1.8 194.4,0 
			188.4,0 188.4,11 194.7,11 194.7,9.2 190.2,9.2 190.2,5.9 194.2,5.9 		"/>
		<path fill-rule="evenodd" clip-rule="evenodd" fill="#FFFFFF" d="M200.8,1.9c0.2,0,0.7-0.1,1.6-0.1c1.6,0,2.6,0.6,2.6,1.6
			c0,1-1,1.7-2.8,1.7h-1.4V1.9z M199,11h1.9V6.9h1.1c1.4,0,2.1,0.4,2.5,1.7c0.5,1.3,0.7,2.1,0.8,2.4h2c-0.2-0.4-0.5-1.8-0.8-2.9
			c-0.2-0.9-0.5-1.7-1.1-2v0c0.7-0.3,1.5-1.3,1.5-2.8c0-1.1-0.3-1.9-0.8-2.4C205.5,0.3,204.3,0,202,0c-1.5,0-2.4,0.1-3.1,0.2V11z"/>
	</g>
	<g>
		<path fill-rule="evenodd" clip-rule="evenodd" fill="#FFFFFF" d="M56.2,189.8c2,0,3.1,1.7,3.1,3.7c0,2.1-1.1,3.7-3,3.7
			c-1.9,0-3.1-1.5-3.1-3.7C53.1,191.4,54.3,189.8,56.2,189.8z M56.3,188c-3.5,0-5,2.3-5,5.6c0,3.1,1.4,5.4,4.8,5.4
			c3.5,0,5.1-2,5.1-5.6C61.1,190.4,59.8,188,56.3,188z"/>
		<polygon fill-rule="evenodd" clip-rule="evenodd" fill="#FFFFFF" points="63.9,199 65.7,199 65.7,194.9 69.6,194.9 69.6,193.1 
			65.7,193.1 65.7,189.8 69.9,189.8 69.9,188 63.9,188 		"/>
		<path fill-rule="evenodd" clip-rule="evenodd" fill="#FFFFFF" d="M85.4,196.9c-0.5,0.2-1.3,0.4-2,0.4c-2.2,0-3.5-1.4-3.5-3.7
			c0-2.5,1.5-3.7,3.4-3.7c0.9,0,1.5,0.2,2,0.4l0.5-1.8c-0.4-0.2-1.4-0.4-2.7-0.4c-3.3,0-5.2,1.8-5.2,5.7c0,3.2,1.4,5.3,5,5.3
			c1.3,0,2.3-0.2,2.8-0.4L85.4,196.9z"/>
		<path fill-rule="evenodd" clip-rule="evenodd" fill="#FFFFFF" d="M93.6,189.8c2,0,3.1,1.7,3.1,3.7c0,2.1-1.1,3.7-3,3.7
			c-1.9,0-3.1-1.5-3.1-3.7C90.5,191.4,91.7,189.8,93.6,189.8z M93.7,188c-3.5,0-5,2.3-5,5.6c0,3.1,1.4,5.4,4.8,5.4
			c3.5,0,5.1-2,5.1-5.6C98.5,190.4,97.2,188,93.7,188z"/>
		<path fill-rule="evenodd" clip-rule="evenodd" fill="#FFFFFF" d="M110.8,199h2.4l-0.6-10.9h-3.2l-1.2,3.2c-0.3,1.3-0.7,2.8-1,4.1
			h-0.1c-0.2-1.3-0.6-2.8-0.9-4.1l-1.1-3.3h-3.2l-0.7,10.9h2.2l0.2-4.4c0.1-1.4,0.1-3.2,0.2-4.8h0c0.2,1.5,0.6,3.2,1,4.5l1.2,4.5
			h1.9l1.3-4.5c0.4-1.4,0.9-3,1.2-4.5h0c0,1.7,0.1,3.4,0.1,4.7L110.8,199z"/>
		<path fill-rule="evenodd" clip-rule="evenodd" fill="#FFFFFF" d="M126.4,199h2.4l-0.6-10.9H125l-1.1,3.2c-0.4,1.3-0.7,2.8-1,4.1
			h-0.1c-0.2-1.3-0.6-2.8-0.9-4.1l-1.1-3.3h-3.2l-0.7,10.9h2.2l0.2-4.4c0.1-1.4,0.1-3.2,0.2-4.8h0c0.2,1.5,0.6,3.2,1,4.5l1.2,4.5
			h1.9l1.3-4.5c0.4-1.4,0.9-3,1.2-4.5h0c0,1.7,0,3.4,0.1,4.7L126.4,199z"/>
		<path fill-rule="evenodd" clip-rule="evenodd" fill="#FFFFFF" d="M132.5,188.1v6.1c0,3.4,1.2,4.8,4.3,4.8c3.3,0,4.6-1.4,4.6-4.8
			v-6.1h-1.9v6.3c0,1.9-0.9,2.8-2.6,2.8c-1.6,0-2.5-1-2.5-2.8v-6.3H132.5z"/>
		<path fill-rule="evenodd" clip-rule="evenodd" fill="#FFFFFF" d="M146.9,199v-3.3c0-1.8,0-3.3-0.1-4.7l0,0
			c0.6,1.3,1.4,2.7,2.1,3.8l2.6,4.2h2.2v-10.9h-1.9v3.2c0,1.6,0,3.1,0.2,4.5h0c-0.5-1.2-1.2-2.6-2-3.7l-2.6-4h-2.6V199H146.9z"/>
		<rect x="157.7" y="188.1" fill-rule="evenodd" clip-rule="evenodd" fill="#FFFFFF" width="1.9" height="10.9"/>
		<polygon fill-rule="evenodd" clip-rule="evenodd" fill="#FFFFFF" points="166.3,199 168.1,199 168.1,189.8 171.1,189.8 171.1,188 
			163.4,188 163.4,189.8 166.3,189.8 		"/>
		<path fill-rule="evenodd" clip-rule="evenodd" fill="#FFFFFF" d="M179.7,199v-4.5l3.6-6.4h-2.7l-1,2.6c-0.2,0.8-0.4,1.4-0.6,2.1h0
			c-0.2-0.7-0.4-1.3-0.6-2.1l-1-2.6h-2.8l3.4,6.4v4.5H179.7z"/>
		<path fill-rule="evenodd" clip-rule="evenodd" fill="#FFFFFF" d="M190.9,198.4c0.5,0.3,1.4,0.6,2.6,0.6c3.3,0,4.4-1.4,4.4-3.2
			c0-1.6-0.7-2.6-2.3-3.4c-1.9-0.5-2.7-0.9-2.7-1.6c0-0.6,0.7-1.1,2.1-1.1c1.2,0,1.8,0.3,2.1,0.5l0.4-1.8c-0.5-0.3-1.1-0.5-2.5-0.5
			c-2.9,0-4.1,1.3-4.1,3.1c0,1.6,0.9,2.7,2.6,3.3c1.8,0.5,2.4,0.9,2.4,1.6c0,0.7-0.8,1.2-2.3,1.2c-1.1,0-1.9-0.3-2.4-0.7
			L190.9,198.4z"/>
		<polygon fill-rule="evenodd" clip-rule="evenodd" fill="#FFFFFF" points="207.5,192.1 203.5,192.1 203.5,189.8 207.7,189.8 
			207.7,188 201.7,188 201.7,199 208,199 208,197.2 203.5,197.2 203.5,193.9 207.5,193.9 		"/>
		<path fill-rule="evenodd" clip-rule="evenodd" fill="#FFFFFF" d="M214.1,189.9c0.2,0,0.7-0.1,1.6-0.1c1.6,0,2.6,0.6,2.6,1.6
			c0,1-1,1.7-2.8,1.7h-1.4V189.9z M212.3,199h1.9v-4.1h1.1c1.4,0,2.1,0.4,2.5,1.7c0.5,1.3,0.7,2.1,0.9,2.4h2
			c-0.2-0.4-0.5-1.8-0.8-2.9c-0.2-0.9-0.5-1.7-1.1-2v0c0.7-0.3,1.5-1.3,1.5-2.8c0-1.1-0.3-1.9-0.8-2.4c-0.6-0.6-1.8-0.9-4.1-0.9
			c-1.5,0-2.4,0.1-3.1,0.2V199z"/>
		<path fill-rule="evenodd" clip-rule="evenodd" fill="#FFFFFF" d="M228.1,199l3.6-10.9h-2.6l-1.4,4.6c-0.4,1.7-0.7,3.1-1,4.5h0
			c-0.3-1.5-0.6-2.8-1-4.2l-1.3-5h-2.7l3.4,10.9L228.1,199z"/>
		<rect x="234.5" y="188.1" fill-rule="evenodd" clip-rule="evenodd" fill="#FFFFFF" width="1.9" height="10.9"/>
		<path fill-rule="evenodd" clip-rule="evenodd" fill="#FFFFFF" d="M248.4,196.9c-0.5,0.2-1.3,0.4-2,0.4c-2.2,0-3.4-1.4-3.4-3.7
			c0-2.5,1.5-3.7,3.4-3.7c0.9,0,1.6,0.2,2.1,0.4l0.5-1.8c-0.4-0.2-1.4-0.4-2.6-0.4c-3.3,0-5.2,1.8-5.2,5.7c0,3.2,1.4,5.3,5,5.3
			c1.3,0,2.3-0.2,2.8-0.4L248.4,196.9z"/>
		<polygon fill-rule="evenodd" clip-rule="evenodd" fill="#FFFFFF" points="258.5,192.1 254.5,192.1 254.5,189.8 258.7,189.8 
			258.7,188 252.7,188 252.7,199 259,199 259,197.2 254.5,197.2 254.5,193.9 258.5,193.9 		"/>
	</g>
	<g>
		<path fill-rule="evenodd" clip-rule="evenodd" fill="#F7BE44" d="M9.2,80.1L17,61.7v18.4H9.2z M31.7,89v-8.9h-4.9v-32H14L0,80.3
			V89h17v9h9.9v-9H31.7z"/>
		<path fill-rule="evenodd" clip-rule="evenodd" fill="#F7BE44" d="M58,72.8c0,9.6-0.3,13.2-1.2,15.5c-0.7,1.8-1.7,2.5-3.3,2.5
			c-1.6,0-2.7-0.8-3.4-2.5c-1-2.5-1.2-7.7-1.2-15.1c0-9.6,0.3-13.2,1.2-15.5c0.7-1.8,1.7-2.5,3.3-2.5c1.6,0,2.7,0.8,3.4,2.5
			C57.8,60.2,58,65.4,58,72.8z M69.8,73c0-8.9-0.7-16.5-3.8-20.7c-2.6-3.3-6.9-5-12.6-5c-5.6,0-9.9,1.6-12.6,5
			C37.7,56.5,37,63.7,37,73.1c0,8.9,0.7,16.4,3.8,20.7c2.6,3.3,6.9,5,12.6,5c5.6,0,9.9-1.6,12.6-5C69.1,89.6,69.8,82.3,69.8,73z"/>
		<polygon fill-rule="evenodd" clip-rule="evenodd" fill="#F7BE44" points="91,48.1 91,98 100.8,98 100.8,60.4 109.2,96 118.6,96 
			127,60.4 127,98 137.8,98 137.8,48.1 122.6,48.1 114.7,80.6 106.4,48.1 		"/>
		<rect x="146" y="48.1" fill-rule="evenodd" clip-rule="evenodd" fill="#F7BE44" width="10.9" height="49.9"/>
		<polygon fill-rule="evenodd" clip-rule="evenodd" fill="#F7BE44" points="166,48.1 166,98.1 189.1,98.1 189.1,88.4 176.8,88.4 
			176.8,48.1 		"/>
		<polygon fill-rule="evenodd" clip-rule="evenodd" fill="#F7BE44" points="194,48.1 194,98.1 217.1,98.1 217.1,88.4 204.8,88.4 
			204.8,48.1 		"/>
		<rect x="222" y="48.1" fill-rule="evenodd" clip-rule="evenodd" fill="#F7BE44" width="10.9" height="49.9"/>
		<path fill-rule="evenodd" clip-rule="evenodd" fill="#F7BE44" d="M259.4,90c-2.4,0-4-1.2-4.9-3.1c-1.2-2.4-1.6-5.8-1.6-13.9
			s0.4-11.6,1.6-14c1-1.9,2.5-3.1,4.9-3.1c2.5,0,4,1.2,5,3.1c1.2,2.4,1.6,5.8,1.6,14s-0.4,11.6-1.6,13.9
			C263.4,88.9,261.9,90,259.4,90z M277.8,72.6c0-8.4-1-15-4.2-19.4c-3-4-7.9-6-14.1-6c-6.2,0-11,2-14.1,5.9
			c-3.2,4.2-4.4,10.5-4.4,20c0,8.5,1,15.4,4.2,19.8c3,4,7.8,6,14,6c6.1,0,11.2-2,14.2-5.9C276.6,88.8,277.8,82.1,277.8,72.6z"/>
		<polygon fill-rule="evenodd" clip-rule="evenodd" fill="#F7BE44" points="285,48.1 285,98 294.8,98 294.8,68.4 309.5,98 319.8,98 
			319.8,48.1 310,48.1 310,76.7 296.4,48.1 		"/>
	</g>
	<g>
		<polygon fill-rule="evenodd" clip-rule="evenodd" fill="#0DAAAC" points="84.1,134.1 84.1,153 87.9,153 87.9,145 95.1,145 
			95.1,153 98.9,153 98.9,134.1 95.1,134.1 95.1,142.1 87.9,142.1 87.9,134.1 		"/>
		<path fill-rule="evenodd" clip-rule="evenodd" fill="#0DAAAC" d="M176.3,134.1v10.6c0,5.9,2.5,8.2,7.3,8.2c4.9,0,7.6-2.3,7.6-8.1
			v-10.7h-3.9v11c0,3.4-1.3,4.9-3.6,4.9c-2.3,0-3.5-1.7-3.5-4.9v-11H176.3z"/>
		<path fill-rule="evenodd" clip-rule="evenodd" fill="#0DAAAC" d="M201.9,137.2c0.3-0.1,0.9-0.2,1.9-0.2c2,0,3.2,1,3.2,3
			c0,1.9-1.3,3.1-3.4,3.1h-1.7V137.2z M198.1,153h3.9v-7h1.3c1.8,0,2.6,0.6,3.1,2.8c0.6,2.2,1,3.7,1.3,4.2h4.1c-0.4-0.7-0.9-3-1.5-5
			c-0.4-1.6-1.1-2.8-2.3-3.3v-0.1c1.5-0.6,3.1-2.2,3.1-5c0-2-0.6-3.3-1.6-4.1c-1.2-1-3.1-1.4-5.9-1.4c-2.2,0-4.1,0.2-5.4,0.4V153z"
			/>
		<path fill-rule="evenodd" clip-rule="evenodd" fill="#0DAAAC" d="M217.6,152c1,0.5,2.9,0.9,4.9,0.9c5,0,7.2-2.2,7.2-5.3
			c0-2.8-1.4-4.6-4.4-5.9c-2.5-1-3.6-1.5-3.6-2.8c0-1,0.9-1.9,2.8-1.9c1.8,0,3,0.6,3.7,0.9l0.9-3c-1-0.4-2.4-0.8-4.4-0.8
			c-4.4,0-6.8,2-6.8,5.2c0,2.9,1.8,4.7,4.8,5.8c2.3,0.9,3.2,1.6,3.2,2.8c0,1.3-1.1,2.1-3.1,2.1c-1.8,0-3.4-0.6-4.4-1.2L217.6,152z"
			/>
	</g>
	<polygon fill-rule="evenodd" clip-rule="evenodd" fill="#09899F" points="115.9,114.7 123.5,110.3 127.5,117.3 119.9,121.7 	"/>
	<polygon fill-rule="evenodd" clip-rule="evenodd" fill="#3DC6EC" points="109.6,112.5 124.6,104.4 127.9,110 112.8,118 	"/>
	
		<circle fill-rule="evenodd" clip-rule="evenodd" fill="none" stroke="#0DAAAC" stroke-width="6" stroke-linecap="round" stroke-linejoin="round" stroke-miterlimit="10" cx="137.9" cy="144" r="30"/>
	<path fill-rule="evenodd" clip-rule="evenodd" fill="#3DC6EC" d="M126.9,125l5.1,21c0,0,0.5,3.5,4.1,4.1c1.5,0.3,4.3-0.6,5-1.4
		c1.8-2,2.1-3.9,1.9-5.4c0.8-2.3,3.8-14.5,3.8-14.5s-9.1,9.6-8.6,9.8C138.7,138.9,126.9,125,126.9,125z"/>
	<path fill-rule="evenodd" clip-rule="evenodd" fill="#FFFFFF" d="M130,131.7l4.1,14l2.8,2.4c0,0-0.2-5.4-0.6-5.6
		C135.9,142.2,130,131.7,130,131.7z"/>
	
		<rect x="112.6" y="111.7" transform="matrix(-0.5547 -0.8321 0.8321 -0.5547 83.3866 271.7071)" fill-rule="evenodd" clip-rule="evenodd" fill="#FFFFFF" width="3.6" height="3.6"/>
</g>
</svg>
