<?xml version="1.0" encoding="utf-8"?>
<!-- Generator: Adobe Illustrator 18.0.0, SVG Export Plug-In . SVG Version: 6.00 Build 0)  -->
<!DOCTYPE svg PUBLIC "-//W3C//DTD SVG 1.1//EN" "http://www.w3.org/Graphics/SVG/1.1/DTD/svg11.dtd">
<svg version="1.1" id="Layer_1" xmlns="http://www.w3.org/2000/svg" xmlns:xlink="http://www.w3.org/1999/xlink" x="0px" y="0px"
	 viewBox="27.4 17.7 246.5 157.7" enable-background="new 27.4 17.7 246.5 157.7" xml:space="preserve">
<g>
	<g>
		<path fill="#00959F" d="M121.8,117.4c-0.2-1.9-2.6-2.9-3.4-3.9c-2.7-2.3-6.6-2.2-8.3-0.9c1-0.8,0.7-0.9,1.2-1.9
			c-0.3-1.8-2.3,1.6-3,0.5c-0.7-1.1,3.5-1,1.3-3.3c-0.6-3.7-5.3-2.9-6.1-5.6c-1.3-0.2-2.6-2.5-1.2-3.2c0,0.1-0.1,0.2-0.1,0.1
			c-0.2,0.5-0.5,0.8-0.8,1.1c-0.3-0.1-1.1-1.2-0.7-0.9c-1.4-1-1.5,0.5-2,1.1c-2.7-1.1-3-3.2-4.7,0.8c-1-0.5,0.3-3.4,0-3.5
			c-0.9-0.3-5.1,4.1-4.8,3.4c0.3-0.6-3.7-0.4-4-0.7c-0.7-1.2,0.2-2.9-0.1-3.9c0.5-2.5-3.9-2.6-4-2.2c0.2-0.6,1.6-5.5,0.8-5.6
			c-3.6-0.7-2.5,5.1-6.3,2.2c-2.8-2.1-1.7-8,0.8-10c1-1.1,7.4,0.2,8.2-0.5c-0.2,0.2,1.3,4.6,2.1,4.7c1.6,0.2-1-6,0.6-6.8
			c2-1,4.4-4,2.9-5.8c0,0.4,1.9-2.3,2.1-2.8c0.2-1.2,2.5,0.4,3-0.4c0.3-0.6-1.1-1.7-0.5-2.4c0.5-0.8,1.8-0.9,2.5-1.6
			c0.6-0.3,0.2,1.8,0.8,1.8c1.2,0,4.9-1.7,4.4-3c0,0-3-0.5-2.3-1c-1.8,1.4-0.6-0.8-1-1.6c-0.7-1.1-3.7,0.6-4.3,0.9
			c0.2-2.5,4.7-2.6,4.7-2.5c-0.2,0.6-0.1,1.1,0.2,1.6c1,0,3-2.8,4.3-2.8c1.1,0-1.5,3.3-1.1,3.9c0.2,0.5,4,0.3,4.8,0.4
			c1.1-1.6-2.8-2.9-3-3c-0.2-0.2,1.1-2.5,1.1-2.5c0,0.1-2.6-3-2.5-2.8c-1.2-1-1.2-0.3-2.5-1.6c-0.4-1.2-0.8-1.6-1.6-2.8
			c-1.3-0.5-1,0.4-2.1,1.4c-2.2,1.5-1.6-1.8-1.6-1.9c-0.4-0.4-0.8-0.6-1.4-0.6h0.6c-1.1-0.3-4.4-2.5-5.5-1c-0.1,0-0.7,2.7-1,3
			c0.2-0.1,2.1,2.3,1.1,3.3c-0.8,0.7-1.6-0.2-1.8,0c-0.7,0.2,1.9,3.4-0.6,4c-0.4,0.2-0.3-2.2-0.3-2.4c-0.1,0.2-0.1,0.2-0.1,0.1
			c-0.2,0.2-0.3,0.6-0.5,0.8c-0.2,0-0.6-2.5-0.6-2.4c-1.1-1.9-6.9-0.7-7.9-2.8c-3-3.9,4-4.8,4-5.1s0.3-1.8,0.3-1.8
			c0-0.8,0.9,2.7,0.4,2.1c0.5,0.7,4.6-0.6,4.6-0.7c-0.4-0.5-4.2-2.5-4.4-2.3c1.6-1,5.3,1,3-2.3c-0.2-0.2,2.5-0.7,2.6-1.6
			c2.2,0.5,1.1,1.8,0.9,3c-0.2,0.7,4.5-1.1,3.6-0.2c-0.1,0.1-4.1,2.1-3.9,1.7c-2.9,1.5,4.4,2.4,4.5,2.4c0.1-0.1,5.6,2.2,5.7,1.2
			c0.3,0.2-0.7-2.5-0.3-1.9c-0.4-0.4-1.3-1.4-1.7-1.6c0.2-0.4,3.6,1.8,4.7-0.8c-0.4-0.1-0.7-0.2-1.1-0.2c-0.2-0.2-2.5-1-3.6-1.6
			c-1.2-2.6-1.1-1.1-3.9-2.9c-2.1-1.3-3.6-2.5-6.5-2.1c-0.5,0.1-4.9,1.1-4.1,2c-0.9-0.8,0.9-4-2.9-1.3c-2.5,1.6,2.6,3.2,3.6,3.1
			c-0.1,0.2-1.9,2.5-1.9,2.3c0-2.7-1.7-0.5-2.2-1.6c-0.3-0.9-1.1-1.6-1.9-2.5C76.4,37.7,77.2,42,76,43c-0.8,0.6-0.8-2.3-0.7-2.4
			c-0.1,0.2-1.6-0.1-1.9,0.2c-0.5,0.2,1.6,1.7,0.4,2c-0.5,0.2-5.1,0.4-5.3-0.2c0.2-0.3,0.3-0.5,0.2-0.5c-0.1,0.1,4.8-1.1,3-2.1
			c-3.1-1.7-1.4-0.7-2.2-2.8c-0.1-0.2-2.2-0.2-2.4-0.3c2.5,0.2,1-8.5-2.1-5.3c-1.4,1.5-8.5-4-9.6,0.8c0.1-0.4,9.9,4.3,11.4,4.4
			c-1,0,0,2.1,0,2.5c-0.5-2.4-13.8-5.7-14-0.7c-0.2,2.3,4.6,0.1,5-0.2c-0.1,0.1,2.5,2.9,2.1,3.3c-0.5,0.5-2.4-0.7-2.4-0.7l0,0
			c-1.4-1.1-4.1-1.1-5.3,0.2c-0.9-2.7-3.9,1.1-5.7,0c-0.2-0.1-0.8-1.2-1.8-1c-2.2,0.5-2.6-0.2-4.7-0.4c-1.9-0.2-3,0.2-4.6-0.7
			c-1.1,2.1-3.9,1.3-5.7,2.4c-2.5,2.7,2.7,1.1,2.9,3.6c-0.1-0.8-4.4-0.2-5.2,0.3c1.5,3.4,3.4,0.6,5.3,1.2c0.3,0.1-4.3,2-3.9,3.1
			c1.3,3.6,1.9,0.6,3,1c-0.2-0.1,0.8,2.1,0.8,1.9c0.2-0.1,2.3-0.5,2.5,0c0.8,1.6-5,2.6-5,3.9c0,0.3,12.6-2.6,7.9-3.5
			c0.2-0.3,1.9-2.6,2-2.5c-0.2,0.5-0.3,1.1-0.1,1.6c3,0.2,2.1-2.9,4.8-1.2c1,0.6,0.1,0.5,1.2,0.8c2,0.6,0.4,1.6,1.6,2.5
			c0.7,0.5,1,4.7,1.3,4.4c0.6-0.3,0.2-3,0.3-3c1.4,0.3,1.2,3.9,1.6,4.9c0.7,2.1,3.2,1.5,3.2,4.6c0,3.5,0.9,5.7,1.5,9
			c0.2,1.1,0.9,2.5,2.3,2.2c2-0.2,1.6,4.4,2.9,5c-0.3-0.2,3.7,7.6,4.9,6.2c0.7-0.8-3.7-6.3-4.3-7.5c0.4,0.1,0.6-0.3,0.2-1.1
			c-0.7,0.4,7.3,8.8,6.5,10.3c-0.7,1.3,6.5,7.2,7.4,5.9c0.5,0.2,0.8-1.4,2.1,0.2c1.2,1.6,2.6,1.2,4.1,2.2c-0.2-0.2,6.4,8.9,5.9,4.4
			c2.9-0.4,1.8,6,0.1,7.1c-3,2,0,7.7,0.7,9.7c1.4,3.8,1.6,6.6,5.3,8.5c2.1,1.1,1.4,4.2,1.2,6c-0.1,0.6-0.7,6.3-0.8,6.2
			c1.2,1.6-1.9,6.3-1.9,8.3v3.2c0,1.4-1.3,4.3-1.1,5.2c0.3,2.1,0.7,10.8,3.8,7c0.7-0.2-0.3,2-0.7,2c2.1,0,3,0.6,5.2-0.3
			c-8-0.7,1.6-7.3-2.2-8.4c0.4-1.3,2.1-2.8,2.9-3.9c0.1-0.3-1.8-0.4-1.1-1.6c2.6-0.2,1.6-0.7,5-1.7c2.9-1.5-0.3-4.4,0.4-6.7
			c0.7,6.7,5.3-0.8,6.1-2.9c1.1-2.6,1.1-5,4.5-6.2c2.5-0.8,4.6-5.1,3.9-7.8C119.5,123.3,121.6,120.2,121.8,117.4
			C121.8,117.1,121.8,117.4,121.8,117.4z M82.3,67.3c-0.2-0.5,0-2.3,0-2.8c0.7-1.5,6.3-1,5.7,1c-0.7,0.1-0.5-0.7-0.8-1
			c-0.4,3.9-1,1.6-1.3,1.6c-0.3-5.3-3.5,2.7-3.4,2.8C82.3,68.8,82.2,67.8,82.3,67.3C82.3,67.3,82.2,67.8,82.3,67.3z M86.1,69
			c0.4-0.4,3.5-4.9,4.7-3C90.9,66.1,86.4,69.6,86.1,69C86.1,69,86.2,69.3,86.1,69z M53.7,61c-0.2-0.2-0.6-1-0.6-1.3
			c0.8,0.3,3.1,2.1,2.3,3.2C55.9,62.8,53.8,61,53.7,61C53.6,60.9,53.8,61.1,53.7,61C53.8,61.1,53.8,61,53.7,61z M84,62.7
			c-0.6,0.2-4.4-0.7-4.4-0.3C79.5,59.5,85.8,60.8,84,62.7C83.8,62.8,84.1,62.7,84,62.7C84.1,62.7,84.1,62.7,84,62.7z M104.2,142.6
			L104.2,142.6L104.2,142.6z"/>
		<path fill="#00959F" d="M74,33.2c1.6,1,13.4,5.7,12.6,2.3c-2.1-1-3.9-3.3-5.7-4.6c-0.9-0.7-3.5-2.6-4.7-1.4
			c1.4-2.3-2.5,2.9-2.5,2.5c0,0.2-0.1,0.2-0.1,0.1C73.6,32.4,73.7,32.8,74,33.2c0.1,0.1,0.2,0.1,0.2,0.1S73.6,32.9,74,33.2z"/>
		<path fill="#00959F" d="M132.8,48.7c1.8-2.6-3.6-1.7-5.4-2.1c-2.1-0.4-0.9,2.3,0.7,2.5C129.9,49.3,130.5,49.7,132.8,48.7z"/>
		<path fill="#00959F" d="M91.2,90.4c1-0.5-2.7-2.1-2.5-2c-0.6-1.1-2.7-1.5-4.3-0.5C84.4,87.5,91,90.7,91.2,90.4
			C91.3,90.4,91.1,90.5,91.2,90.4C91.1,90.5,91.1,90.5,91.2,90.4z"/>
		<path fill="#00959F" d="M147.7,70.9c0.4-0.2,0.2-1-0.2-0.7C146.7,70.6,147.3,71.4,147.7,70.9C147.8,70.9,147.6,71,147.7,70.9
			C147.6,71,147.6,71,147.7,70.9z"/>
		<path fill="#00959F" d="M138.4,58.1c-1.2,0.8,5.3,1.3,3-2.1C140.5,52.1,138.1,58.3,138.4,58.1C138.3,58.1,138.3,58.1,138.4,58.1
			C138.3,58.1,138.8,57.9,138.4,58.1z"/>
		<path fill="#00959F" d="M142.1,55.8c0.7,0.1,1.2,0.4,1.5,1c-0.7,0.5-1.9,1.6-2.1,2.5c-0.1,0.5,1.5,0.3,1.6,0.3
			c-0.2,0.2-0.2,0.5-0.1,0.7c1.7,0.9,4.5-0.7,4.1-2.6c-0.6-0.8-2.1-2.8-2.5-3.2c-0.7-0.7,2.7-2.1-0.7-2.4h0.9
			C142.8,51.7,137.9,53.6,142.1,55.8c0.2,0.1,0.2,0.1,0.2,0.1S141.6,55.5,142.1,55.8z"/>
		<path fill="#00959F" d="M222.6,32.6c0.2-0.2,0.1,0.2,0,0.2C222.6,32.8,222.6,32.8,222.6,32.6C222.6,32.6,222.6,32.7,222.6,32.6z"
			/>
		<path fill="#00959F" d="M265.2,50.3c1.8,0,6-2.6,6-2.6c-2.1-1.2,1.7-4.9-0.7-6.7c-1.3-0.7-0.7-0.2-2.1-0.8c-1.4-0.6-1,1.6-1.6,1.6
			c-1.1,0-0.9-1.1-2.4-1.3c-2.6-0.2-1.4,0.7-3.6-0.7c-3.9-2.5-4.1,0.3-7.6-3.3c0-0.2,2.1-0.8,2.4-0.8c-0.2-0.2-0.2-0.3,0-0.2
			c-0.4-0.6-5.4-1.8-6-1.2c-0.1,0,4.2,4.1,0.7,3.6c-1.6-0.2-6.7,1.2-6.7-1c0,0,0.1-1.5-0.2-1.8c-0.7-0.7-3.9-0.1-4.4,0.4
			c-1.9,1-5.3-1-7.6-1.4c-0.2-1.6,2.2-2.8-1.8-2.8c-0.1,0-3.3,0.2-3.3,0.1c-1.1-0.2-2.7,0.7-3.8,0.7c-1.6,0.1-1.1,0.2-2.9-0.2
			c0.9,0.2-2.4-1.9-1.3-2.1c-0.4,0.1-1.5,2.3-2,2.5c-1,0.6-2.5,0.9-3.7,1.4c0.1,0-8.2,4.4-9.5,1.4c-0.2-0.6-1.7,0.2-1.7,0.3
			c0.4-1.2-1.7-1.9-2.8-0.4c-0.3,0.4-1,1.4-1.6,1.5c-2,0.3-1.6-0.1-3.1-0.5c0.3,0.2-12.2,4.4-12,4.4c-0.4-0.7-0.2-0.6-0.7-1.1
			c-2.4-2.5-1.6,3-1.7,3c-0.1,0-3.2,3-4.4,1.9c-0.9-0.7-1.8,1.6-2.7,1.6c-0.6,0.1-0.4-4.6-1.1-4.5c0,0,2.9-2.8,1.4-3.7
			c-2-1.1-0.3-2.1-2.3-3.1c-2.8-1.3-3.1-1.5-7.1,0c-1.6,0.8-5,6.5-5.9,8c-1.5,2.5-4.3,2.4-6,4.5c-2.5,3-0.3,7.1,2.9,4.4
			c0.1-0.1,0.7,5.6,4.4,2.7c1.8-1.1,1.8-3.7,0.7-4.8c0.6-1.6,3.8-1.9,3.4-4.4c0.4-0.2,2.9-0.2,2.7,0.2c-1.2,2.4-3.9,1.6-2.5,5.1
			c0.1,0.2,6.6-0.6,5.3,1c-0.6,0.2-4.6,0-4.6,0.6c0,0.3,1.5,0.8,1,1.2c-0.9,0.7-1.6-1.1-2.5,0.4c-0.4,0.7-0.2,2.1-0.6,2.5
			c-0.5,0.2-5.9,0.4-6.6,0.1c-1-0.5-0.6-1.4-0.5-2.2c0.1-1-1.1-0.5-1.6-0.2c-1.5,0.8,0,2.3,0.2,3.2c-1.4-0.2-10.2,5.8-10.4,5.4
			c-0.1-0.1,6.3,4.8,1.4,4.5c-2.4-0.1-5.6-1.1-4.6,2.7c0.4,1.6-0.8,1.8,0.2,3.4c0.2,0.2,3.1,1.1,2.6,1.8c1-1.2,2.5-1.6,3.9-2.6
			c-0.4,0.3,2.6-3.7,2.5-3.4c0.2-0.2,0.2-1.8,0.7-1.8c1.2,0.2,3.2-0.9,4-0.6c0.9,0.3,6.2,5.9,6.1,6.2c-0.6-1.2-0.6-2.1,0.7-2.5
			c-0.1-0.1,0-0.1,0.1-0.1c-0.2-0.2-2.1-1.6-1.6-1.3c-0.8-0.6-3.9-2.8-3-3.9c3.8-1.2,5.6,8.3,6.2,9.9c0.2,0.2,2.5-1.7,2.6-2.2
			c0.8-1.4-1.6-0.9,0-2.6c2.1-1.1,0.4,2.1,2.1,3.1c2.5,1.5,3.5,0.8,6.2,0.7c1-0.1-0.4,4.1-0.7,4.4c-1.8,2.4-0.6,0-2.5,0.7
			c-1.2,0.4-2.8,1.5-3.5,2.1c-0.2-0.7,2.1-1.6,1.7-2.3c-1.8-3-7.2,1.7-8,1.2c-0.2-0.2-6.7-3.4-5.9-4.3c4.7-2.1-3.9-2.5-5.4-2.5
			c-0.9,0-2.1,1.1-2.8,1.2c-0.8,0.5-9,2.4-9.5,2.4c-1.5,0-1.4,4.4-2.9,5.3c-2,1.1-4,4.8-3.5,7.2c0.3,1.8-2,8.5,0.3,9.9
			c2.8,1.7,6.6,3.6,8.6,5.9c2.3,2.6,1.1,0.7,2.5,0.2c1.4-0.4,3.1,0.7,4.3-0.4c1-0.7,0.8-1.6,2.3-1.6c2,0.1,1.6,1.5,2.5,2.6
			c0.9,1.1,1.8-0.9,2.3-0.7c3,1.6-1.5,4.8,0.4,6.5c1.6,1.6,2.9,4,2.8,6.5c0,0.9,1.1,3.2,0.3,3.9c-1.3,1.3-1.4,3.6-1.1,5.3
			c0.2,1.4,0.9,2.9,1.6,4.1c0.7,0.7,1.1,1.6,1.5,2.6c-0.2,0.9-0.4,1.9-0.5,2.9c1.5,2.5,1.5,4.2,2.3,6.7c0.7,2.2,4.4-0.2,5.8-0.2
			c1.6-0.1,5.8-4.7,5.5-6.4c-0.4-2.3,1-2.6,1.8-4.4c-0.7-3.8,1.3-4.2,3.3-7.2c2.1-4.4-1.7-7.8,0.3-12.3c1.7-2.7,10.4-11.3,8.1-14.9
			c-0.7-1.1-6.2,3.6-6.2,1c0.2,0.2-2.5-5.1-2.7-5.6c-2.5-3.4-2.5-7-4.3-11.2c1-2.5,3.6,5.4,3.9,6.4c0.7,2.1,2.2,3,2.5,5.3
			c0.6,3.4,1.4,3.8,4.3,2c2.8-1.7,5.7-2.5,7.5-5.3c0.2-0.5,1.7-2.8,1.4-3.4c-0.2-0.2-3.3-3-3-3c-1.1,0-3.1,3.9-3.2,0.8
			c-0.7-1.1-2.7-3.4-2.5-4.4c0.2-3,2.1,1.3,2.5,1.6c1.5,0.9,3.8,0.7,4.4,1.7c2,3.1,4.7-0.7,5.7,1.1c1,1.7,2.2,5.5,4,3
			c-0.1,1.7,3.2,13.8,4.9,13.8c2.3,0,3.9-7,3.9-8c0.7-1.9,2.7-2.9,3.9-4.8c0.7-1,1.6-0.7,2.6-1.6c1.5-0.8,3.4,9.2,2.5,9.2
			c1.3,0,0.7-1.3,2.5-1.3c-0.7,0,1.6,4,1.6,4.4c0-0.5,0.7-3.1,0.7-3.1c2.2,1,2.6,4.3,3.2,6.3c-0.9-3,5.8-4,3.5-8
			c0.2,0.7-2.8-1.2,1-4.4c0.2-0.2-0.7-1.4-0.4-1.6c0.5-1.2,3.4-1.1,4.4-1.8c4.8-3.3,5.2-8,2.6-12.2c0.2-0.7,2.7-0.9,2.1-2.2
			c-0.4-0.9-2.4,0.6-2.7-0.6c-1.1-1.4,0.7-2.8,2.1-3.4c0.5-0.2-0.7,2.1,0,2.1c0.6,0.1,1.6-1.4,1.9-1.1c0.6,0.2,0.2,3,0.4,3
			c1.7-0.6,1.6,5.4,3,2.3c1-1.6,0.3-2.5-0.4-3.9c0.1-0.6,1-1.5,1-1.9c0-2.1,3.8-2.7,5-3.7c2.1-2.3,4.4-5,3.9-8.2
			c0.2,0.6,1.4,7.9,1.7,6.5c-0.1-0.3,0.7-6.4-0.5-6c2.4-0.8-4.8-2.7-4.3-2.7c-0.6,0-0.6,0.5-1.1,0.3c0-0.4,4.2-3.9,4.8-4.4
			c1.7-1,2.3,1.1,3.3,0.2c1.3-0.7,2.3-2.2,3.4-3.1c1.2-0.8,1,2.5,3.9-0.4c-1.7,1.6-4.1,2.9-5.3,4.7c-1.7,2.7,0.2,5.4-1,8.5
			c0.7-1,4.8-5.4,4.8-6.2C262.4,53.6,263,50.3,265.2,50.3c1.6,0-0.2,0-0.2,0S265.1,50.3,265.2,50.3z M187.2,65.2
			c-2.6,1.5-3.5-0.7-1.7,3c0.7,1.5,1.1,3,1.5,5.3c0.1,1.3-8.4-1.1-2.8-3.4c-1.1-0.9-3.9-3-2.9-5.6C182.6,62.7,188.4,63.9,187.2,65.2
			c-0.1,0.1-0.2,0.1-0.2,0.1C187.1,65.2,187.5,65,187.2,65.2z M167.3,68.9c-0.1-0.8,0.7-4.1,1.7-4.4c1.3-2.3,1.8,1.9,2.6,1.7
			c0.1,0,3.2-3,3-2.1c-0.2,0.8-1.8,0.7-0.1,1.5c1.5,0.7,4.8,3.7,1.5,4c0.1,0-9.4-1.1-8.9,0.4C167.2,69.6,167.2,69.2,167.3,68.9
			C167.3,68.9,167.2,69.4,167.3,68.9z M170.3,110.8c0.6-3.2,2.8,2.9,0.3,2.1C169.9,112.6,170.3,110.9,170.3,110.8
			C170.3,110.5,170.3,110.8,170.3,110.8z"/>
		<path fill="#00959F" d="M184.2,36c3.7,1.6,3.5,1.5,3.5-1.1c1.2-2.1,10.1-2.5,9.6-4.4c-1.8,0-7-0.2-8.6,1.1
			C188.3,31.9,183.5,35.6,184.2,36C184.3,36,184.3,36,184.2,36C184.3,36,183.9,35.8,184.2,36z"/>
		<path fill="#00959F" d="M250.4,73.6c-2.1,0-7.7,2.2-6.3,5c0.3,0.7,3.4-1.1,3.8-2.1c0,0,7.6-3.2,4.6-7.6
			C251.9,67.7,250.5,73.4,250.4,73.6L250.4,73.6C250.5,73.5,250.5,73.5,250.4,73.6z"/>
		<path fill="#00959F" d="M232.5,119c0.7-0.2-5.7-2.5-5.7-2.6c-0.4-0.6-1.9,2.2,1,1.9C228.6,118.1,232,119.7,232.5,119
			c0.1,0-0.1,0.2-0.1,0.2S232.5,119.1,232.5,119z"/>
		<path fill="#00959F" d="M235.1,114.4c0.5,0.4,1.1-0.9,1.5-0.9c-0.5,0.2,1.7,2.2,2,2.4c0-0.1,0-0.2,0.2-0.1c0-0.8-1.6-3.1-1.6-3.4
			c0.5-0.1,1.3,0.2,1.6-0.4C236.9,110.6,232.9,112.6,235.1,114.4c0.2,0.2-0.2-0.2-0.2-0.2S235,114.2,235.1,114.4z"/>
		<path fill="#00959F" d="M232.3,105.5c0.2,0-5.3,3.7-4.6,2.9c-1.9,2.4,4.5,9.4,6.2,2.3c0.4-1.6,1.2-3.9,1.2-5.5
			c-0.3,0.1-0.6,0-0.9-0.1C233.9,101.2,233.4,105.5,232.3,105.5c-0.2,0-0.3,0-0.3,0S233.3,105.5,232.3,105.5z"/>
		<path fill="#00959F" d="M236.2,95.2c1.2,3.4,0.6,1,0,4.2c0.1-0.6,3.2-2.8,3.9-3.2c-0.2,0-2.1-0.2-2.2-0.3c-0.7-0.5,2.7-4-0.1-4
			C237.6,91.7,236.1,94.8,236.2,95.2c0.3,0.8-0.1-0.3-0.1-0.3S236.2,94.9,236.2,95.2z"/>
		<path fill="#00959F" d="M226.5,33.7L226.5,33.7L226.5,33.7z"/>
		<path fill="#00959F" d="M100.8,63.3c0-0.1-0.1-0.1-0.2,0H100.8z"/>
		<path fill="#00959F" d="M87.4,48.5c-0.5,0.2-0.5,1.1,0.2,0.7C88.1,49.1,88.3,48.2,87.4,48.5c-0.1,0,0.2-0.1,0.2-0.1
			S87.6,48.4,87.4,48.5z"/>
		<path fill="#00959F" d="M30.3,44.3c0.2,0,0.2-0.1,0.2-0.1S30.4,44.3,30.3,44.3z"/>
		<path fill="#00959F" d="M84.3,47.9c-0.7,0.4,0.6,0.9,0.8,0.4C85.1,47.8,84.8,47.6,84.3,47.9c-0.1,0,0.2-0.2,0.2-0.2
			C84.5,47.7,84.5,47.8,84.3,47.9z"/>
		<path fill="#00959F" d="M260.6,138.9c-0.8-3.3-2.9-8-3.9-9.5c-1.1-0.2-5.7-9-5.2-9.4c0,0.1-0.1,0.1-0.2,0.1
			c-0.8,0.7,0.3,8.8-2,6.6c-0.2-0.2-2.2-2.5-2.5-2.8c0.7-3.1-0.7-1.6-2.3-2.8c-0.7-0.7-0.8,0.9-0.8,1.3c-0.2-0.3-1.2-1-1.2-1.2
			c-0.1,0.5-0.7,3.4-1.4,3.3c-1.1-0.2-0.6-1.9-2.2-0.8c-1.5,1,0.3,2.4-2.1,1.8c0.5,0.2-1-0.2-1.2,0.1c-0.6,0.7,0.1,2.6,0.1,3.4
			l-1.6,0.5c-1,0.8-2.2,0.5-3.4,1.6c-3.9,3.7,3.2,9,0.9,11.5c-3.4,3.7,5.2,1.6,6.2,2.1c-0.2-1,0.7-1.8,0.7-2.9
			c2-1.8,7.6-1.1,7.1,2.5c-0.2,1,2.2-1.6,2.2-1.6c0.4,0.4,0.5,0.9,0.3,1.6c-0.2-0.8,3,3.5,2.7,3.4c1.3,0.4,2.9,1.7,4.4,0.5
			C257.3,146.7,261.3,141.5,260.6,138.9C260.5,138.6,260.6,138.9,260.6,138.9z"/>
		<path fill="#00959F" d="M252.7,65.4c-0.2,0-1.8,2-2.1,2.4c-0.6,1,5.1,0.7,5.1-0.6C255.3,67,253,65.4,252.7,65.4
			c-0.1,0,0.2-0.1,0.2-0.1S252.7,65.4,252.7,65.4z"/>
		<path fill="#00959F" d="M97.3,99.6h0.7C97.8,99.5,97.5,99.5,97.3,99.6z"/>
		<path fill="#00959F" d="M254.1,114.5c-0.4-0.4-1.6-2.3-1.3-1.7c-2.4-1.5-7.1-1-8.3-2.8c-0.4-1-1.7,0.4-1.7,0.8
			c-0.2-1.2,3.4,3.3,1.3,2.9c1.6,0.3,3.3,0.2,4.5,1.9c0.4,0.6,0.7,2.5-0.2,2.4c0.8,0.2,3,1.7,3.3,1.6c1.2-4.5,5.8,1.1,5.8,0.7
			C257.7,118.4,255.2,115.7,254.1,114.5c-0.1-0.1,0.2,0.2,0.2,0.2S254.1,114.6,254.1,114.5z"/>
		<path fill="#00959F" d="M273.9,145.3c-0.1-0.1-4.2-2.6-3.4-3.1c0.3-0.2,0.6,5.6-0.1,5c0.2,0.1,2.1,2.3,1.4,2.1
			C272.9,149.8,273.9,145.6,273.9,145.3C273.8,145.3,273.9,145.3,273.9,145.3z"/>
		<path fill="#00959F" d="M269.7,148.6c-0.8,0.2-1.6,0.4-2.1,1.5c-0.7,1.7-3.3,2.1-3.9,3.9c-0.4,1.2,1.9,2.1,2.5,1.4
			C267.8,154.6,271.3,150.3,269.7,148.6C269.7,148.6,269.9,148.9,269.7,148.6z"/>
		<path fill="#00959F" d="M242.7,121h0.2C242.7,121,242.7,121,242.7,121z"/>
		<path fill="#00959F" d="M235.8,105.2h0.2C236,105.1,235.9,105.1,235.8,105.2z"/>
		<path fill="#00959F" d="M183.8,123.1c-0.5,0.1-5.3,3.8-4.8,5.2c0.4,1.3,0.4,5,0.2,6.3c-0.3,2.5,2.5,1.3,2.9-0.4
			C183.4,132.5,184.9,125.2,183.8,123.1C183.8,123.1,184.1,123.5,183.8,123.1z"/>
		<path fill="#00959F" d="M124.9,39.3c-0.6-1.1-2.8-3.4-0.4-2.3c1.5,0.7-0.4-2.1,0.2-3.3c0.1-1-3-0.7-1.1-2.7
			c0.5-1.4,1.6-3.2,1.8-3.1c-1.3-0.4-2.7-1.8-3.3-2.5c-0.9-4.4-3.7-1.1-7.1-2.1c0.3,0,4.4-0.7,4-1.1c-1.1-1.6-5.5-4.4-8-3.9
			c0.8-0.7-3.3,4.3-2.5,5.3c-1.7-1.7-2.7-1.3-4.1,1.1c-0.2,0.5-8.1-1.7-7.1,0.2c0.5,1-4.6,7.6-5.1,8c0.7-0.7,3.9,4.8,4.2,0.4
			c0.7,2.1,1.7,1.1,3.7,1.5c4.2,1,2.3,2.6,4.1,5.3c0.1,0.1,1.1-1.4,1.6-1.3c1.7,0.4,1,2.8,1.1,3c-0.6-0.5-0.1-2.1-0.7-2.1
			c-2.9,0-0.2,2.5-0.2,2.6c0,1.7-1.1,3.1,1.3,3.9c-1.4,0.7,4.1,5.3,5.2,4.4c1.1-0.5,1.6-3.4,2.1-3.9c-0.2-1,1.2-1.8,2.1-1.8
			c2.5,0,1.7-1.7,3.4-2.1c0.5-0.1,3.8-1.1,3.6-1.3c0,0-2.2-2.9-1.8-2.9C121.9,38.6,126.2,42.9,124.9,39.3
			C124.9,39.3,124.9,39.4,124.9,39.3z"/>
		<path fill="#00959F" d="M241.1,102.3c-0.2-0.6-0.6-1-1.1-1.5c-0.2,0.2-3.4,1.5-3,2.1C238,105.3,240.7,104.2,241.1,102.3
			C240.8,101.7,241.1,102.3,241.1,102.3z"/>
		<path fill="#00959F" d="M95.1,90.5c-1.2-0.4-2.5,0.6-3,1.6c0.7,0.3,4.3,1.2,4.4,0.3c0,0.2-0.4-1.6-0.2-1.1L95.1,90.5
			c-0.1,0-0.2-0.1-0.2-0.1S95.3,90.6,95.1,90.5z"/>
		<path fill="#00959F" d="M225.1,116.4c1.6-5-4.1-8.3-6.7-11.2c-0.5-0.4-0.8-0.5-1.2-0.2c0.5-0.2,3.4,6.1,3.4,6.8
			C221.2,114.6,223,115.9,225.1,116.4C225.1,116.3,225.1,116.4,225.1,116.4z"/>
		<path fill="#00959F" d="M222.1,102.3c-0.5-1.1-0.9-1.4-1.6-1.9c-2,0.3,4.1,10.8,4.6,8.6C224.2,106.9,223.3,104.3,222.1,102.3
			C221.9,101.9,222.1,102.3,222.1,102.3z"/>
	</g>
	<g>
		
			<line fill="none" stroke="#FFFFFF" stroke-width="2" stroke-linecap="square" stroke-miterlimit="10" x1="56.1" y1="51.3" x2="67.4" y2="69.4"/>
		<circle fill="#3DC6EC" cx="56.3" cy="51.3" r="6.6"/>
		<polygon fill="#FFFFFF" points="53.1,48.1 54.7,49 54,52.1 52.2,52.1 51.9,50.3 		"/>
	</g>
	<g>
		
			<line fill="none" stroke="#FFFFFF" stroke-width="2" stroke-linecap="square" stroke-miterlimit="10" x1="56.1" y1="24.2" x2="70.7" y2="57.1"/>
		<circle fill="#3DC6EC" cx="56.3" cy="24.2" r="6.6"/>
		<polygon fill="#FFFFFF" points="53.1,21 54.7,21.9 54,25 52.2,25 51.9,23.2 		"/>
	</g>
	<g>
		
			<line fill="none" stroke="#FFFFFF" stroke-width="2" stroke-linecap="square" stroke-miterlimit="10" x1="59.3" y1="76" x2="71.3" y2="87.9"/>
		<circle fill="#3DC6EC" cx="59.6" cy="76" r="6.6"/>
		<polygon fill="#FFFFFF" points="56.4,72.8 58,73.7 57.3,76.7 55.5,76.7 55.2,75 		"/>
	</g>
	<g>
		
			<line fill="none" stroke="#FFFFFF" stroke-width="2" stroke-linecap="square" stroke-miterlimit="10" x1="84" y1="72.7" x2="86.7" y2="88.3"/>
		<circle fill="#3DC6EC" cx="84.2" cy="72.7" r="6.6"/>
		<polygon fill="#FFFFFF" points="81,69.5 82.7,70.4 81.9,73.4 80.1,73.4 79.8,71.7 		"/>
	</g>
	<g>
		
			<line fill="none" stroke="#FFFFFF" stroke-width="2" stroke-linecap="square" stroke-miterlimit="10" x1="99.6" y1="71.9" x2="93.7" y2="91.4"/>
		<circle fill="#3DC6EC" cx="99.8" cy="71.9" r="6.6"/>
		<polygon fill="#FFFFFF" points="96.6,68.6 98.3,69.6 97.5,72.6 95.7,72.6 95.4,70.9 		"/>
	</g>
	<g>
		
			<line fill="none" stroke="#FFFFFF" stroke-width="2" stroke-linecap="square" stroke-miterlimit="10" x1="85.6" y1="120.3" x2="93.3" y2="105.7"/>
		<circle fill="#3DC6EC" cx="85.9" cy="120.3" r="6.6"/>
		<polygon fill="#FFFFFF" points="82.7,117.1 84.3,118 83.6,121 81.8,121 81.4,119.3 		"/>
	</g>
	<g>
		
			<line fill="none" stroke="#FFFFFF" stroke-width="2" stroke-linecap="square" stroke-miterlimit="10" x1="68.4" y1="110.4" x2="79.1" y2="94"/>
		<circle fill="#3DC6EC" cx="68.6" cy="110.4" r="6.6"/>
		<polygon fill="#FFFFFF" points="65.4,107.2 67.1,108.1 66.3,111.2 64.5,111.2 64.2,109.5 		"/>
	</g>
	<g>
		
			<line fill="none" stroke="#FFFFFF" stroke-width="2" stroke-linecap="square" stroke-miterlimit="10" x1="110.3" y1="96.5" x2="100.7" y2="106.8"/>
		<circle fill="#3DC6EC" cx="110.5" cy="96.5" r="6.6"/>
		<polygon fill="#FFFFFF" points="107.3,93.3 108.9,94.2 108.2,97.2 106.4,97.2 106.1,95.5 		"/>
	</g>
	<g>
		
			<line fill="none" stroke="#FFFFFF" stroke-width="2" stroke-linecap="square" stroke-miterlimit="10" x1="112.7" y1="140.8" x2="111.3" y2="120.1"/>
		<circle fill="#3DC6EC" cx="113" cy="140.8" r="6.6"/>
		<polygon fill="#FFFFFF" points="109.8,137.6 111.4,138.5 110.7,141.6 108.9,141.6 108.5,139.8 		"/>
	</g>
	<g>
		
			<line fill="none" stroke="#FFFFFF" stroke-width="2" stroke-linecap="square" stroke-miterlimit="10" x1="137.4" y1="126.9" x2="151.6" y2="104.7"/>
		<circle fill="#3DC6EC" cx="137.6" cy="126.9" r="6.6"/>
		<polygon fill="#FFFFFF" points="134.4,123.7 136,124.6 135.3,127.6 133.5,127.6 133.2,125.9 		"/>
	</g>
	<g>
		
			<line fill="none" stroke="#FFFFFF" stroke-width="2" stroke-linecap="square" stroke-miterlimit="10" x1="125" y1="109.6" x2="141.5" y2="102.2"/>
		<circle fill="#3DC6EC" cx="125.3" cy="109.6" r="6.6"/>
		<polygon fill="#FFFFFF" points="122.1,106.4 123.7,107.3 123,110.4 121.2,110.4 120.9,108.6 		"/>
	</g>
	<g>
		
			<line fill="none" stroke="#FFFFFF" stroke-width="2" stroke-linecap="square" stroke-miterlimit="10" x1="218.7" y1="63.6" x2="205.8" y2="92"/>
		<circle fill="#3DC6EC" cx="218.9" cy="63.6" r="6.6"/>
		<polygon fill="#FFFFFF" points="215.7,60.4 217.3,61.3 216.6,64.4 214.8,64.4 214.5,62.7 		"/>
	</g>
	<g>
		
			<line fill="none" stroke="#FFFFFF" stroke-width="2" stroke-linecap="square" stroke-miterlimit="10" x1="186.6" y1="32.4" x2="163.6" y2="67.2"/>
		<circle fill="#3DC6EC" cx="186.9" cy="32.4" r="6.6"/>
		<polygon fill="#FFFFFF" points="183.7,29.2 185.3,30.1 184.6,33.2 182.8,33.2 182.4,31.4 		"/>
	</g>
	<g>
		
			<line fill="none" stroke="#FFFFFF" stroke-width="2" stroke-linecap="square" stroke-miterlimit="10" x1="148" y1="24.2" x2="144.8" y2="53.2"/>
		<circle fill="#3DC6EC" cx="148.3" cy="24.2" r="6.6"/>
		<polygon fill="#FFFFFF" points="145.1,21 146.7,21.9 146,25 144.2,25 143.8,23.2 		"/>
	</g>
	<g>
		
			<line fill="none" stroke="#FFFFFF" stroke-width="2" stroke-linecap="square" stroke-miterlimit="10" x1="244.9" y1="73.5" x2="225.2" y2="97.9"/>
		<circle fill="#3DC6EC" cx="245.2" cy="73.5" r="6.6"/>
		<polygon fill="#FFFFFF" points="242,70.3 243.6,71.2 242.9,74.2 241.1,74.2 240.7,72.5 		"/>
	</g>
	<g>
		
			<line fill="none" stroke="#FFFFFF" stroke-width="2" stroke-linecap="square" stroke-miterlimit="10" x1="186.6" y1="168.8" x2="167.4" y2="135.9"/>
		<circle fill="#3DC6EC" cx="186.9" cy="168.8" r="6.6"/>
		<polygon fill="#FFFFFF" points="183.7,165.6 185.3,166.5 184.6,169.5 182.8,169.5 182.4,167.8 		"/>
	</g>
	<g>
		<polygon fill="#F7BE44" points="158.1,121 158.1,77.7 151.3,77.7 141.5,80.7 141.5,88.8 141.9,88.8 148.4,86.6 148.4,121 		"/>
		<path fill="#F7BE44" d="M187.6,85.8v-8.1h-20.9l-1.1,24.9h0.4c0,0,3.4-0.5,6-0.5c5.7,0,7.6,1.9,7.6,5.7c0,3.7-1.8,5.4-6.3,5.4
			c-3.7,0-7.6-1.3-7.6-1.3h-0.4v8c0,0,3.3,1.2,8.4,1.2c10.9,0,15.7-5.3,15.7-14c0-8.1-4-13-12.4-13c-1.4,0-2.4,0.1-2.4,0.1l0.4-8.5
			L187.6,85.8L187.6,85.8z"/>
	</g>
	<g>
		<path fill="#FFFFFF" d="M142.3,53.9l0.5-1.8c0.2-0.5,0.2-1.1,0.4-1.6l0,0c0.2,0.5,0.3,1.1,0.4,1.6l0.6,1.8H142.3z M144.6,55.3
			l0.7,2.5h2.1l-2.7-9H142l-2.7,9h2.1l0.7-2.5H144.6z"/>
		<path fill="#FFFFFF" d="M155.7,56.1c-0.4,0.2-1.1,0.3-1.6,0.3c-1.8,0-2.9-1.1-2.9-3c0-2.1,1.2-3,2.8-3c0.7,0,1.3,0.2,1.7,0.3
			l0.4-1.5c-0.3-0.2-1.1-0.3-2.2-0.3c-2.7,0-4.3,1.5-4.3,4.7c0,2.6,1.1,4.4,4.1,4.4c1.1,0,1.9-0.2,2.3-0.3L155.7,56.1z"/>
		<path fill="#FFFFFF" d="M160.7,50.4c0.2,0,0.6-0.1,1.3-0.1c1.3,0,2.1,0.5,2.1,1.3s-0.8,1.4-2.3,1.4h-1.1L160.7,50.4L160.7,50.4z
			 M159.2,57.8h1.6v-3.4h0.9c1.1,0,1.7,0.3,2.1,1.3c0.4,1.1,0.6,1.7,0.7,2h1.6c-0.2-0.3-0.4-1.5-0.7-2.4c-0.2-0.7-0.4-1.4-0.9-1.6
			l0,0c0.6-0.2,1.2-1.1,1.2-2.3c0-0.9-0.2-1.6-0.7-2c-0.5-0.5-1.5-0.7-3.3-0.7c-1.2,0-2.1,0.1-2.5,0.2L159.2,57.8L159.2,57.8z"/>
		<path fill="#FFFFFF" d="M171.9,50.3c1.6,0,2.5,1.4,2.5,3c0,1.7-0.9,3-2.5,3c-1.6,0-2.5-1.2-2.5-3
			C169.4,51.7,170.4,50.3,171.9,50.3z M172,48.9c-2.9,0-4.1,1.9-4.1,4.6c0,2.5,1.1,4.4,3.9,4.4c2.9,0,4.2-1.6,4.2-4.6
			C176,50.7,174.9,48.9,172,48.9z"/>
		<path fill="#FFFFFF" d="M178.1,57.4c0.4,0.2,1.1,0.5,2.1,0.5c2.7,0,3.6-1.1,3.6-2.6c0-1.3-0.6-2.1-1.9-2.8
			c-1.6-0.4-2.2-0.7-2.2-1.3c0-0.5,0.6-0.9,1.7-0.9c1,0,1.5,0.2,1.7,0.4l0.3-1.5c-0.4-0.2-0.9-0.4-2.1-0.4c-2.4,0-3.4,1.1-3.4,2.5
			c0,1.3,0.7,2.2,2.1,2.7c1.5,0.4,2.1,0.7,2.1,1.3c0,0.6-0.7,1-1.9,1c-0.9,0-1.6-0.2-2-0.6L178.1,57.4z"/>
		<path fill="#FFFFFF" d="M186.8,57.4c0.4,0.2,1.1,0.5,2.1,0.5c2.7,0,3.6-1.1,3.6-2.6c0-1.3-0.6-2.1-1.9-2.8
			c-1.6-0.4-2.2-0.7-2.2-1.3c0-0.5,0.6-0.9,1.7-0.9c1,0,1.5,0.2,1.7,0.4l0.3-1.5c-0.4-0.2-0.9-0.4-2.1-0.4c-2.4,0-3.4,1.1-3.4,2.5
			c0,1.3,0.7,2.2,2.1,2.7c1.5,0.4,2,0.7,2,1.3c0,0.6-0.7,1-1.9,1c-0.9,0-1.6-0.2-2-0.6L186.8,57.4z"/>
	</g>
	<g>
		<path fill="#FFFFFF" d="M133.9,151.3c-0.4,0.2-1.1,0.3-1.6,0.3c-1.8,0-2.8-1.1-2.8-3c0-2.1,1.2-3,2.8-3c0.7,0,1.2,0.2,1.6,0.3
			l0.4-1.5c-0.3-0.2-1.1-0.3-2.2-0.3c-2.7,0-4.3,1.5-4.3,4.7c0,2.6,1.1,4.4,4.1,4.4c1.1,0,1.9-0.2,2.3-0.3L133.9,151.3z"/>
		<path fill="#FFFFFF" d="M140.6,145.6c1.6,0,2.5,1.4,2.5,3c0,1.7-0.9,3-2.5,3s-2.5-1.2-2.5-3C138.1,146.9,139.1,145.6,140.6,145.6z
			 M140.7,144.1c-2.9,0-4.1,1.9-4.1,4.6c0,2.5,1.1,4.4,3.9,4.4c2.9,0,4.2-1.6,4.2-4.6C144.7,146.1,143.6,144.1,140.7,144.1z"/>
		<path fill="#FFFFFF" d="M147,144.2v5c0,2.8,1,3.9,3.5,3.9c2.7,0,3.8-1.1,3.8-3.9v-5h-1.6v5.2c0,1.6-0.7,2.3-2.1,2.3
			c-1.3,0-2.1-0.8-2.1-2.3v-5.2H147z"/>
		<path fill="#FFFFFF" d="M158.8,153.1v-2.7c0-1.5,0-2.7-0.1-3.9l0,0c0.5,1.1,1.1,2.2,1.7,3.1l2.1,3.4h1.8v-9h-1.3v2.6
			c0,1.3,0,2.5,0.2,3.7l0,0c-0.4-1-1-2.1-1.6-3l-2.1-3.3h-2.1v9H158.8z"/>
		<polygon fill="#FFFFFF" points="169.3,153.1 170.8,153.1 170.8,145.6 173.2,145.6 173.2,144.1 166.9,144.1 166.9,145.6 
			169.3,145.6 		"/>
		<path fill="#FFFFFF" d="M177.8,145.7c0.2,0,0.6-0.1,1.3-0.1c1.3,0,2.1,0.5,2.1,1.3s-0.8,1.4-2.3,1.4h-1.1V145.7z M176.4,153.1h1.6
			v-3.4h0.9c1.1,0,1.7,0.3,2.1,1.3c0.4,1.1,0.6,1.7,0.7,2h1.6c-0.2-0.3-0.4-1.5-0.7-2.4c-0.2-0.7-0.4-1.4-0.9-1.6l0,0
			c0.6-0.2,1.2-1.1,1.2-2.3c0-0.9-0.2-1.6-0.7-2c-0.5-0.5-1.5-0.7-3.4-0.7c-1.2,0-2,0.1-2.5,0.2L176.4,153.1L176.4,153.1z"/>
		<rect x="185.1" y="144.2" fill="#FFFFFF" width="1.6" height="9"/>
		<polygon fill="#FFFFFF" points="195.3,147.5 192,147.5 192,145.6 195.4,145.6 195.4,144.1 190.5,144.1 190.5,153.2 195.7,153.2 
			195.7,151.7 192,151.7 192,149 195.3,149 		"/>
		<path fill="#FFFFFF" d="M199,152.7c0.4,0.2,1.1,0.5,2.1,0.5c2.7,0,3.6-1.1,3.6-2.6c0-1.3-0.6-2.1-1.9-2.7
			c-1.6-0.5-2.2-0.7-2.2-1.3c0-0.5,0.6-0.9,1.7-0.9c1,0,1.5,0.2,1.7,0.4l0.3-1.5c-0.4-0.2-0.9-0.4-2.1-0.4c-2.4,0-3.4,1.1-3.4,2.5
			c0,1.3,0.7,2.2,2.1,2.7c1.5,0.4,2.1,0.7,2.1,1.3s-0.7,1-1.9,1c-0.9,0-1.6-0.3-2-0.6L199,152.7z"/>
	</g>
</g>
</svg>
