<?xml version="1.0" encoding="utf-8"?>
<!-- Generator: Adobe Illustrator 18.0.0, SVG Export Plug-In . SVG Version: 6.00 Build 0)  -->
<!DOCTYPE svg PUBLIC "-//W3C//DTD SVG 1.1//EN" "http://www.w3.org/Graphics/SVG/1.1/DTD/svg11.dtd">
<svg version="1.1" id="Layer_1" xmlns="http://www.w3.org/2000/svg" xmlns:xlink="http://www.w3.org/1999/xlink" x="0px" y="0px"
	 viewBox="39.2 16.2 245.5 152.9" enable-background="new 39.2 16.2 245.5 152.9" xml:space="preserve">
<g>
	<g>
		<polygon fill="#FFFFFF" points="107.6,24.6 112.3,24.6 112.3,23.3 109,23.3 109,16.3 107.6,16.3 		"/>
		<path fill="#FFFFFF" d="M118.7,17.6c1.5,0,2.4,1.3,2.4,2.8c0,1.6-0.8,2.8-2.3,2.8s-2.4-1.2-2.4-2.8
			C116.3,18.8,117.3,17.6,118.7,17.6z M118.8,16.2c-2.7,0-3.8,1.8-3.8,4.3c0,2.4,1.1,4.1,3.7,4.1c2.7,0,3.9-1.5,3.9-4.3
			C122.5,18,121.5,16.2,118.8,16.2z"/>
		<path fill="#FFFFFF" d="M131.4,20.1h-2.8v1.4h1.5v1.7c-0.2,0.1-0.5,0.2-1,0.2c-1.7,0-2.9-1-2.9-2.6c0-2,1.3-3.1,3.1-3.1
			c1,0,1.5,0.2,1.8,0.5l0.3-1.5c-0.4-0.2-1-0.5-2.1-0.5c-3,0-4.5,1.4-4.5,4.6c0,1.2,0.3,2.1,0.8,2.8c0.5,0.7,1.8,1,3.5,1
			c1.2,0,2.1-0.2,2.5-0.5V20.1z"/>
		<path fill="#FFFFFF" d="M141.1,20.1h-2.8v1.4h1.5v1.7c-0.2,0.1-0.5,0.2-1,0.2c-1.7,0-2.9-1-2.9-2.6c0-2,1.3-3.1,3.1-3.1
			c1,0,1.5,0.2,1.8,0.5l0.3-1.5c-0.3-0.2-1-0.4-2.1-0.4c-3,0-4.5,1.4-4.5,4.6c0,1.2,0.3,2.1,0.8,2.8c0.5,0.7,1.8,1,3.5,1
			c1.2,0,2.1-0.2,2.5-0.5L141.1,20.1L141.1,20.1z"/>
		<polygon fill="#FFFFFF" points="148.4,19.3 145.4,19.3 145.4,17.6 148.6,17.6 148.6,16.2 144,16.2 144,24.6 148.8,24.6 
			148.8,23.3 145.4,23.3 145.4,20.7 148.4,20.7 		"/>
		<path fill="#FFFFFF" d="M153.5,17.7c0.2-0.1,0.5-0.1,1-0.1c1.8,0,3,0.9,3,2.7c0,2-1.2,3-3.2,3c-0.2,0-0.5,0-0.8-0.1V17.7z
			 M152.1,24.6c0.4,0.1,0.8,0.2,1.7,0.2c1.8,0,3.4-0.3,4.1-1c0.6-0.7,1-1.8,1-3.4c0-1.5-0.4-2.5-1-3.2c-0.7-0.6-1.8-0.8-3.6-0.8
			c-1,0-1.6,0.1-2.1,0.2V24.6z"/>
		<path fill="#FFFFFF" d="M169.1,17.6c1.5,0,2.4,1.3,2.4,2.8c0,1.6-0.8,2.8-2.3,2.8c-1.5,0-2.4-1.2-2.4-2.8
			C166.7,18.8,167.6,17.6,169.1,17.6z M169.2,16.2c-2.7,0-3.8,1.8-3.8,4.3c0,2.4,1.1,4.1,3.7,4.1c2.7,0,3.9-1.5,3.9-4.3
			C172.9,18,171.9,16.2,169.2,16.2z"/>
		<path fill="#FFFFFF" d="M179,24.6l2.8-8.4h-2l-1.1,3.6c-0.3,1.3-0.5,2.4-0.8,3.5l0,0c-0.2-1.2-0.5-2.1-0.8-3.2l-1-3.8h-2.1
			l2.6,8.4H179z"/>
		<polygon fill="#FFFFFF" points="188.4,19.3 185.3,19.3 185.3,17.6 188.5,17.6 188.5,16.2 183.9,16.2 183.9,24.6 188.7,24.6 
			188.7,23.3 185.3,23.3 185.3,20.7 188.4,20.7 		"/>
		<path fill="#FFFFFF" d="M193.4,17.6c0.2,0,0.5-0.1,1.2-0.1c1.2,0,2,0.5,2,1.2s-0.8,1.3-2.1,1.3h-1.1V17.6L193.4,17.6z M192,24.6
			h1.5v-3.1h0.8c1.1,0,1.6,0.3,1.9,1.3c0.4,1,0.5,1.6,0.6,1.8h1.5c-0.2-0.3-0.4-1.4-0.6-2.2c-0.2-0.7-0.4-1.3-0.8-1.5l0,0
			c0.5-0.2,1.2-1,1.2-2.1c0-0.8-0.2-1.5-0.6-1.8c-0.5-0.5-1.4-0.7-3.1-0.7c-1.2,0-1.8,0.1-2.4,0.2L192,24.6L192,24.6z"/>
	</g>
	<g>
		<path fill="#FFFFFF" d="M82.4,161.9c1.5,0,2.4,1.3,2.4,2.8c0,1.6-0.8,2.8-2.3,2.8s-2.4-1.2-2.4-2.8
			C80,163.1,80.9,161.9,82.4,161.9z M82.5,160.5c-2.7,0-3.8,1.8-3.8,4.3c0,2.4,1.1,4.1,3.7,4.1c2.7,0,3.9-1.5,3.9-4.3
			C86.2,162.4,85.2,160.5,82.5,160.5z"/>
		<polygon fill="#FFFFFF" points="88.3,169 89.7,169 89.7,165.8 92.7,165.8 92.7,164.5 89.7,164.5 89.7,161.9 92.9,161.9 
			92.9,160.5 88.3,160.5 		"/>
		<path fill="#FFFFFF" d="M104.8,167.4c-0.4,0.2-1,0.3-1.5,0.3c-1.7,0-2.7-1.1-2.7-2.8c0-1.9,1.2-2.8,2.6-2.8c0.7,0,1.2,0.2,1.5,0.3
			l0.4-1.4c-0.3-0.2-1.1-0.3-2.1-0.3c-2.5,0-4,1.4-4,4.4c0,2.5,1.1,4.1,3.8,4.1c1,0,1.8-0.2,2.1-0.3L104.8,167.4z"/>
		<path fill="#FFFFFF" d="M111.1,161.9c1.5,0,2.4,1.3,2.4,2.8c0,1.6-0.8,2.8-2.3,2.8s-2.4-1.2-2.4-2.8
			C108.7,163.1,109.7,161.9,111.1,161.9z M111.2,160.5c-2.7,0-3.8,1.8-3.8,4.3c0,2.4,1.1,4.1,3.7,4.1c2.7,0,3.9-1.5,3.9-4.3
			C114.9,162.4,113.9,160.5,111.2,160.5z"/>
		<path fill="#FFFFFF" d="M124.3,169h1.8l-0.5-8.4h-2.5l-0.9,2.5c-0.2,1-0.5,2.1-0.8,3.1h-0.1c-0.2-1-0.5-2.1-0.7-3.1l-0.8-2.5h-2.5
			l-0.5,8.4h1.7l0.2-3.4c0.1-1.1,0.1-2.5,0.2-3.7l0,0c0.2,1.2,0.5,2.5,0.8,3.5l0.9,3.5h1.5l1-3.5c0.3-1.1,0.7-2.3,0.9-3.5l0,0
			c0,1.3,0.1,2.6,0.1,3.6L124.3,169z"/>
		<path fill="#FFFFFF" d="M136.3,169h1.8l-0.5-8.4h-2.5l-0.8,2.5c-0.3,1-0.5,2.1-0.8,3.1h-0.1c-0.2-1-0.5-2.1-0.7-3.1l-0.8-2.5h-2.5
			l-0.5,8.4h1.7l0.2-3.4c0.1-1.1,0.1-2.5,0.2-3.7l0,0c0.2,1.2,0.5,2.5,0.8,3.5l0.9,3.5h1.5l1-3.5c0.3-1.1,0.7-2.3,0.9-3.5l0,0
			c0,1.3,0,2.6,0.1,3.6L136.3,169z"/>
		<path fill="#FFFFFF" d="M141,160.6v4.7c0,2.6,0.9,3.7,3.3,3.7c2.5,0,3.5-1.1,3.5-3.7v-4.7h-1.5v4.8c0,1.5-0.7,2.1-2,2.1
			c-1.2,0-1.9-0.8-1.9-2.1v-4.8H141z"/>
		<path fill="#FFFFFF" d="M152,169v-2.5c0-1.4,0-2.5-0.1-3.6l0,0c0.5,1,1.1,2.1,1.6,2.9l2,3.2h1.7v-8.4h-1.5v2.5
			c0,1.2,0,2.4,0.2,3.5l0,0c-0.4-0.9-0.9-2-1.5-2.8l-2-3.1h-2v8.4H152z"/>
		<rect x="160.3" y="160.6" fill="#FFFFFF" width="1.5" height="8.4"/>
		<polygon fill="#FFFFFF" points="166.9,169 168.3,169 168.3,161.9 170.6,161.9 170.6,160.5 164.7,160.5 164.7,161.9 166.9,161.9 		
			"/>
		<path fill="#FFFFFF" d="M177.2,169v-3.5l2.8-4.9h-2.1l-0.8,2c-0.2,0.6-0.3,1.1-0.5,1.6l0,0c-0.2-0.5-0.3-1-0.5-1.6l-0.8-2h-2.1
			l2.6,4.9v3.5H177.2z"/>
		<path fill="#FFFFFF" d="M185.8,168.5c0.4,0.2,1.1,0.5,2,0.5c2.5,0,3.4-1.1,3.4-2.5c0-1.2-0.5-2-1.8-2.6c-1.5-0.4-2.1-0.7-2.1-1.2
			c0-0.5,0.5-0.8,1.6-0.8c0.9,0,1.4,0.2,1.6,0.4l0.3-1.4c-0.4-0.2-0.8-0.4-1.9-0.4c-2.2,0-3.1,1-3.1,2.4c0,1.2,0.7,2.1,2,2.5
			c1.4,0.4,1.8,0.7,1.8,1.2c0,0.5-0.6,0.9-1.8,0.9c-0.8,0-1.5-0.2-1.8-0.5L185.8,168.5z"/>
		<polygon fill="#FFFFFF" points="198.6,163.7 195.5,163.7 195.5,161.9 198.7,161.9 198.7,160.5 194.1,160.5 194.1,169 199,169 
			199,167.6 195.5,167.6 195.5,165.1 198.6,165.1 		"/>
		<path fill="#FFFFFF" d="M203.6,162c0.2,0,0.5-0.1,1.2-0.1c1.2,0,2,0.5,2,1.2s-0.8,1.3-2.1,1.3h-1.1L203.6,162L203.6,162z
			 M202.3,169h1.5v-3.1h0.8c1.1,0,1.6,0.3,1.9,1.3c0.4,1,0.5,1.6,0.7,1.8h1.5c-0.2-0.3-0.4-1.4-0.6-2.2c-0.2-0.7-0.4-1.3-0.8-1.5
			l0,0c0.5-0.2,1.2-1,1.2-2.1c0-0.8-0.2-1.5-0.6-1.8c-0.5-0.5-1.4-0.7-3.1-0.7c-1.2,0-1.8,0.1-2.4,0.2L202.3,169L202.3,169z"/>
		<path fill="#FFFFFF" d="M214.4,169l2.8-8.4h-2l-1.1,3.5c-0.3,1.3-0.5,2.4-0.8,3.5l0,0c-0.2-1.2-0.5-2.1-0.8-3.2l-1-3.8h-2.1
			l2.6,8.4L214.4,169z"/>
		<rect x="219.3" y="160.6" fill="#FFFFFF" width="1.5" height="8.4"/>
		<path fill="#FFFFFF" d="M230,167.4c-0.4,0.2-1,0.3-1.5,0.3c-1.7,0-2.6-1.1-2.6-2.8c0-1.9,1.2-2.8,2.6-2.8c0.7,0,1.2,0.2,1.6,0.3
			l0.4-1.4c-0.3-0.2-1.1-0.3-2-0.3c-2.5,0-4,1.4-4,4.4c0,2.5,1.1,4.1,3.8,4.1c1,0,1.8-0.2,2.1-0.3L230,167.4z"/>
		<polygon fill="#FFFFFF" points="237.7,163.7 234.7,163.7 234.7,161.9 237.9,161.9 237.9,160.5 233.3,160.5 233.3,169 238.1,169 
			238.1,167.6 234.7,167.6 234.7,165.1 237.7,165.1 		"/>
	</g>
	<g>
		<path fill="#F7BE44" d="M46.3,77.7l6-14.1v14.1H46.3z M63.6,84.5v-6.8h-3.8V53.1H50L39.2,77.8v6.7h13.1v6.9h7.6v-6.9H63.6z"/>
		<path fill="#F7BE44" d="M83.8,72.1c0,7.4-0.2,10.1-0.9,11.9c-0.5,1.4-1.3,1.9-2.5,1.9c-1.2,0-2.1-0.6-2.6-1.9
			c-0.8-1.9-0.9-5.9-0.9-11.6c0-7.4,0.2-10.1,0.9-11.9c0.5-1.4,1.3-1.9,2.5-1.9c1.2,0,2.1,0.6,2.6,1.9
			C83.6,62.4,83.8,66.4,83.8,72.1z M92.8,72.2c0-6.8-0.5-12.7-2.9-15.9c-2-2.5-5.3-3.8-9.7-3.8c-4.3,0-7.6,1.2-9.7,3.8
			c-2.4,3.2-2.9,8.8-2.9,16c0,6.8,0.5,12.6,2.9,15.9c2,2.5,5.3,3.8,9.7,3.8c4.3,0,7.6-1.2,9.7-3.8C92.3,85,92.8,79.4,92.8,72.2z"/>
		<polygon fill="#F7BE44" points="109.1,53.1 109.1,91.4 116.6,91.4 116.6,62.6 123.1,89.9 130.3,89.9 136.8,62.6 136.8,91.4 
			145.1,91.4 145.1,53.1 133.4,53.1 127.3,78.1 120.9,53.1 		"/>
		<rect x="151.4" y="53.1" fill="#F7BE44" width="8.4" height="38.3"/>
		<polygon fill="#F7BE44" points="166.7,53.1 166.7,91.5 184.4,91.5 184.4,84.1 175,84.1 175,53.1 		"/>
		<polygon fill="#F7BE44" points="188.2,53.1 188.2,91.5 205.9,91.5 205.9,84.1 196.5,84.1 196.5,53.1 		"/>
		<rect x="209.7" y="53.1" fill="#F7BE44" width="8.4" height="38.3"/>
		<path fill="#F7BE44" d="M238.4,85.3c-1.8,0-3.1-0.9-3.8-2.4c-0.9-1.8-1.2-4.5-1.2-10.7c0-6.2,0.3-8.9,1.2-10.7
			c0.8-1.5,1.9-2.4,3.8-2.4c1.9,0,3.1,0.9,3.8,2.4c0.9,1.8,1.2,4.5,1.2,10.7s-0.3,8.9-1.2,10.7C241.5,84.4,240.3,85.3,238.4,85.3z
			 M252.6,71.9c0-6.4-0.8-11.5-3.2-14.9c-2.3-3.1-6.1-4.6-10.8-4.6s-8.4,1.5-10.8,4.5c-2.5,3.2-3.4,8.1-3.4,15.4
			c0,6.5,0.8,11.8,3.2,15.2c2.3,3.1,6,4.6,10.7,4.6c4.7,0,8.6-1.5,10.9-4.5C251.6,84.4,252.6,79.2,252.6,71.9z"/>
		<polygon fill="#F7BE44" points="258.1,53.1 258.1,91.4 265.6,91.4 265.6,68.7 276.9,91.4 284.8,91.4 284.8,53.1 277.3,53.1 
			277.3,75.1 266.8,53.1 		"/>
	</g>
	<g>
		<polygon fill="#0DAAAC" points="103.8,119.2 103.8,133.7 106.7,133.7 106.7,127.5 112.3,127.5 112.3,133.7 115.2,133.7 
			115.2,119.2 112.3,119.2 112.3,125.3 106.7,125.3 106.7,119.2 		"/>
		<path fill="#0DAAAC" d="M174.6,119.2v8.1c0,4.5,1.9,6.3,5.6,6.3c3.8,0,5.8-1.8,5.8-6.2v-8.2h-3v8.4c0,2.6-1,3.8-2.8,3.8
			s-2.7-1.3-2.7-3.8v-8.4H174.6z"/>
		<path fill="#0DAAAC" d="M194.3,121.5c0.2-0.1,0.7-0.2,1.5-0.2c1.5,0,2.5,0.8,2.5,2.3c0,1.5-1,2.4-2.6,2.4h-1.3V121.5z
			 M191.4,133.7h3v-5.4h1c1.4,0,2,0.5,2.4,2.1c0.5,1.7,0.8,2.8,1,3.2h3.1c-0.3-0.5-0.7-2.3-1.2-3.8c-0.3-1.2-0.8-2.1-1.8-2.5v-0.1
			c1.2-0.5,2.4-1.7,2.4-3.8c0-1.5-0.5-2.5-1.2-3.1c-0.9-0.8-2.4-1.1-4.5-1.1c-1.7,0-3.1,0.2-4.1,0.3L191.4,133.7L191.4,133.7z"/>
		<path fill="#0DAAAC" d="M206.3,132.9c0.8,0.4,2.2,0.7,3.8,0.7c3.8,0,5.5-1.7,5.5-4.1c0-2.1-1.1-3.5-3.4-4.5
			c-1.9-0.8-2.8-1.2-2.8-2.1c0-0.8,0.7-1.5,2.1-1.5c1.4,0,2.3,0.5,2.8,0.7l0.7-2.3c-0.8-0.3-1.8-0.6-3.4-0.6c-3.4,0-5.2,1.5-5.2,4
			c0,2.2,1.4,3.6,3.7,4.5c1.8,0.7,2.5,1.2,2.5,2.1c0,1-0.8,1.6-2.4,1.6c-1.4,0-2.6-0.5-3.4-0.9L206.3,132.9z"/>
	</g>
	<polygon fill="#09899F" points="128.2,104.3 134.1,100.9 137.1,106.3 131.3,109.6 	"/>
	<polygon fill="#3DC6EC" points="123.4,102.6 134.9,96.3 137.5,100.6 125.9,106.8 	"/>
	
		<circle fill="none" stroke="#0DAAAC" stroke-width="6" stroke-linecap="round" stroke-linejoin="round" stroke-miterlimit="10" cx="145.1" cy="126.8" r="23"/>
	<path fill="#3DC6EC" d="M136.7,112.2l3.9,16.1c0,0,0.4,2.7,3.1,3.1c1.2,0.2,3.3-0.5,3.8-1.1c1.4-1.5,1.6-3,1.5-4.1
		c0.6-1.8,2.9-11.1,2.9-11.1s-7,7.4-6.6,7.5C145.7,122.8,136.7,112.2,136.7,112.2z"/>
	<path fill="#FFFFFF" d="M139.1,117.3l3.1,10.7l2.1,1.8c0,0-0.2-4.1-0.5-4.3C143.6,125.4,139.1,117.3,139.1,117.3z"/>
	
		<rect x="125.7" y="102" transform="matrix(0.5547 0.8321 -0.8321 0.5547 142.6031 -59.6913)" fill="#FFFFFF" width="2.8" height="2.8"/>
</g>
</svg>
