<?xml version="1.0" encoding="utf-8"?>
<!-- Generator: Adobe Illustrator 17.1.0, SVG Export Plug-In . SVG Version: 6.00 Build 0)  -->
<!DOCTYPE svg PUBLIC "-//W3C//DTD SVG 1.1//EN" "http://www.w3.org/Graphics/SVG/1.1/DTD/svg11.dtd">
<svg version="1.1" id="Layer_1" xmlns="http://www.w3.org/2000/svg" xmlns:xlink="http://www.w3.org/1999/xlink" x="0px" y="0px"
	 width="345px" height="296.9px" viewBox="0 0 345 296.9" enable-background="new 0 0 345 296.9" xml:space="preserve">
<g>
	<g>
		<g>
			<path fill="#1AB7B8" d="M329.7,102.5c-1.5,0-2.7,1.1-2.7,2.6v6c0,1.2,1.9,1.2,1.9,0v-5.5h0.4v15.3c0,1.6,2.5,1.5,2.5,0v-9h0.4v9
				c0,1.5,2.5,1.6,2.5,0v-15.3h0.4v5.5c0,1.2,1.9,1.2,1.9,0v-6c0-1.3-1.1-2.6-2.8-2.6H329.7z"/>
		</g>
		<g>
			<path fill="#1AB7B8" d="M332,101.9c1.2,0,2.2-0.9,2.2-2c0-1.1-1-1.9-2.2-1.9c-1.2,0-2.1,0.9-2.1,1.9
				C329.9,101,330.8,101.9,332,101.9z"/>
		</g>
	</g>
	<g>
		<path fill-rule="evenodd" clip-rule="evenodd" fill="#FFFFFF" d="M114.6,211.9v-4.5l3.6-6.4h-2.7l-1,2.6c-0.2,0.8-0.4,1.4-0.6,2.1
			h0c-0.2-0.7-0.4-1.3-0.6-2.1l-1-2.6h-2.8l3.4,6.4v4.4H114.6z"/>
		<path fill-rule="evenodd" clip-rule="evenodd" fill="#FFFFFF" d="M125.3,202.8c2,0,3.1,1.7,3.1,3.7c0,2.1-1.1,3.7-3,3.7
			c-1.9,0-3.1-1.5-3.1-3.7C122.2,204.4,123.4,202.8,125.3,202.8z M125.4,201c-3.5,0-5,2.3-5,5.6c0,3.1,1.4,5.4,4.8,5.4
			c3.5,0,5.1-2,5.1-5.6C130.2,203.4,128.9,201,125.4,201z"/>
		<path fill-rule="evenodd" clip-rule="evenodd" fill="#FFFFFF" d="M133,201.1v6.1c0,3.4,1.2,4.8,4.3,4.8c3.3,0,4.6-1.4,4.6-4.8
			v-6.1H140v6.3c0,1.9-0.9,2.8-2.6,2.8c-1.6,0-2.5-1-2.5-2.8v-6.3H133z"/>
		<path fill-rule="evenodd" clip-rule="evenodd" fill="#FFFFFF" d="M147.4,211.9v-3.3c0-1.8,0-3.3-0.1-4.7l0,0
			c0.6,1.3,1.4,2.7,2.1,3.8l2.7,4.2h2.2v-10.9h-1.9v3.2c0,1.6,0,3.1,0.2,4.5h0c-0.5-1.2-1.2-2.6-2-3.7l-2.6-4h-2.6v10.9H147.4z"/>
		<path fill-rule="evenodd" clip-rule="evenodd" fill="#FFFFFF" d="M167,206.1h-3.7v1.8h1.9v2.2c-0.2,0.1-0.7,0.2-1.3,0.2
			c-2.2,0-3.8-1.3-3.8-3.4c0-2.6,1.7-4.1,4-4.1c1.3,0,1.9,0.3,2.3,0.6l0.4-1.9c-0.4-0.2-1.3-0.5-2.7-0.5c-3.9,0-5.9,1.8-5.9,6
			c0,1.5,0.4,2.8,1.1,3.7c0.7,0.9,2.3,1.3,4.5,1.3c1.5,0,2.7-0.3,3.3-0.6V206.1z"/>
		<path fill-rule="evenodd" clip-rule="evenodd" fill="#FFFFFF" d="M177.2,202.9c0.2-0.1,0.7-0.1,1.4-0.1c1.7,0,2.7,0.6,2.7,1.5
			c0,1.1-1.1,1.7-3,1.7c-0.5,0-0.9,0-1.1-0.1V202.9z M175.4,211.9h1.9v-4.1c0.3,0,0.7,0.1,1.2,0.1c2,0,3.4-0.4,4.1-1.1
			c0.5-0.6,0.8-1.5,0.8-2.5c0-1-0.4-1.9-0.9-2.4c-0.6-0.6-1.7-0.9-3.9-0.9c-1.7,0-2.5,0.1-3.1,0.2V211.9z"/>
		<polygon fill-rule="evenodd" clip-rule="evenodd" fill="#FFFFFF" points="191.8,205.1 187.8,205.1 187.8,202.8 192.1,202.8 
			192.1,201 186,201 186,212 192.3,212 192.3,210.2 187.8,210.2 187.8,206.9 191.8,206.9 		"/>
		<path fill-rule="evenodd" clip-rule="evenodd" fill="#FFFFFF" d="M201.5,202.8c2,0,3.1,1.7,3.1,3.7c0,2.1-1.1,3.7-3,3.7
			c-1.9,0-3.1-1.5-3.1-3.7C198.4,204.4,199.6,202.8,201.5,202.8z M201.6,201c-3.5,0-5,2.3-5,5.6c0,3.1,1.4,5.4,4.8,5.4
			c3.5,0,5.1-2,5.1-5.6C206.4,203.4,205.1,201,201.6,201z"/>
		<path fill-rule="evenodd" clip-rule="evenodd" fill="#FFFFFF" d="M211,202.9c0.2-0.1,0.7-0.1,1.4-0.1c1.7,0,2.7,0.6,2.7,1.5
			c0,1.1-1.1,1.7-3,1.7c-0.5,0-0.9,0-1.2-0.1V202.9z M209.2,211.9h1.9v-4.1c0.3,0,0.7,0.1,1.2,0.1c2,0,3.4-0.4,4.1-1.1
			c0.5-0.6,0.8-1.5,0.8-2.5c0-1-0.4-1.9-0.9-2.4c-0.6-0.6-1.7-0.9-3.9-0.9c-1.7,0-2.5,0.1-3.1,0.2V211.9z"/>
		<polygon fill-rule="evenodd" clip-rule="evenodd" fill="#FFFFFF" points="219.8,212 225.9,212 225.9,210.2 221.6,210.2 
			221.6,201.1 219.8,201.1 		"/>
		<polygon fill-rule="evenodd" clip-rule="evenodd" fill="#FFFFFF" points="235.2,205.1 231.2,205.1 231.2,202.8 235.4,202.8 
			235.4,201 229.4,201 229.4,212 235.7,212 235.7,210.2 231.2,210.2 231.2,206.9 235.2,206.9 		"/>
	</g>
	<g>
		<g>
			<path fill="#00959F" d="M87.5,72.2c2.1,0,3.7-1.6,3.7-3.6c0-2-1.7-3.6-3.7-3.6c-2,0-3.7,1.6-3.7,3.6
				C83.8,70.6,85.5,72.2,87.5,72.2z"/>
		</g>
		<g>
			<path fill="#00959F" d="M87,94.8l0,12.5c0,2.2-3.5,2.2-3.5,0V94.8h-4.7l5-16.6H83l-2.9,9.5c-0.7,2.1-3.7,1.2-3-1l3.2-10.3
				c0.3-1.2,1.9-3.2,4.6-3.2h2.5h2.7c2.6,0,4.2,2.1,4.6,3.2l3.3,10.3c0.6,2.2-2.3,3.1-3,1L92,78.2h-0.8l5,16.6h-4.7v12.5
				c0,2.2-3.5,2.2-3.5,0V94.8H87z"/>
		</g>
	</g>
	<g>
		<g>
			<path fill="#00959F" d="M133,68.2c1.8,0,3.2-1.4,3.2-3.1c0-1.7-1.4-3.1-3.2-3.1c-1.8,0-3.2,1.4-3.2,3.1
				C129.8,66.8,131.3,68.2,133,68.2z"/>
		</g>
		<g>
			<path fill="#00959F" d="M132.6,87.8v10.8c0,1.9-3,1.9-3,0V87.8h-4l4.3-14.3h-0.7l-2.5,8.2c-0.6,1.8-3.1,1.1-2.6-0.9l2.8-8.9
				c0.3-1,1.6-2.8,3.9-2.8h2.1h2.3c2.3,0,3.6,1.8,4,2.8l2.8,8.9c0.6,1.9-1.9,2.7-2.6,0.8l-2.5-8.2h-0.7l4.3,14.3h-4v10.8
				c0,1.9-3,1.9-3,0V87.8H132.6z"/>
		</g>
	</g>
	<g>
		<g>
			<path fill="#1AB7B8" d="M192,43.5c1.6,0,2.8-1.2,2.8-2.8c0-1.5-1.3-2.8-2.8-2.8c-1.6,0-2.8,1.2-2.8,2.8
				C189.2,42.3,190.4,43.5,192,43.5z"/>
		</g>
		<g>
			<path fill="#1AB7B8" d="M191.6,61v9.7c0,1.7-2.7,1.7-2.7,0l0-9.7h-3.5l3.8-12.8h-0.6l-2.2,7.3c-0.5,1.6-2.8,0.9-2.3-0.8l2.5-8
				c0.3-0.9,1.4-2.5,3.5-2.5h1.9h2c2,0,3.2,1.6,3.5,2.5l2.5,8c0.5,1.7-1.7,2.4-2.3,0.8l-2.2-7.3h-0.6l3.8,12.8h-3.6v9.7
				c0,1.7-2.7,1.7-2.7,0V61H191.6z"/>
		</g>
	</g>
	<g>
		<g>
			<path fill="#00959F" d="M261,78.9c1.4,0,2.5-1.1,2.5-2.4c0-1.4-1.1-2.4-2.5-2.4s-2.5,1.1-2.5,2.4C258.5,77.8,259.6,78.9,261,78.9
				z"/>
		</g>
		<g>
			<path fill="#00959F" d="M260.6,94.3l0,8.5c0,1.5-2.3,1.5-2.3,0v-8.5h-3.1l3.3-11.3H258l-1.9,6.5c-0.5,1.4-2.4,0.8-2-0.7l2.2-7
				c0.2-0.8,1.3-2.2,3-2.2h1.6h1.8c1.8,0,2.8,1.4,3.1,2.2l2.2,7c0.4,1.5-1.5,2.1-2,0.7l-2-6.4h-0.6l3.3,11.3h-3.1v8.5
				c0,1.5-2.3,1.5-2.3,0v-8.5H260.6z"/>
		</g>
	</g>
	<g>
		<g>
			<path fill="#3DC6EC" d="M290.5,192.1c2.1,0,3.7-1.6,3.7-3.6c0-2-1.7-3.6-3.7-3.6c-2,0-3.7,1.6-3.7,3.6
				C286.8,190.6,288.5,192.1,290.5,192.1z"/>
		</g>
		<g>
			<path fill="#3DC6EC" d="M290,214.8l0,12.5c0,2.2-3.5,2.2-3.5,0v-12.5h-4.6l5-16.6H286l-2.9,9.5c-0.7,2.1-3.7,1.2-3-1l3.2-10.3
				c0.4-1.2,1.9-3.2,4.6-3.2h2.5h2.7c2.7,0,4.2,2.1,4.6,3.2l3.3,10.3c0.6,2.2-2.3,3.1-3,1l-2.9-9.4h-0.9l5,16.6h-4.7v12.5
				c0,2.2-3.5,2.2-3.5,0v-12.5H290z"/>
		</g>
	</g>
	<g>
		<g>
			<path fill="#00959F" d="M214,232.8c2,0,3.6-1.5,3.6-3.4c0-1.9-1.6-3.4-3.6-3.4c-1.9,0-3.5,1.5-3.5,3.4
				C210.5,231.3,212.1,232.8,214,232.8z"/>
		</g>
		<g>
			<path fill="#00959F" d="M213.5,254.5v11.9c0,2.1-3.3,2.1-3.3,0v-11.9h-4.4l4.7-15.8h-0.8l-2.8,9c-0.7,2-3.5,1.2-2.8-0.9l3.1-9.8
				c0.3-1.1,1.8-3.1,4.4-3.1h2.3h2.5c2.5,0,4,2,4.4,3.1l3.1,9.8c0.6,2.1-2.2,3-2.8,0.9l-2.8-9h-0.8l4.8,15.8h-4.4v11.9
				c0,2.1-3.3,2.1-3.3,0v-11.9H213.5z"/>
		</g>
	</g>
	<g>
		<g>
			<path fill="#00959F" d="M141,250.9c1.4,0,2.5-1.1,2.5-2.4c0-1.4-1.1-2.4-2.5-2.4c-1.4,0-2.5,1.1-2.5,2.4
				C138.5,249.8,139.6,250.9,141,250.9z"/>
		</g>
		<g>
			<path fill="#00959F" d="M140.6,266.3l0,8.5c0,1.5-2.3,1.5-2.3,0v-8.5h-3.1l3.3-11.3H138l-2,6.5c-0.5,1.4-2.4,0.8-2-0.7l2.2-7
				c0.2-0.8,1.3-2.2,3-2.2h1.6h1.8c1.8,0,2.8,1.4,3.1,2.2l2.2,7c0.4,1.5-1.5,2.1-2,0.7L144,255h-0.6l3.3,11.3h-3.1v8.5
				c0,1.5-2.3,1.5-2.3,0v-8.5H140.6z"/>
		</g>
	</g>
	<g>
		<g>
			<path fill="#3DC6EC" d="M68.5,193.1c2.1,0,3.7-1.6,3.7-3.6c0-2-1.7-3.6-3.7-3.6c-2,0-3.7,1.6-3.7,3.6
				C64.8,191.6,66.5,193.1,68.5,193.1z"/>
		</g>
		<g>
			<path fill="#3DC6EC" d="M68,215.8l0,12.5c0,2.2-3.5,2.2-3.5,0v-12.5h-4.6l5-16.6H64l-2.9,9.5c-0.7,2.1-3.7,1.2-3-1l3.2-10.3
				c0.4-1.2,1.9-3.2,4.6-3.2h2.5h2.7c2.6,0,4.2,2.1,4.6,3.2l3.3,10.3c0.6,2.2-2.3,3.1-3,1l-2.9-9.4h-0.8l5,16.6h-4.7v12.5
				c0,2.2-3.5,2.2-3.5,0v-12.5H68z"/>
		</g>
	</g>
	<g>
		<g>
			<path fill="#00959F" d="M19,170.9c1.4,0,2.5-1.1,2.5-2.4c0-1.4-1.1-2.4-2.5-2.4c-1.4,0-2.5,1.1-2.5,2.4
				C16.5,169.8,17.6,170.9,19,170.9z"/>
		</g>
		<g>
			<path fill="#00959F" d="M18.6,186.3l0,8.5c0,1.5-2.3,1.5-2.3,0v-8.5h-3.1l3.3-11.3H16l-1.9,6.5c-0.5,1.4-2.4,0.8-2-0.7l2.2-7
				c0.2-0.8,1.3-2.2,3-2.2h1.6h1.8c1.8,0,2.8,1.4,3.1,2.2l2.2,7c0.4,1.5-1.5,2.1-2,0.7l-2-6.4h-0.6l3.3,11.3h-3.1v8.5
				c0,1.5-2.3,1.5-2.3,0v-8.5H18.6z"/>
		</g>
	</g>
	<g>
		<g>
			<path fill="#1AB7B8" d="M22,88.9c1.4,0,2.5-1.1,2.5-2.4c0-1.4-1.1-2.4-2.5-2.4c-1.4,0-2.5,1.1-2.5,2.4
				C19.5,87.8,20.6,88.9,22,88.9z"/>
		</g>
		<g>
			<path fill="#1AB7B8" d="M21.6,104.3l0,8.5c0,1.5-2.3,1.5-2.3,0v-8.5h-3.1L19.5,93H19L17,99.5c-0.5,1.4-2.4,0.8-2-0.7l2.2-7
				c0.2-0.8,1.3-2.2,3-2.2h1.6h1.8c1.8,0,2.8,1.4,3.1,2.2l2.2,7c0.4,1.5-1.5,2.1-2,0.7L25,93h-0.6l3.3,11.3h-3.1v8.5
				c0,1.5-2.3,1.5-2.3,0v-8.5H21.6z"/>
		</g>
	</g>
	<g>
		<g>
			<path fill="#1AB7B8" d="M39.5,52.5c1.3,0,2.3-1,2.3-2.3c0-1.2-1-2.3-2.3-2.3c-1.3,0-2.3,1-2.3,2.3C37.2,51.5,38.2,52.5,39.5,52.5
				z"/>
		</g>
		<g>
			<path fill="#1AB7B8" d="M39.2,67l0,8c0,1.4-2.2,1.4-2.2,0v-8h-2.9l3.1-10.6h-0.5l-1.8,6c-0.4,1.3-2.3,0.8-1.8-0.6l2-6.5
				c0.2-0.8,1.2-2.1,2.8-2.1h1.5h1.7c1.6,0,2.6,1.3,2.8,2.1l2,6.5c0.4,1.4-1.4,2-1.8,0.6l-1.8-6h-0.5L44.9,67H42v8
				c0,1.4-2.2,1.4-2.2,0v-8H39.2z"/>
		</g>
	</g>
	<g>
		<g>
			<path fill="#00959F" d="M86.5,25.9c1.1,0,1.9-0.9,1.9-1.9s-0.9-2-1.9-2c-1.1,0-2,0.9-2,2S85.4,25.9,86.5,25.9z"/>
		</g>
		<g>
			<path fill="#00959F" d="M86.2,38.3l0,6.8c0,1.2-1.8,1.2-1.8,0v-6.8h-2.4l2.6-9h-0.4l-1.5,5.2c-0.4,1.1-1.9,0.7-1.6-0.5l1.7-5.6
				c0.2-0.6,1-1.8,2.4-1.8h1.3h1.4c1.4,0,2.2,1.1,2.4,1.8l1.7,5.6c0.3,1.2-1.2,1.7-1.6,0.5l-1.5-5.1h-0.4l2.6,9h-2.5v6.8
				c0,1.2-1.8,1.2-1.8,0v-6.8H86.2z"/>
		</g>
	</g>
	<g>
		<g>
			<path fill="#00959F" d="M148,27.9c1.4,0,2.5-1.1,2.5-2.4c0-1.4-1.1-2.4-2.5-2.4c-1.4,0-2.5,1.1-2.5,2.4
				C145.5,26.8,146.6,27.9,148,27.9z"/>
		</g>
		<g>
			<path fill="#00959F" d="M147.6,43.3l0,8.5c0,1.5-2.3,1.5-2.3,0v-8.5h-3.1l3.3-11.3H145l-2,6.5c-0.5,1.4-2.4,0.8-2-0.7l2.2-7
				c0.2-0.8,1.3-2.2,3-2.2h1.6h1.8c1.8,0,2.8,1.4,3.1,2.2l2.2,7c0.4,1.5-1.5,2.1-2,0.7L151,32h-0.6l3.3,11.3h-3.1v8.5
				c0,1.5-2.3,1.5-2.3,0v-8.5H147.6z"/>
		</g>
	</g>
	<g>
		<g>
			<path fill="#00959F" d="M180,260.9c1.4,0,2.5-1.1,2.5-2.4c0-1.4-1.1-2.4-2.5-2.4c-1.4,0-2.5,1.1-2.5,2.4
				C177.5,259.8,178.6,260.9,180,260.9z"/>
		</g>
		<g>
			<path fill="#00959F" d="M179.6,276.3l0,8.5c0,1.5-2.3,1.5-2.3,0v-8.5h-3.1l3.3-11.3H177l-2,6.5c-0.5,1.4-2.4,0.8-2-0.7l2.2-7
				c0.2-0.8,1.3-2.2,3-2.2h1.6h1.8c1.8,0,2.8,1.4,3.1,2.2l2.2,7c0.4,1.5-1.5,2.1-2,0.7L183,265h-0.6l3.3,11.3h-3.1v8.5
				c0,1.5-2.3,1.5-2.3,0v-8.5H179.6z"/>
		</g>
	</g>
	<g>
		<g>
			<path fill="#00959F" d="M216,18.9c1.4,0,2.5-1.1,2.5-2.4c0-1.4-1.1-2.4-2.5-2.4c-1.4,0-2.5,1.1-2.5,2.4
				C213.5,17.8,214.6,18.9,216,18.9z"/>
		</g>
		<g>
			<path fill="#00959F" d="M215.6,34.3l0,8.5c0,1.5-2.3,1.5-2.3,0v-8.5h-3.1l3.3-11.3H213l-2,6.5c-0.5,1.4-2.4,0.8-2-0.7l2.2-7
				c0.2-0.8,1.3-2.2,3-2.2h1.6h1.8c1.8,0,2.8,1.4,3.1,2.2l2.2,7c0.4,1.5-1.5,2.1-2,0.7L219,23h-0.6l3.3,11.3h-3.1v8.5
				c0,1.5-2.3,1.5-2.3,0v-8.5H215.6z"/>
		</g>
	</g>
	<g>
		<g>
			<path fill="#00959F" d="M244,42.9c1.4,0,2.5-1.1,2.5-2.4c0-1.3-1.1-2.4-2.5-2.4c-1.4,0-2.5,1.1-2.5,2.4
				C241.5,41.8,242.6,42.9,244,42.9z"/>
		</g>
		<g>
			<path fill="#00959F" d="M243.6,58.3l0,8.5c0,1.5-2.3,1.5-2.3,0v-8.5h-3.1l3.3-11.3H241l-2,6.5c-0.5,1.4-2.4,0.8-2-0.7l2.2-7
				c0.2-0.8,1.3-2.2,3-2.2h1.6h1.8c1.8,0,2.8,1.4,3.1,2.2l2.2,7c0.4,1.5-1.5,2.1-2,0.7L247,47h-0.6l3.3,11.3h-3.1v8.5
				c0,1.5-2.3,1.5-2.3,0v-8.5H243.6z"/>
		</g>
	</g>
	<g>
		<g>
			<path fill="#00959F" d="M300,67.9c1.4,0,2.5-1.1,2.5-2.4c0-1.4-1.1-2.4-2.5-2.4s-2.5,1.1-2.5,2.4C297.5,66.8,298.6,67.9,300,67.9
				z"/>
		</g>
		<g>
			<path fill="#00959F" d="M299.6,83.3l0,8.5c0,1.5-2.3,1.5-2.3,0v-8.5h-3.1l3.3-11.3H297l-1.9,6.5c-0.5,1.4-2.4,0.8-2-0.7l2.2-7
				c0.2-0.8,1.3-2.2,3-2.2h1.6h1.8c1.8,0,2.8,1.4,3.1,2.2l2.2,7c0.4,1.5-1.5,2.1-2,0.7l-2-6.4h-0.6l3.3,11.3h-3.1v8.5
				c0,1.5-2.3,1.5-2.3,0v-8.5H299.6z"/>
		</g>
	</g>
	<g>
		<g>
			<path fill="#00959F" d="M312,105.9c1.4,0,2.5-1.1,2.5-2.4c0-1.4-1.1-2.4-2.5-2.4s-2.5,1.1-2.5,2.4
				C309.5,104.8,310.6,105.9,312,105.9z"/>
		</g>
		<g>
			<path fill="#00959F" d="M311.6,121.3l0,8.5c0,1.5-2.3,1.5-2.3,0v-8.5h-3.1l3.3-11.3H309l-1.9,6.5c-0.5,1.4-2.4,0.8-2-0.7l2.2-7
				c0.2-0.8,1.3-2.2,3-2.2h1.6h1.8c1.8,0,2.8,1.4,3.1,2.2l2.2,7c0.4,1.5-1.5,2.1-2,0.7l-2-6.4h-0.6l3.3,11.3h-3.1v8.5
				c0,1.5-2.3,1.5-2.3,0v-8.5H311.6z"/>
		</g>
	</g>
	<g>
		<g>
			<path fill="#00959F" d="M321.5,183.5c1.9,0,3.4-1.5,3.4-3.2c0-1.8-1.5-3.2-3.4-3.2c-1.9,0-3.4,1.4-3.4,3.2
				C318.1,182,319.7,183.5,321.5,183.5z"/>
		</g>
		<g>
			<path fill="#00959F" d="M321,204.1l0,11.4c0,2-3.2,2-3.2,0v-11.4h-4.2l4.5-15.1h-0.7l-2.6,8.6c-0.6,1.9-3.3,1.1-2.7-0.9l2.9-9.3
				c0.3-1.1,1.7-3,4.1-3h2.2h2.4c2.4,0,3.8,1.9,4.2,3l3,9.3c0.6,2-2.1,2.8-2.7,0.9l-2.6-8.6h-0.8l4.6,15.1h-4.2v11.4
				c0,2-3.2,2-3.2,0v-11.4H321z"/>
		</g>
	</g>
	<g>
		<g>
			<path fill="#00959F" d="M295,239.9c1.4,0,2.5-1.1,2.5-2.4c0-1.4-1.1-2.4-2.5-2.4s-2.5,1.1-2.5,2.4
				C292.5,238.8,293.6,239.9,295,239.9z"/>
		</g>
		<g>
			<path fill="#00959F" d="M294.6,255.3l0,8.5c0,1.5-2.3,1.5-2.3,0v-8.5h-3.1l3.3-11.3H292l-1.9,6.5c-0.5,1.4-2.4,0.8-2-0.7l2.2-7
				c0.2-0.8,1.3-2.2,3-2.2h1.6h1.8c1.8,0,2.8,1.4,3.1,2.2l2.2,7c0.4,1.5-1.5,2.1-2,0.7l-2-6.4h-0.6l3.3,11.3h-3.1v8.5
				c0,1.5-2.3,1.5-2.3,0v-8.5H294.6z"/>
		</g>
	</g>
	<g>
		<g>
			<path fill="#1AB7B8" d="M266,224.9c1.4,0,2.5-1.1,2.5-2.4c0-1.4-1.1-2.4-2.5-2.4s-2.5,1.1-2.5,2.4
				C263.5,223.8,264.6,224.9,266,224.9z"/>
		</g>
		<g>
			<path fill="#1AB7B8" d="M265.6,240.3l0,8.5c0,1.5-2.3,1.5-2.3,0v-8.5h-3.1l3.3-11.3H263l-1.9,6.5c-0.5,1.4-2.4,0.8-2-0.7l2.2-7
				c0.2-0.8,1.3-2.2,3-2.2h1.6h1.8c1.8,0,2.8,1.4,3.1,2.2l2.2,7c0.4,1.5-1.5,2.1-2,0.7l-2-6.4h-0.6l3.3,11.3h-3.1v8.5
				c0,1.5-2.3,1.5-2.3,0v-8.5H265.6z"/>
		</g>
	</g>
	<g>
		<g>
			<path fill="#00959F" d="M8,114.6c1,0,1.8-0.8,1.8-1.8c0-1-0.8-1.8-1.8-1.8s-1.8,0.8-1.8,1.8C6.2,113.8,7,114.6,8,114.6z"/>
		</g>
		<g>
			<path fill="#00959F" d="M7.8,125.9v6.2c0,1.1-1.7,1.1-1.7,0v-6.2H3.9l2.4-8.3H5.9l-1.4,4.7c-0.3,1-1.7,0.6-1.4-0.5l1.5-5.1
				c0.2-0.6,0.9-1.6,2.2-1.6h1.2h1.3c1.3,0,2,1,2.2,1.6l1.6,5.1c0.3,1.1-1.1,1.6-1.4,0.5l-1.4-4.7H9.7l2.4,8.3H9.9v6.2
				c0,1.1-1.7,1.1-1.7,0v-6.2H7.8z"/>
		</g>
	</g>
	<g>
		<g>
			<path fill="#00959F" d="M77.5,251.9c1.1,0,1.9-0.9,1.9-1.9s-0.9-1.9-1.9-1.9c-1.1,0-2,0.9-2,1.9S76.4,251.9,77.5,251.9z"/>
		</g>
		<g>
			<path fill="#00959F" d="M77.2,264.3l0,6.8c0,1.2-1.8,1.2-1.8,0v-6.8h-2.4l2.6-9h-0.4l-1.5,5.2c-0.4,1.1-1.9,0.7-1.6-0.5l1.7-5.6
				c0.2-0.6,1-1.8,2.4-1.8h1.3h1.4c1.4,0,2.2,1.2,2.4,1.8l1.7,5.6c0.3,1.2-1.2,1.7-1.6,0.5l-1.5-5.1h-0.4l2.6,9h-2.5v6.8
				c0,1.2-1.8,1.2-1.8,0v-6.8H77.2z"/>
		</g>
	</g>
	<g>
		<g>
			<path fill="#00959F" d="M320.5,240.9c1.1,0,1.9-0.9,1.9-1.9s-0.9-1.9-1.9-1.9c-1.1,0-2,0.9-2,1.9S319.4,240.9,320.5,240.9z"/>
		</g>
		<g>
			<path fill="#00959F" d="M320.2,253.3l0,6.8c0,1.2-1.8,1.2-1.8,0v-6.8H316l2.6-9h-0.4l-1.5,5.2c-0.4,1.1-1.9,0.7-1.6-0.5l1.7-5.6
				c0.2-0.6,1-1.8,2.4-1.8h1.3h1.4c1.4,0,2.2,1.2,2.4,1.8l1.7,5.6c0.3,1.2-1.2,1.7-1.6,0.5l-1.5-5.1h-0.4l2.6,9h-2.4v6.8
				c0,1.2-1.8,1.2-1.8,0v-6.8H320.2z"/>
		</g>
	</g>
	<g>
		<g>
			<path fill="#3DC6EC" d="M103.6,57.4c-2.6,0-4.6,1.9-4.6,4.2v10.1c0,1.9,3.2,1.9,3.2,0v-9.2h0.8v25.5c0,2.6,4.2,2.5,4.2,0V73.1
				h0.7v14.9c0,2.5,4.2,2.6,4.2,0V62.5h0.7v9.2c0,2,3.2,2,3.2,0v-10c0-2.2-1.9-4.3-4.7-4.3H103.6z"/>
		</g>
		<g>
			<path fill="#3DC6EC" d="M107.5,56.5c2,0,3.7-1.5,3.7-3.2c0-1.8-1.6-3.3-3.7-3.3c-2,0-3.7,1.5-3.7,3.3
				C103.8,55,105.5,56.5,107.5,56.5z"/>
		</g>
	</g>
	<g>
		<g>
			<path fill="#00959F" d="M166.6,37.6c-1.7,0-3.1,1.4-3.1,3.2v7.5c0,1.5,2.1,1.5,2.1,0v-6.9h0.5v19.1c0,2,2.9,1.9,2.9,0V49.3h0.5
				v11.2c0,1.9,2.9,2,2.9,0V41.4h0.5v6.9c0,1.5,2.1,1.5,2.1,0v-7.5c0-1.6-1.3-3.2-3.2-3.2H166.6z"/>
		</g>
		<g>
			<path fill="#00959F" d="M169.2,36.9c1.4,0,2.5-1.1,2.5-2.4c0-1.3-1.1-2.4-2.5-2.4c-1.4,0-2.5,1.1-2.5,2.4
				C166.8,35.8,167.9,36.9,169.2,36.9z"/>
		</g>
	</g>
	<g>
		<g>
			<path fill="#3DC6EC" d="M225.9,67.2c-2.7,0-4.9,2.1-4.9,4.7v11.1c0,2.2,3.4,2.2,3.4,0V72.8h0.8v28.1c0,2.9,4.5,2.8,4.5,0V84.4
				h0.8v16.4c0,2.8,4.5,2.9,4.5,0V72.8h0.8v10.1c0,2.2,3.3,2.2,3.3,0v-11c0-2.4-2-4.8-5-4.8H225.9z"/>
		</g>
		<g>
			<path fill="#3DC6EC" d="M230,66.2c2.1,0,3.9-1.6,3.9-3.6c0-2-1.7-3.6-3.9-3.6s-3.9,1.6-3.9,3.6C226.1,64.6,227.9,66.2,230,66.2z"
				/>
		</g>
	</g>
	<g>
		<g>
			<path fill="#3DC6EC" d="M111.9,240.2c-2.7,0-4.9,2.1-4.9,4.7v11.1c0,2.1,3.4,2.1,3.4,0v-10.1h0.8v28.1c0,2.9,4.5,2.8,4.5,0v-16.4
				h0.8v16.4c0,2.8,4.5,2.9,4.5,0v-28.1h0.8v10.1c0,2.2,3.3,2.2,3.3,0v-11c0-2.4-2-4.8-5-4.8H111.9z"/>
		</g>
		<g>
			<path fill="#3DC6EC" d="M116,239.2c2.1,0,3.9-1.6,3.9-3.6s-1.7-3.6-3.9-3.6s-3.9,1.6-3.9,3.6S113.8,239.2,116,239.2z"/>
		</g>
	</g>
	<g>
		<g>
			<path fill="#1AB7B8" d="M282.1,82.1c-2.3,0-4.1,1.8-4.1,4v9.6c0,1.9,2.8,1.9,2.8,0v-8.8h0.7v24.2c0,2.5,3.7,2.4,3.7,0V97h0.6
				v14.2c0,2.4,3.7,2.5,3.7,0V86.9h0.6v8.8c0,1.9,2.8,1.9,2.8,0v-9.5c0-2.1-1.6-4.1-4.1-4.1L282.1,82.1z"/>
		</g>
		<g>
			<path fill="#1AB7B8" d="M285.5,81.2c1.8,0,3.2-1.4,3.2-3.1c0-1.7-1.5-3.1-3.2-3.1s-3.2,1.4-3.2,3.1
				C282.3,79.8,283.7,81.2,285.5,81.2z"/>
		</g>
	</g>
	<g>
		<g>
			<path fill="#00959F" d="M238.6,232.6c-1.7,0-3.1,1.4-3.1,3.2v7.5c0,1.5,2.1,1.5,2.1,0v-6.9h0.5v19.1c0,2,2.9,1.9,2.9,0v-11.2h0.5
				v11.2c0,1.9,2.9,2,2.9,0v-19.1h0.5v6.9c0,1.5,2.1,1.5,2.1,0v-7.5c0-1.6-1.3-3.2-3.2-3.2H238.6z"/>
		</g>
		<g>
			<path fill="#00959F" d="M241.2,231.9c1.4,0,2.5-1.1,2.5-2.4c0-1.4-1.1-2.4-2.5-2.4c-1.4,0-2.5,1.1-2.5,2.4
				C238.8,230.8,239.9,231.9,241.2,231.9z"/>
		</g>
	</g>
	<g>
		<g>
			<path fill="#1AB7B8" d="M159.1,235.1c-2.3,0-4.1,1.8-4.1,4.1v9.6c0,1.9,2.8,1.9,2.8,0v-8.8h0.7v24.2c0,2.5,3.7,2.4,3.7,0V250h0.6
				v14.2c0,2.4,3.7,2.5,3.7,0v-24.2h0.6v8.8c0,1.9,2.8,1.9,2.8,0v-9.5c0-2.1-1.6-4.1-4.1-4.1L159.1,235.1z"/>
		</g>
		<g>
			<path fill="#1AB7B8" d="M162.5,234.2c1.8,0,3.2-1.4,3.2-3.1c0-1.7-1.4-3.1-3.2-3.1s-3.2,1.4-3.2,3.1
				C159.3,232.8,160.7,234.2,162.5,234.2z"/>
		</g>
	</g>
	<g>
		<g>
			<path fill="#00959F" d="M84.6,219.6c-1.7,0-3.1,1.4-3.1,3.2v7.5c0,1.5,2.2,1.5,2.2,0v-6.9h0.5v19.1c0,2,2.9,1.9,2.9,0v-11.2h0.5
				v11.2c0,1.9,2.9,2,2.9,0v-19.1h0.5v6.9c0,1.5,2.1,1.5,2.1,0v-7.5c0-1.6-1.3-3.2-3.2-3.2H84.6z"/>
		</g>
		<g>
			<path fill="#00959F" d="M87.2,218.9c1.4,0,2.5-1.1,2.5-2.4c0-1.4-1.1-2.4-2.5-2.4c-1.4,0-2.5,1.1-2.5,2.4
				C84.8,217.8,85.9,218.9,87.2,218.9z"/>
		</g>
	</g>
	<g>
		<g>
			<path fill="#00959F" d="M45.9,102.2c-2.7,0-4.9,2.1-4.9,4.7v11.1c0,2.2,3.4,2.2,3.4,0v-10.1h0.8v28.1c0,2.9,4.5,2.8,4.5,0v-16.4
				h0.8v16.4c0,2.8,4.5,2.9,4.5,0v-28.1h0.8v10.1c0,2.2,3.3,2.2,3.3,0v-11c0-2.4-2-4.8-5-4.8H45.9z"/>
		</g>
		<g>
			<path fill="#00959F" d="M50,101.2c2.1,0,3.9-1.6,3.9-3.6c0-2-1.7-3.6-3.9-3.6c-2.1,0-3.9,1.6-3.9,3.6
				C46.1,99.6,47.8,101.2,50,101.2z"/>
		</g>
	</g>
	<g>
		<g>
			<path fill="#3DC6EC" d="M63.6,64.6c-1.7,0-3.1,1.4-3.1,3.2v7.5c0,1.5,2.1,1.5,2.1,0v-6.9h0.5v19.1c0,2,2.9,1.9,2.9,0V76.3h0.5
				v11.2c0,1.9,2.9,2,2.9,0V68.4h0.5v6.9c0,1.5,2.1,1.5,2.1,0v-7.5c0-1.6-1.3-3.2-3.2-3.2H63.6z"/>
		</g>
		<g>
			<path fill="#3DC6EC" d="M66.2,63.9c1.4,0,2.5-1.1,2.5-2.4c0-1.3-1.1-2.4-2.5-2.4c-1.4,0-2.5,1.1-2.5,2.4
				C63.8,62.8,64.9,63.9,66.2,63.9z"/>
		</g>
	</g>
	<g>
		<g>
			<path fill="#00959F" d="M115.6,17.6c-1.7,0-3.1,1.4-3.1,3.2v7.5c0,1.5,2.2,1.5,2.2,0v-6.9h0.5v19.1c0,2,2.9,1.9,2.9,0V29.3h0.5
				v11.2c0,1.9,2.9,2,2.9,0V21.4h0.5v6.9c0,1.5,2.1,1.5,2.1,0v-7.5c0-1.6-1.3-3.2-3.2-3.2H115.6z"/>
		</g>
		<g>
			<path fill="#00959F" d="M118.2,16.9c1.4,0,2.5-1.1,2.5-2.4c0-1.3-1.1-2.4-2.5-2.4c-1.4,0-2.5,1.1-2.5,2.4
				C115.8,15.8,116.9,16.9,118.2,16.9z"/>
		</g>
	</g>
	<g>
		<g>
			<path fill="#1AB7B8" d="M180.6,5.6c-1.7,0-3.1,1.4-3.1,3.2v7.5c0,1.5,2.1,1.5,2.1,0V9.4h0.5v19.1c0,2,2.9,1.9,2.9,0V17.3h0.5
				v11.2c0,1.9,2.9,2,2.9,0V9.4h0.5v6.9c0,1.5,2.1,1.5,2.1,0V8.8c0-1.6-1.3-3.2-3.2-3.2H180.6z"/>
		</g>
		<g>
			<path fill="#1AB7B8" d="M183.2,4.9c1.4,0,2.5-1.1,2.5-2.4c0-1.4-1.1-2.4-2.5-2.4c-1.4,0-2.5,1.1-2.5,2.4
				C180.8,3.8,181.9,4.9,183.2,4.9z"/>
		</g>
	</g>
	<g>
		<g>
			<path fill="#00959F" d="M197.7,273.5c-1.5,0-2.7,1.1-2.7,2.6v6c0,1.2,1.9,1.2,1.9,0v-5.5h0.4v15.3c0,1.6,2.5,1.5,2.5,0v-9h0.4v9
				c0,1.5,2.5,1.6,2.5,0v-15.3h0.4v5.5c0,1.2,1.9,1.2,1.9,0v-6c0-1.3-1.1-2.6-2.8-2.6H197.7z"/>
		</g>
		<g>
			<path fill="#00959F" d="M200,272.9c1.2,0,2.1-0.9,2.1-2c0-1.1-1-2-2.1-2c-1.2,0-2.1,0.9-2.1,2C197.9,272,198.8,272.9,200,272.9z"
				/>
		</g>
	</g>
	<g>
		<g>
			<path fill="#00959F" d="M94.7,268.5c-1.5,0-2.7,1.1-2.7,2.6v6c0,1.2,1.9,1.2,1.9,0v-5.5h0.4v15.3c0,1.6,2.5,1.5,2.5,0v-9h0.4v9
				c0,1.5,2.5,1.6,2.5,0v-15.3h0.4v5.5c0,1.2,1.8,1.2,1.8,0v-6c0-1.3-1.1-2.6-2.8-2.6H94.7z"/>
		</g>
		<g>
			<path fill="#00959F" d="M97,267.9c1.2,0,2.2-0.9,2.2-2c0-1.1-1-2-2.2-2c-1.2,0-2.1,0.9-2.1,2C94.8,267,95.8,267.9,97,267.9z"/>
		</g>
	</g>
	<g>
		<g>
			<path fill="#00959F" d="M235.7,7.5c-1.5,0-2.7,1.1-2.7,2.6v6c0,1.2,1.9,1.2,1.9,0v-5.5h0.4v15.3c0,1.6,2.5,1.5,2.5,0v-9h0.4v9
				c0,1.5,2.5,1.6,2.5,0V10.5h0.4V16c0,1.2,1.9,1.2,1.9,0v-6c0-1.3-1.1-2.6-2.8-2.6H235.7z"/>
		</g>
		<g>
			<path fill="#00959F" d="M238,6.9c1.2,0,2.1-0.9,2.1-2S239.2,3,238,3c-1.2,0-2.1,0.9-2.1,1.9S236.8,6.9,238,6.9z"/>
		</g>
	</g>
	<g>
		<g>
			<path fill="#00959F" d="M273.5,30.3c-2,0-3.5,1.6-3.5,3.6v8.6c0,1.7,2.4,1.7,2.4,0v-7.8h0.6v21.7c0,2.2,3.2,2.2,3.2,0V43.7h0.5
				v12.7c0,2.2,3.2,2.2,3.2,0V34.7h0.6v7.8c0,1.7,2.4,1.7,2.4,0V34c0-1.8-1.4-3.7-3.6-3.7L273.5,30.3z"/>
		</g>
		<g>
			<path fill="#00959F" d="M276.5,29.5c1.6,0,2.8-1.2,2.8-2.8c0-1.5-1.2-2.8-2.8-2.8c-1.5,0-2.8,1.2-2.8,2.8
				C273.7,28.3,275,29.5,276.5,29.5z"/>
		</g>
	</g>
	<g>
		<g>
			<path fill="#00959F" d="M324.5,45.1c-1.4,0-2.5,1-2.5,2.3V53c0,1.1,1.7,1.1,1.7,0v-5.1h0.4v14c0,1.4,2.2,1.4,2.2,0v-8.2h0.4v8.2
				c0,1.4,2.2,1.4,2.2,0v-14h0.4V53c0,1.1,1.7,1.1,1.7,0v-5.5c0-1.2-1-2.4-2.5-2.4L324.5,45.1z"/>
		</g>
		<g>
			<path fill="#00959F" d="M326.5,44.6c1.1,0,1.9-0.8,1.9-1.8c0-1-0.9-1.8-1.9-1.8c-1.1,0-1.9,0.8-1.9,1.8
				C324.6,43.8,325.4,44.6,326.5,44.6z"/>
		</g>
	</g>
	<g>
		<g>
			<path fill="#00959F" d="M26.5,230.1c-1.4,0-2.5,1.1-2.5,2.3v5.5c0,1.1,1.7,1.1,1.7,0v-5.1h0.4v14c0,1.4,2.2,1.4,2.2,0v-8.2h0.4
				v8.2c0,1.4,2.2,1.4,2.2,0v-14h0.4v5.1c0,1.1,1.7,1.1,1.7,0v-5.5c0-1.2-1-2.4-2.5-2.4L26.5,230.1z"/>
		</g>
		<g>
			<path fill="#00959F" d="M28.5,229.6c1.1,0,1.9-0.8,1.9-1.8c0-1-0.9-1.8-1.9-1.8c-1.1,0-1.9,0.8-1.9,1.8
				C26.6,228.8,27.4,229.6,28.5,229.6z"/>
		</g>
	</g>
	<g>
		<g>
			<path fill="#00959F" d="M2.5,202.1c-1.4,0-2.5,1.1-2.5,2.3v5.5c0,1.1,1.7,1.1,1.7,0v-5.1h0.4v14c0,1.4,2.2,1.4,2.2,0v-8.2h0.4
				v8.2c0,1.4,2.2,1.4,2.2,0v-14h0.4v5.1c0,1.1,1.7,1.1,1.7,0v-5.5c0-1.2-1-2.4-2.5-2.4L2.5,202.1z"/>
		</g>
		<g>
			<path fill="#00959F" d="M4.5,201.6c1.1,0,1.9-0.8,1.9-1.8c0-1-0.9-1.8-1.9-1.8c-1.1,0-1.9,0.8-1.9,1.8
				C2.6,200.8,3.4,201.6,4.5,201.6z"/>
		</g>
	</g>
	<g>
		<g>
			<path fill="#00959F" d="M295.5,34.1c-1.4,0-2.5,1-2.5,2.3V42c0,1.1,1.7,1.1,1.7,0v-5.1h0.4v14c0,1.4,2.2,1.4,2.2,0v-8.2h0.4v8.2
				c0,1.4,2.2,1.4,2.2,0v-14h0.4V42c0,1.1,1.7,1.1,1.7,0v-5.5c0-1.2-1-2.4-2.5-2.4L295.5,34.1z"/>
		</g>
		<g>
			<path fill="#00959F" d="M297.5,33.6c1.1,0,1.9-0.8,1.9-1.8c0-1-0.9-1.8-1.9-1.8c-1.1,0-1.9,0.8-1.9,1.8
				C295.6,32.8,296.4,33.6,297.5,33.6z"/>
		</g>
	</g>
	<g>
		<g>
			<path fill="#3DC6EC" d="M253.5,258.1c-1.4,0-2.5,1.1-2.5,2.4v5.5c0,1.1,1.7,1.1,1.7,0v-5.1h0.4v14c0,1.4,2.2,1.4,2.2,0v-8.2h0.4
				v8.2c0,1.4,2.2,1.4,2.2,0v-14h0.4v5.1c0,1.1,1.7,1.1,1.7,0v-5.5c0-1.2-1-2.4-2.5-2.4L253.5,258.1z"/>
		</g>
		<g>
			<path fill="#3DC6EC" d="M255.5,257.6c1.1,0,1.9-0.8,1.9-1.8c0-1-0.9-1.8-1.9-1.8c-1.1,0-1.9,0.8-1.9,1.8
				C253.6,256.8,254.4,257.6,255.5,257.6z"/>
		</g>
	</g>
	<g>
		<g>
			<path fill="#1AB7B8" d="M337.7,209.5c-1.5,0-2.7,1.1-2.7,2.5v6c0,1.2,1.9,1.2,1.9,0v-5.5h0.4v15.3c0,1.6,2.5,1.5,2.5,0v-9h0.4v9
				c0,1.5,2.5,1.6,2.5,0v-15.3h0.4v5.5c0,1.2,1.9,1.2,1.9,0v-6c0-1.3-1.1-2.6-2.8-2.6H337.7z"/>
		</g>
		<g>
			<path fill="#1AB7B8" d="M340,208.9c1.2,0,2.2-0.9,2.2-2s-1-1.9-2.2-1.9c-1.2,0-2.1,0.9-2.1,1.9S338.8,208.9,340,208.9z"/>
		</g>
	</g>
	<g>
		<g>
			<path fill="#00959F" d="M232.6,272.6c-1.7,0-3.1,1.4-3.1,3.2v7.5c0,1.5,2.1,1.5,2.1,0v-6.9h0.5v19.1c0,2,2.9,1.9,2.9,0v-11.2h0.5
				v11.2c0,1.9,2.9,2,2.9,0v-19.1h0.5v6.9c0,1.5,2.1,1.5,2.1,0v-7.5c0-1.6-1.3-3.2-3.2-3.2H232.6z"/>
		</g>
		<g>
			<path fill="#00959F" d="M235.2,271.9c1.4,0,2.5-1.1,2.5-2.4c0-1.4-1.1-2.4-2.5-2.4c-1.4,0-2.5,1.1-2.5,2.4
				C232.8,270.8,233.9,271.9,235.2,271.9z"/>
		</g>
	</g>
	<g>
		<g>
			<path fill="#00959F" d="M41.6,203.6c-1.7,0-3.1,1.4-3.1,3.2v7.5c0,1.5,2.1,1.5,2.1,0v-6.9h0.5v19.1c0,2,2.9,1.9,2.9,0v-11.2h0.5
				v11.2c0,1.9,2.9,2,2.9,0v-19.1h0.5v6.9c0,1.5,2.1,1.5,2.1,0v-7.5c0-1.6-1.3-3.2-3.2-3.2H41.6z"/>
		</g>
		<g>
			<path fill="#00959F" d="M44.2,202.9c1.4,0,2.5-1.1,2.5-2.4c0-1.4-1.1-2.4-2.5-2.4c-1.4,0-2.5,1.1-2.5,2.4
				C41.8,201.8,42.9,202.9,44.2,202.9z"/>
		</g>
	</g>
	<g>
		<g>
			<path fill="#00959F" d="M55.6,22.6c-1.7,0-3.1,1.4-3.1,3.2v7.5c0,1.5,2.1,1.5,2.1,0v-6.9h0.5v19.1c0,2,2.9,1.9,2.9,0V34.3h0.5
				v11.2c0,1.9,2.9,2,2.9,0V26.4h0.5v6.9c0,1.5,2.1,1.5,2.1,0v-7.5c0-1.6-1.3-3.2-3.2-3.2H55.6z"/>
		</g>
		<g>
			<path fill="#00959F" d="M58.2,21.9c1.4,0,2.5-1.1,2.5-2.4c0-1.4-1.1-2.4-2.5-2.4c-1.4,0-2.5,1.1-2.5,2.4
				C55.8,20.8,56.9,21.9,58.2,21.9z"/>
		</g>
	</g>
	<g>
		<g>
			<path fill="#3DC6EC" d="M305.6,144.6c-1.7,0-3.1,1.4-3.1,3.2v7.5c0,1.5,2.2,1.5,2.2,0v-6.9h0.5v19.1c0,2,2.9,1.9,2.9,0v-11.2h0.5
				v11.2c0,1.9,2.9,2,2.9,0v-19.1h0.5v6.9c0,1.5,2.1,1.5,2.1,0v-7.5c0-1.6-1.3-3.2-3.2-3.2H305.6z"/>
		</g>
		<g>
			<path fill="#3DC6EC" d="M308.2,143.9c1.4,0,2.5-1.1,2.5-2.4c0-1.4-1.1-2.4-2.5-2.4c-1.4,0-2.5,1.1-2.5,2.4
				C305.8,142.8,306.9,143.9,308.2,143.9z"/>
		</g>
	</g>
	<g>
		<g>
			<path fill="#00959F" d="M36.6,148.2c-2.6,0-4.6,2.1-4.6,4.7v11.1c0,2.2,3.2,2.2,3.2,0v-10.1h0.8v28.1c0,2.9,4.2,2.8,4.2,0v-16.4
				h0.7v16.4c0,2.8,4.2,2.9,4.2,0v-28.1h0.7v10.1c0,2.2,3.2,2.2,3.2,0v-11c0-2.4-1.9-4.8-4.7-4.8H36.6z"/>
		</g>
		<g>
			<path fill="#00959F" d="M40.5,147.2c2,0,3.6-1.6,3.6-3.6s-1.6-3.6-3.6-3.6c-2,0-3.7,1.6-3.7,3.6S38.5,147.2,40.5,147.2z"/>
		</g>
	</g>
	<g>
		<g>
			<path fill="#00959F" d="M334,147.2c-1.7,0-3,1.3-3,3v7.1c0,1.4,2,1.4,2,0v-6.4h0.5v17.9c0,1.8,2.7,1.8,2.7,0v-10.5h0.5v10.5
				c0,1.8,2.8,1.8,2.8,0v-17.9h0.5v6.4c0,1.4,2,1.4,2,0v-7c0-1.5-1.2-3-3-3H334z"/>
		</g>
		<g>
			<path fill="#00959F" d="M336.5,146.6c1.3,0,2.4-1,2.4-2.3s-1.1-2.3-2.4-2.3c-1.3,0-2.4,1-2.4,2.3S335.2,146.6,336.5,146.6z"/>
		</g>
	</g>
	<g>
		<polygon fill-rule="evenodd" clip-rule="evenodd" fill="#F7C044" points="84.9,173.9 84.9,124.3 77.4,124.3 66.1,127.7 
			66.1,136.7 66.6,136.7 74.1,134.2 74.1,173.9 		"/>
		<path fill-rule="evenodd" clip-rule="evenodd" fill="#F7C044" d="M96.9,152.9h4.5c1.7,0,3.8,0,5.3,0.8c1.6,0.9,2.3,2.6,2.3,5.2
			c0,4.3-2,6-6.7,6c-4.1,0-8.3-1.4-8.3-1.4h-0.5v9c0,0,3.6,1.3,9.3,1.3c12,0,18-5.7,18-14.5c0-6.9-3.6-10.9-9.3-11.8
			c4.6-1.1,8.3-4.4,8.3-11.2c0-8.1-5.6-12.3-16-12.3c-5.7,0-9.9,1.3-9.9,1.3v9h0.5c0,0,4.3-1.4,8.1-1.4c4,0,5.5,1.6,5.5,5.3
			c0,2.6-0.7,4-1.9,4.8c-1.4,0.9-3.2,1-5.2,1h-4V152.9z"/>
		<path fill-rule="evenodd" clip-rule="evenodd" fill="#F7C044" d="M148,148.8c0,9.6-0.3,13.2-1.2,15.5c-0.7,1.8-1.7,2.5-3.3,2.5
			c-1.6,0-2.7-0.8-3.4-2.5c-1-2.5-1.2-7.7-1.2-15.1c0-9.6,0.3-13.2,1.2-15.5c0.7-1.8,1.7-2.5,3.3-2.5c1.6,0,2.7,0.8,3.4,2.5
			C147.8,136.2,148,141.4,148,148.8z M159.9,148.9c0-8.9-0.7-16.5-3.8-20.7c-2.6-3.3-6.9-5-12.6-5c-5.6,0-9.9,1.6-12.6,5
			c-3.2,4.2-3.9,11.4-3.9,20.8c0,8.9,0.7,16.4,3.8,20.7c2.6,3.3,6.9,5,12.6,5c5.6,0,9.9-1.6,12.6-5
			C159.2,165.5,159.9,158.3,159.9,148.9z"/>
		<polygon fill-rule="evenodd" clip-rule="evenodd" fill="#F7C044" points="166.9,163.1 164.8,181.4 173,181.4 177.5,163.1 		"/>
		<path fill-rule="evenodd" clip-rule="evenodd" fill="#F7C044" d="M202.7,148.8c0,9.6-0.3,13.2-1.2,15.5c-0.7,1.8-1.7,2.5-3.3,2.5
			c-1.6,0-2.7-0.8-3.4-2.5c-1-2.5-1.2-7.7-1.2-15.1c0-9.6,0.3-13.2,1.2-15.5c0.7-1.8,1.7-2.5,3.3-2.5c1.6,0,2.7,0.8,3.4,2.5
			C202.5,136.2,202.7,141.4,202.7,148.8z M214.6,148.9c0-8.9-0.7-16.5-3.8-20.7c-2.6-3.3-6.9-5-12.6-5c-5.6,0-9.9,1.6-12.6,5
			c-3.1,4.2-3.9,11.4-3.9,20.8c0,8.9,0.7,16.4,3.8,20.7c2.6,3.3,6.9,5,12.6,5c5.6,0,9.9-1.6,12.6-5
			C213.9,165.5,214.6,158.3,214.6,148.9z"/>
		<path fill-rule="evenodd" clip-rule="evenodd" fill="#F7C044" d="M242.7,148.8c0,9.6-0.3,13.2-1.2,15.5c-0.7,1.8-1.7,2.5-3.3,2.5
			c-1.6,0-2.7-0.8-3.4-2.5c-1-2.5-1.2-7.7-1.2-15.1c0-9.6,0.3-13.2,1.2-15.5c0.7-1.8,1.7-2.5,3.3-2.5c1.6,0,2.7,0.8,3.4,2.5
			C242.5,136.2,242.7,141.4,242.7,148.8z M254.6,148.9c0-8.9-0.7-16.5-3.8-20.7c-2.6-3.3-6.9-5-12.6-5c-5.6,0-9.9,1.6-12.6,5
			c-3.1,4.2-3.9,11.4-3.9,20.8c0,8.9,0.7,16.4,3.8,20.7c2.6,3.3,6.9,5,12.6,5c5.6,0,9.9-1.6,12.6-5
			C253.9,165.5,254.6,158.3,254.6,148.9z"/>
		<path fill-rule="evenodd" clip-rule="evenodd" fill="#F7C044" d="M282.7,148.8c0,9.6-0.3,13.2-1.2,15.5c-0.7,1.8-1.7,2.5-3.3,2.5
			s-2.7-0.8-3.4-2.5c-1-2.5-1.2-7.7-1.2-15.1c0-9.6,0.3-13.2,1.2-15.5c0.7-1.8,1.7-2.5,3.3-2.5s2.7,0.8,3.4,2.5
			C282.5,136.2,282.7,141.4,282.7,148.8z M294.6,148.9c0-8.9-0.7-16.5-3.8-20.7c-2.6-3.3-6.9-5-12.6-5c-5.6,0-9.9,1.6-12.6,5
			c-3.1,4.2-3.9,11.4-3.9,20.8c0,8.9,0.7,16.4,3.8,20.7c2.6,3.3,6.9,5,12.6,5c5.6,0,9.9-1.6,12.6-5
			C293.9,165.5,294.6,158.3,294.6,148.9z"/>
	</g>
	<g>
		<path fill-rule="evenodd" clip-rule="evenodd" fill="#FFFFFF" d="M159.1,85.8c2,0,3.1,1.7,3.1,3.7c0,2.1-1.1,3.7-3,3.7
			c-1.9,0-3.1-1.5-3.1-3.7C156,87.4,157.2,85.8,159.1,85.8z M159.2,84c-3.5,0-5,2.3-5,5.6c0,3.1,1.4,5.4,4.8,5.4
			c3.5,0,5.1-2,5.1-5.6C164,86.3,162.7,84,159.2,84z"/>
		<path fill-rule="evenodd" clip-rule="evenodd" fill="#FFFFFF" d="M172,94.9l3.6-10.9h-2.6l-1.4,4.7c-0.4,1.7-0.7,3.1-1,4.5h0
			c-0.3-1.5-0.6-2.8-1-4.2l-1.3-5h-2.7l3.4,10.9L172,94.9z"/>
		<polygon fill-rule="evenodd" clip-rule="evenodd" fill="#FFFFFF" points="184.2,88.1 180.2,88.1 180.2,85.8 184.4,85.8 184.4,84 
			178.4,84 178.4,95 184.7,95 184.7,93.2 180.2,93.2 180.2,89.9 184.2,89.9 		"/>
		<path fill-rule="evenodd" clip-rule="evenodd" fill="#FFFFFF" d="M190.8,85.9c0.2,0,0.7-0.1,1.6-0.1c1.6,0,2.6,0.6,2.6,1.6
			c0,1-1,1.7-2.8,1.7h-1.4V85.9z M189,94.9h1.9v-4.1h1.1c1.4,0,2.1,0.4,2.5,1.7c0.5,1.3,0.7,2.1,0.9,2.4h2c-0.2-0.4-0.5-1.8-0.8-2.9
			c-0.2-0.9-0.5-1.7-1.1-2v0c0.7-0.3,1.5-1.3,1.5-2.8c0-1.1-0.3-1.9-0.8-2.4c-0.6-0.6-1.8-0.8-4.1-0.8c-1.5,0-2.4,0.1-3.1,0.2V94.9z
			"/>
	</g>
</g>
</svg>
