<?xml version="1.0" encoding="utf-8"?>
<!-- Generator: Adobe Illustrator 17.1.0, SVG Export Plug-In . SVG Version: 6.00 Build 0)  -->
<!DOCTYPE svg PUBLIC "-//W3C//DTD SVG 1.1//EN" "http://www.w3.org/Graphics/SVG/1.1/DTD/svg11.dtd">
<svg version="1.1" id="Layer_1" xmlns="http://www.w3.org/2000/svg" xmlns:xlink="http://www.w3.org/1999/xlink" x="0px" y="0px"
	 width="300px" height="192px" viewBox="0 0 300 192" enable-background="new 0 0 300 192" xml:space="preserve">
<g>
	<g>
		<path fill-rule="evenodd" clip-rule="evenodd" fill="#00959F" d="M114.8,121.5c-0.2-2.3-3.2-3.5-4.2-4.7c-3.3-2.8-8-2.7-10.1-1.1
			c1.2-1,0.8-1.1,1.5-2.3c-0.4-2.2-2.8,1.9-3.7,0.6c-0.9-1.3,4.3-1.2,1.6-4c-0.7-4.5-6.5-3.5-7.4-6.8c-1.6-0.2-3.2-3.1-1.5-3.9
			c0,0.1-0.1,0.2-0.1,0.1c-0.2,0.6-0.6,1-1,1.4c-0.4-0.1-1.3-1.5-0.8-1.1c-1.7-1.2-1.8,0.6-2.4,1.3c-3.3-1.4-3.7-3.9-5.7,1
			c-1.2-0.6,0.4-4.2,0-4.3c-1.1-0.4-6.2,5-5.8,4.1c0.4-0.7-4.5-0.5-4.9-0.8c-0.8-1.5,0.3-3.5-0.1-4.8c0.6-3.1-4.7-3.2-4.9-2.7
			c0.3-0.7,2-6.7,1-6.8c-4.4-0.8-3,6.2-7.7,2.7c-3.4-2.5-2.1-9.8,1-12.2c1.2-1.3,9,0.2,10-0.6c-0.2,0.2,1.6,5.6,2.5,5.7
			c2,0.3-1.2-7.3,0.7-8.3c2.4-1.2,5.4-4.9,3.5-7.1c0,0.5,2.3-2.8,2.5-3.4c0.3-1.5,3.1,0.5,3.7-0.5c0.4-0.7-1.3-2.1-0.6-2.9
			c0.6-1,2.2-1.1,3.1-1.9c0.7-0.4,0.2,2.2,1,2.2c1.5,0,6-2.1,5.4-3.7c0,0-3.6-0.6-2.8-1.2c-2.2,1.7-0.7-1-1.2-1.9
			c-0.8-1.3-4.5,0.7-5.2,1.1c0.2-3.1,5.7-3.2,5.7-3.1c-0.2,0.7-0.1,1.3,0.3,1.9c1.2,0,3.7-3.4,5.2-3.4c1.4,0-1.8,4-1.4,4.7
			c0.3,0.6,4.9,0.4,5.8,0.5c1.3-2-3.4-3.5-3.6-3.7c-0.2-0.2,1.3-3,1.4-3.1c0,0.1-3.2-3.7-3-3.4c-1.5-1.2-1.5-0.4-3-2
			c-0.5-1.5-1-2-1.9-3.4c-1.6-0.6-1.2,0.5-2.5,1.7c-2.7,1.8-1.9-2.2-2-2.3c-0.5-0.5-1-0.7-1.7-0.7h0.7c-1.4-0.4-5.4-3-6.7-1.2
			c-0.1,0-0.9,3.3-1.2,3.7c0.2-0.1,2.6,2.8,1.3,4c-1,0.9-2-0.2-2.2,0c-0.8,0.2,2.3,4.1-0.7,4.9c-0.5,0.2-0.4-2.7-0.4-2.9
			c-0.1,0.3-0.1,0.3-0.1,0.1c-0.2,0.3-0.4,0.7-0.6,1c-0.3,0-0.7-3-0.7-2.9c-1.4-2.3-8.4-0.9-9.6-3.4c-3.6-4.7,4.9-5.8,4.9-6.2
			c0-0.4,0.4-2.2,0.4-2.2c0-1,1.1,3.3,0.5,2.5c0.6,0.9,5.6-0.7,5.6-0.9c-0.5-0.6-5.1-3-5.4-2.8c2-1.2,6.5,1.2,3.7-2.8
			c-0.2-0.3,3-0.9,3.2-1.9c2.7,0.6,1.3,2.2,1.1,3.6c-0.2,0.9,5.5-1.4,4.4-0.3c-0.1,0.1-5,2.6-4.7,2.1c-3.5,1.8,5.4,2.9,5.5,2.9
			c0.1-0.1,6.8,2.7,6.9,1.5c0.4,0.2-0.8-3.1-0.4-2.3c-0.5-0.5-1.6-1.7-2.1-2c0.2-0.5,4.4,2.2,5.7-1c-0.5-0.1-0.9-0.2-1.4-0.3
			c-0.2-0.3-3.1-1.2-4.4-2c-1.5-3.2-1.4-1.4-4.7-3.5c-2.5-1.6-4.4-3-7.9-2.6c-0.6,0.1-6,1.4-5,2.4c-1.1-1,1.1-4.9-3.5-1.6
			c-3.1,1.9,3.2,3.9,4.4,3.8c-0.1,0.3-2.3,3.1-2.3,2.8c0-3.3-2.1-0.6-2.7-2c-0.4-1.1-1.4-2-2.3-3.1c-1.3-1.4-0.4,3.8-1.8,5.1
			c-1,0.7-1-2.8-0.9-2.9c-0.1,0.2-2-0.1-2.3,0.2c-0.6,0.3,1.9,2.1,0.5,2.4c-0.6,0.3-6.2,0.5-6.5-0.3c0.3-0.4,0.4-0.6,0.2-0.6
			c-0.1,0.1,5.8-1.4,3.7-2.5c-3.8-2.1-1.7-0.8-2.7-3.4c-0.1-0.2-2.7-0.3-2.9-0.4c3.1,0.2,1.2-10.3-2.5-6.4c-1.7,1.8-10.3-4.9-11.7,1
			c0.1-0.5,12.1,5.2,13.9,5.4c-1.2,0,0,2.6,0,3.1c-0.6-2.9-16.8-6.9-17.1-0.9c-0.2,2.8,5.6,0.1,6.1-0.2c-0.1,0.1,3,3.5,2.6,4
			c-0.6,0.6-2.9-0.9-2.9-0.9c0,0,0,0,0,0c-1.7-1.3-5-1.3-6.5,0.3c-1.1-3.3-4.8,1.4-6.9,0c-0.3-0.1-1-1.5-2.2-1.2
			c-2.7,0.6-3.2-0.2-5.7-0.5c-2.3-0.2-3.6,0.3-5.6-0.8c-1.3,2.6-4.7,1.6-7,2.9c-3,3.3,3.3,1.4,3.5,4.4c-0.1-1-5.3-0.3-6.3,0.4
			c1.8,4.1,4.2,0.7,6.5,1.5c0.4,0.1-5.2,2.4-4.7,3.8c1.6,4.4,2.3,0.7,3.6,1.2c-0.2-0.1,1,2.5,1,2.3c0.2-0.1,2.8-0.6,3,0
			c1,1.9-6.1,3.2-6.1,4.7c0,0.4,15.4-3.2,9.6-4.3c0.2-0.4,2.3-3.2,2.4-3c-0.3,0.6-0.4,1.3-0.1,1.9c3.6,0.2,2.5-3.5,5.9-1.5
			c1.2,0.7,0.1,0.6,1.5,1c2.4,0.7,0.5,1.9,2,3.1c0.8,0.6,1.2,5.7,1.6,5.4c0.7-0.4,0.2-3.7,0.4-3.7c1.7,0.4,1.5,4.7,1.9,6
			c0.8,2.5,3.9,1.8,3.9,5.6c0,4.3,1.1,6.9,1.8,11c0.2,1.3,1.1,3,2.8,2.7c2.4-0.3,2,5.4,3.5,6.1c-0.4-0.2,4.5,9.2,6,7.5
			c0.8-1-4.5-7.7-5.2-9.1c0.5,0.1,0.7-0.4,0.3-1.3c-0.8,0.5,8.9,10.7,7.9,12.5c-0.9,1.6,7.9,8.8,9,7.2c0.6,0.2,1-1.7,2.5,0.3
			c1.5,2,3.2,1.5,5,2.7c-0.3-0.2,7.8,10.8,7.2,5.4c3.5-0.5,2.2,7.3,0.1,8.7c-3.7,2.4,0,9.4,0.8,11.8c1.7,4.6,2,8,6.4,10.4
			c2.5,1.4,1.7,5.1,1.5,7.3c-0.1,0.7-0.9,7.7-1,7.6c1.5,2-2.3,7.7-2.3,10.1v3.9c0,1.7-1.6,5.2-1.4,6.3c0.4,2.5,0.9,13.2,4.6,8.5
			c0.9-0.3-0.4,2.4-0.8,2.4c2.5,0,3.6,0.7,6.3-0.4c-9.8-0.9,2-8.9-2.7-10.2c0.5-1.6,2.6-3.4,3.5-4.8c0.1-0.4-2.2-0.5-1.4-2
			c3.2-0.3,1.9-0.8,6.1-2.1c3.5-1.8-0.4-5.4,0.5-8.1c0.9,8.2,6.5-1,7.4-3.5c1.3-3.2,1.4-6.1,5.5-7.5c3-1,5.6-6.2,4.8-9.5
			C111.9,128.7,114.5,124.9,114.8,121.5C114.8,121.1,114.8,121.5,114.8,121.5z M66.6,60.4c-0.2-0.6,0-2.8,0-3.4
			c0.9-1.8,7.7-1.2,6.9,1.2c-0.9,0.1-0.6-0.9-1-1.2c-0.5,4.8-1.2,2-1.6,2c-0.4-6.4-4.3,3.3-4.2,3.4C66.7,62.3,66.5,61.1,66.6,60.4
			C66.6,60.4,66.5,61.1,66.6,60.4z M71.3,62.5c0.5-0.5,4.3-6,5.7-3.7C77.1,59,71.6,63.2,71.3,62.5C71.3,62.5,71.4,62.9,71.3,62.5z
			 M31.8,52.8c-0.3-0.2-0.7-1.2-0.7-1.6c1,0.4,3.8,2.6,2.8,3.9C34.5,55,32,52.8,31.8,52.8c-0.1-0.1,0.1,0.1,0.1,0.1
			S31.9,52.8,31.8,52.8z M68.7,54.9c-0.7,0.2-5.3-0.8-5.3-0.4C63.3,51,70.9,52.5,68.7,54.9c-0.2,0.1,0.1-0.1,0.1-0.1
			C68.8,54.8,68.8,54.8,68.7,54.9z M93.3,152.1C93.3,152.1,93.3,152.1,93.3,152.1C93.3,152.1,93.3,152.1,93.3,152.1z"/>
		<path fill="#00959F" d="M56.5,18.9c2,1.2,16.3,7,15.4,2.8c-2.6-1.2-4.7-4-6.9-5.6c-1.1-0.8-4.3-3.2-5.7-1.7c1.7-2.8-3,3.5-3,3.1
			c0,0.2-0.1,0.3-0.1,0.1C56.1,18,56.2,18.5,56.5,18.9c0.1,0.1,0.2,0.1,0.2,0.1S56,18.6,56.5,18.9z"/>
		<path fill="#00959F" d="M128.1,37.8c2.2-3.2-4.4-2.1-6.6-2.5c-2.5-0.5-1.1,2.8,0.8,3C124.6,38.5,125.3,39,128.1,37.8z"/>
		<path fill="#00959F" d="M77.5,88.6c1.2-0.6-3.3-2.6-3.1-2.4c-0.7-1.4-3.3-1.8-5.2-0.6C69.2,85.1,77.2,88.9,77.5,88.6
			c0.1,0-0.1,0.1-0.1,0.1C77.4,88.7,77.4,88.7,77.5,88.6z"/>
		<path fill="#00959F" d="M146.3,64.9c0.5-0.2,0.2-1.2-0.3-0.8C145.1,64.5,145.8,65.4,146.3,64.9c0.1,0-0.1,0.1-0.1,0.1
			C146.2,65,146.2,65,146.3,64.9z"/>
		<path fill="#00959F" d="M135,49.2c-1.5,1,6.4,1.6,3.7-2.5C137.5,42,134.6,49.5,135,49.2c-0.1,0.1-0.1,0.1-0.1,0.1
			S135.4,49,135,49.2z"/>
		<path fill="#00959F" d="M139.5,46.5c0.9,0.1,1.5,0.5,1.8,1.2c-0.9,0.6-2.3,2-2.6,3c-0.1,0.6,1.8,0.4,2,0.4
			c-0.2,0.3-0.2,0.6-0.1,0.9c2.1,1.1,5.5-0.9,5-3.2c-0.7-1-2.6-3.4-3.1-3.9c-0.9-0.8,3.3-2.6-0.8-2.9h1.1
			C140.3,41.5,134.4,43.8,139.5,46.5c0.2,0.1,0.2,0.1,0.2,0.1S138.9,46.1,139.5,46.5z"/>
		<path fill="#00959F" d="M237.5,18.2c0.2-0.2,0.1,0.2,0,0.2C237.5,18.5,237.5,18.4,237.5,18.2C237.5,18.2,237.5,18.3,237.5,18.2z"
			/>
		<path fill-rule="evenodd" clip-rule="evenodd" fill="#00959F" d="M289.4,39.8c2.2,0,7.3-3.2,7.3-3.2c-2.5-1.5,2.1-6-0.8-8.2
			c-1.6-0.9-0.8-0.3-2.6-1c-1.7-0.7-1.2,2-2,2c-1.4,0-1.1-1.4-2.9-1.6c-3.2-0.3-1.7,0.8-4.4-0.9c-4.8-3-5,0.4-9.3-4
			c0-0.3,2.5-1,2.9-1c-0.3-0.3-0.3-0.4,0-0.3c-0.5-0.7-6.6-2.2-7.3-1.5c-0.1,0,5.1,5,0.9,4.4c-1.9-0.3-8.2,1.5-8.2-1.2
			c0,0,0.1-1.8-0.3-2.2c-0.9-0.8-4.7-0.1-5.4,0.5c-2.3,1.2-6.5-1.2-9.2-1.7c-0.3-2,2.7-3.4-2.2-3.4c-0.1,0-4,0.3-4,0.1
			c-1.4-0.2-3.3,0.8-4.6,0.9c-1.9,0.1-1.4,0.3-3.5-0.3c1.1,0.3-2.9-2.3-1.6-2.5c-0.5,0.1-1.8,2.8-2.4,3.1c-1.2,0.7-3.1,1.1-4.5,1.7
			c0.1,0-10,5.3-11.6,1.7c-0.3-0.7-2.1,0.3-2.1,0.4c0.5-1.5-2.1-2.3-3.4-0.5c-0.4,0.5-1.2,1.7-1.9,1.8c-2.4,0.4-2-0.1-3.8-0.6
			c0.4,0.3-14.8,5.3-14.6,5.4c-0.5-0.8-0.2-0.7-0.8-1.4c-2.9-3-2,3.6-2.1,3.7c-0.1,0-3.9,3.6-5.4,2.3c-1.1-0.9-2.2,1.9-3.3,2
			c-0.7,0.1-0.5-5.6-1.3-5.5c0,0,3.5-3.4,1.7-4.5c-2.4-1.4-0.4-2.6-2.8-3.8c-3.4-1.6-3.8-1.8-8.7,0c-1.9,1-6.1,7.9-7.2,9.8
			c-1.8,3.1-5.2,2.9-7.3,5.5c-3,3.6-0.4,8.6,3.5,5.3c0.1-0.1,0.8,6.8,5.3,3.3c2.2-1.4,2.2-4.5,0.8-5.9c0.7-2,4.6-2.3,4.2-5.4
			c0.5-0.3,3.5-0.2,3.3,0.3c-1.5,2.9-4.8,2-3.1,6.2c0.1,0.2,8-0.7,6.5,1.2c-0.7,0.2-5.6,0-5.6,0.7c0,0.4,1.8,1,1.2,1.5
			c-1.1,0.9-2-1.3-3,0.5c-0.5,0.8-0.2,2.5-0.7,3.1c-0.6,0.2-7.2,0.5-8,0.1c-1.2-0.6-0.7-1.7-0.6-2.7c0.1-1.2-1.4-0.6-1.9-0.2
			c-1.8,1,0,2.8,0.2,3.9c-1.7-0.3-12.4,7.1-12.7,6.6c-0.1-0.1,7.7,5.8,1.7,5.5c-2.9-0.1-6.8-1.4-5.6,3.3c0.5,1.9-1,2.2,0.2,4.2
			c0.2,0.3,3.8,1.4,3.2,2.2c1.2-1.5,3-1.9,4.8-3.2c-0.5,0.4,3.2-4.5,3.1-4.1c0.3-0.2,0.3-2.2,0.9-2.2c1.5,0.2,3.9-1.1,4.9-0.7
			c1.1,0.4,7.5,7.2,7.4,7.5c-0.7-1.5-0.7-2.5,0.8-3.1c-0.1-0.1,0-0.1,0.1-0.1c-0.3-0.2-2.6-1.9-1.9-1.6c-1-0.7-4.7-3.4-3.6-4.7
			c4.6-1.5,6.8,10.1,7.6,12.1c0.2,0.3,3-2.1,3.2-2.7c1-1.7-2-1.1,0-3.2c2.5-1.4,0.5,2.6,2.5,3.8c3,1.8,4.3,1,7.5,0.8
			c1.2-0.1-0.5,5-0.8,5.3c-2.2,2.9-0.7,0-3.1,0.8c-1.5,0.5-3.4,1.8-4.3,2.6c-0.3-0.8,2.6-1.9,2.1-2.8c-2.2-3.7-8.8,2.1-9.8,1.5
			c-0.3-0.2-8.2-4.2-7.2-5.2c5.7-2.5-4.8-3.1-6.6-3.1c-1.1,0-2.5,1.3-3.4,1.5c-1,0.6-11,2.9-11.6,2.9c-1.8,0-1.7,5.4-3.5,6.4
			c-2.4,1.3-4.9,5.9-4.3,8.8c0.4,2.2-2.4,10.4,0.4,12.1c3.4,2.1,8,4.4,10.5,7.2c2.8,3.2,1.3,0.9,3.1,0.3c1.7-0.5,3.8,0.8,5.2-0.5
			c1.2-0.9,1-2,2.8-2c2.4,0.1,2,1.8,3.1,3.2c1.1,1.4,2.2-1.1,2.8-0.8c3.6,2-1.8,5.8,0.5,7.9c2,1.9,3.5,4.9,3.4,7.9
			c0,1.1,1.3,3.9,0.4,4.8c-1.6,1.6-1.7,4.4-1.3,6.5c0.3,1.7,1.1,3.5,1.9,5c0.8,0.9,1.4,2,1.8,3.2c-0.3,1.1-0.5,2.3-0.6,3.5
			c1.8,3,1.8,5.1,2.8,8.2c0.9,2.7,5.3-0.2,7.1-0.3c2-0.1,7.1-5.7,6.7-7.8c-0.5-2.8,1.2-3.2,2.2-5.3c-0.9-4.6,1.6-5.1,4-8.8
			c2.5-5.3-2.1-9.5,0.4-15c2.1-3.3,12.7-13.8,9.9-18.2c-0.9-1.4-7.5,4.4-7.5,1.2c0.3,0.2-3.1-6.2-3.3-6.8c-3.1-4.2-3-8.5-5.2-13.6
			c1.2-3.1,4.4,6.6,4.8,7.8c0.9,2.5,2.7,3.6,3.1,6.5c0.7,4.2,1.7,4.6,5.2,2.4c3.4-2.1,6.9-3.1,9.1-6.5c0.3-0.6,2.1-3.4,1.7-4.2
			c-0.2-0.3-4-3.6-3.6-3.6c-1.4,0-3.8,4.7-3.9,1c-0.9-1.3-3.3-4.1-3.1-5.4c0.2-3.6,2.6,1.6,3.1,2c1.8,1.1,4.6,0.9,5.3,2.1
			c2.4,3.8,5.7-0.8,7,1.4c1.2,2.1,2.7,6.7,4.9,3.6c-0.1,2.1,3.9,16.8,6,16.8c2.8,0,4.8-8.5,4.8-9.8c0.9-2.3,3.3-3.5,4.8-5.9
			c0.9-1.2,2-0.8,3.2-1.9c1.8-1,4.2,11.2,3,11.2c1.6,0,0.9-1.6,3.1-1.6c-0.9,0,1.9,4.9,1.9,5.3c0-0.6,0.9-3.8,0.9-3.8
			c2.7,1.2,3.2,5.2,3.9,7.7c-1.1-3.7,7.1-4.9,4.3-9.7c0.2,0.8-3.4-1.5,1.2-5.3c0.2-0.2-0.8-1.7-0.5-2c0.6-1.5,4.1-1.3,5.4-2.2
			c5.8-4,6.3-9.7,3.2-14.8c0.2-0.9,3.3-1.1,2.5-2.7c-0.5-1.1-2.9,0.7-3.3-0.7c-1.4-1.7,0.9-3.4,2.6-4.2c0.6-0.3-0.9,2.5,0,2.6
			c0.7,0.1,1.9-1.7,2.3-1.4c0.7,0.3,0.2,3.7,0.5,3.6c2.1-0.7,1.9,6.6,3.7,2.8c1.2-2,0.4-3-0.5-4.8c0.1-0.7,1.2-1.8,1.2-2.3
			c0-2.5,4.6-3.3,6.1-4.5c2.5-2.8,5.4-6.1,4.8-10c0.2,0.7,1.7,9.6,2.1,7.9c-0.1-0.4,0.9-7.8-0.6-7.3c2.9-1-5.8-3.3-5.2-3.3
			c-0.7,0-0.7,0.6-1.4,0.4c0-0.5,5.1-4.8,5.9-5.4c2.1-1.2,2.8,1.4,4,0.3c1.6-0.8,2.8-2.7,4.1-3.8c1.5-1,1.2,3,4.7-0.5
			c-2.1,1.9-5,3.5-6.4,5.7c-2.1,3.3,0.3,6.6-1.2,10.3c0.9-1.2,5.8-6.6,5.8-7.6C286,43.8,286.7,39.8,289.4,39.8c2,0-0.2,0-0.2,0
			S289.3,39.8,289.4,39.8z M194.4,57.9c-3.2,1.8-4.3-0.8-2.1,3.6c0.9,1.8,1.4,3.7,1.8,6.4c0.1,1.6-10.2-1.4-3.4-4.1
			c-1.4-1.1-4.8-3.7-3.5-6.8C188.8,54.8,195.9,56.3,194.4,57.9c-0.1,0.1-0.2,0.1-0.2,0.1C194.3,57.9,194.7,57.7,194.4,57.9z
			 M170.1,62.4c-0.1-1,0.8-5,2.1-5.4c1.6-2.8,2.2,2.3,3.2,2.1c0.1,0,3.9-3.6,3.7-2.5c-0.2,1-2.2,0.9-0.1,1.8
			c1.8,0.8,5.9,4.5,1.8,4.9c0.1,0-11.5-1.3-10.8,0.5C170,63.3,170,62.8,170.1,62.4C170.1,62.4,170,63,170.1,62.4z M173.8,113.4
			c0.7-3.9,3.4,3.5,0.4,2.5C173.3,115.6,173.8,113.5,173.8,113.4C173.8,113.1,173.8,113.4,173.8,113.4z"/>
		<path fill="#00959F" d="M190.8,22.3c4.5,2,4.3,1.8,4.3-1.3c1.5-2.5,12.3-3.1,11.7-5.4c-2.2,0-8.5-0.3-10.5,1.4
			C195.7,17.4,189.9,21.9,190.8,22.3c0.1,0,0.1,0.1,0.1,0.1C190.9,22.3,190.4,22.1,190.8,22.3z"/>
		<path fill="#00959F" d="M271.4,68.1c-2.6,0-9.4,2.7-7.7,6.1c0.4,0.8,4.2-1.3,4.6-2.5c0,0,9.2-3.9,5.6-9.3
			C273.2,61,271.5,67.9,271.4,68.1c0,0,0.1-0.1,0.1-0.1S271.5,68,271.4,68.1z"/>
		<path fill="#00959F" d="M249.6,123.4c0.8-0.2-6.9-3.1-7-3.2c-0.5-0.7-2.3,2.7,1.2,2.3C244.8,122.3,249,124.3,249.6,123.4
			c0.1,0-0.1,0.2-0.1,0.2C249.5,123.6,249.5,123.5,249.6,123.4z"/>
		<path fill="#00959F" d="M252.7,117.8c0.6,0.5,1.3-1.1,1.8-1.1c-0.6,0.3,2.1,2.7,2.4,2.9c0-0.1,0-0.2,0.2-0.1c0-1-2-3.8-1.9-4.1
			c0.6-0.1,1.6,0.2,1.9-0.5C254.9,113.2,250.1,115.6,252.7,117.8c0.3,0.3-0.2-0.2-0.2-0.2S252.6,117.6,252.7,117.8z"/>
		<path fill="#00959F" d="M249.3,107c0.2,0-6.4,4.5-5.6,3.5c-2.3,2.9,5.5,11.4,7.5,2.8c0.5-2,1.5-4.7,1.5-6.7
			c-0.4,0.1-0.7,0-1.1-0.1C251.2,101.7,250.6,107,249.3,107c-0.3,0-0.4,0-0.4,0S250.5,107,249.3,107z"/>
		<path fill="#00959F" d="M254.1,94.4c1.5,4.1,0.7,1.2,0,5.1c0.1-0.7,3.9-3.4,4.7-3.9c-0.3,0-2.6-0.3-2.7-0.4
			c-0.8-0.6,3.3-4.9-0.1-4.9C255.8,90.2,253.9,93.9,254.1,94.4c0.4,1-0.1-0.4-0.1-0.4S254,94.1,254.1,94.4z"/>
		<path fill="#00959F" d="M242.2,19.6L242.2,19.6C242.2,19.6,242.2,19.6,242.2,19.6z"/>
		<path fill="#00959F" d="M89.2,55.6c0-0.1-0.1-0.1-0.2,0H89.2z"/>
		<path fill="#00959F" d="M72.9,37.6c-0.6,0.2-0.6,1.4,0.3,0.9C73.7,38.3,73.9,37.2,72.9,37.6c-0.1,0,0.3-0.1,0.3-0.1
			S73.1,37.5,72.9,37.6z"/>
		<path fill="#00959F" d="M3.3,32.5c0.2,0,0.2-0.1,0.2-0.1S3.5,32.5,3.3,32.5z"/>
		<path fill="#00959F" d="M69.1,36.8c-0.8,0.5,0.7,1.1,1,0.5C70.1,36.7,69.7,36.5,69.1,36.8c-0.1,0,0.2-0.2,0.2-0.2
			C69.3,36.6,69.3,36.7,69.1,36.8z"/>
		<path fill="#00959F" d="M283.8,147.7c-1-4-3.5-9.7-4.8-11.6c-1.3-0.3-7-10.9-6.3-11.5c0,0.1-0.1,0.1-0.2,0.1
			c-1,0.9,0.4,10.7-2.4,8c-0.2-0.2-2.7-3-3-3.4c0.9-3.8-0.9-1.9-2.8-3.4c-0.9-0.9-1,1.1-1,1.6c-0.2-0.4-1.5-1.2-1.5-1.5
			c-0.1,0.6-0.8,4.1-1.7,4c-1.3-0.2-0.7-2.3-2.7-1c-1.8,1.2,0.4,2.9-2.5,2.2c0.6,0.2-1.2-0.2-1.5,0.1c-0.7,0.9,0.1,3.2,0.1,4.2
			c0,0-2,0.6-2,0.6c-1.2,1-2.7,0.6-4.2,1.9c-4.8,4.5,3.9,10.9,1.1,14c-4.1,4.5,6.3,1.9,7.6,2.6c-0.2-1.2,0.8-2.2,0.9-3.5
			c2.4-2.2,9.3-1.3,8.6,3c-0.2,1.2,2.7-1.9,2.7-1.9c0.5,0.5,0.6,1.1,0.4,1.9c-0.3-1,3.6,4.3,3.3,4.2c1.6,0.5,3.5,2.1,5.4,0.6
			C279.7,157.1,284.6,150.8,283.8,147.7C283.7,147.3,283.8,147.7,283.8,147.7z"/>
		<path fill="#00959F" d="M274.1,58.2c-0.2,0-2.2,2.4-2.5,2.9c-0.7,1.2,6.2,0.8,6.2-0.7C277.3,60.1,274.5,58.1,274.1,58.2
			c-0.1,0,0.2-0.1,0.2-0.1S274.2,58.2,274.1,58.2z"/>
		<path fill="#00959F" d="M84.9,99.8h0.8C85.5,99.7,85.2,99.7,84.9,99.8z"/>
		<path fill="#00959F" d="M275.8,117.9c-0.5-0.5-1.9-2.8-1.6-2.1c-2.9-1.8-8.6-1.2-10.1-3.4c-0.5-1.2-2.1,0.5-2.1,1
			c-0.2-1.5,4.2,4,1.6,3.5c1.9,0.4,4,0.3,5.5,2.3c0.5,0.7,0.8,3.1-0.2,2.9c1,0.2,3.7,2.1,4,1.9c1.5-5.5,7.1,1.3,7.1,0.9
			C280.2,122.7,277.2,119.4,275.8,117.9c-0.1-0.1,0.2,0.2,0.2,0.2S275.9,118,275.8,117.9z"/>
		<path fill="#00959F" d="M300,155.5c-0.1-0.1-5.1-3.2-4.2-3.8c0.4-0.2,0.7,6.8-0.1,6.1c0.2,0.1,2.5,2.8,1.7,2.6
			C298.8,160.9,300,155.8,300,155.5C299.9,155.4,300,155.5,300,155.5z"/>
		<path fill="#00959F" d="M294.8,159.4c-1,0.2-1.9,0.5-2.5,1.8c-0.9,2.1-4,2.5-4.8,4.7c-0.5,1.5,2.3,2.5,3.1,1.7
			C292.5,166.8,296.8,161.5,294.8,159.4C294.8,159.4,295.1,159.8,294.8,159.4z"/>
		<path fill="#00959F" d="M262,125.9h0.2C262,125.8,262,125.8,262,125.9z"/>
		<path fill="#00959F" d="M253.6,106.6h0.2C253.8,106.5,253.7,106.5,253.6,106.6z"/>
		<path fill="#00959F" d="M190.3,128.4c-0.6,0.1-6.5,4.6-5.9,6.3c0.5,1.6,0.5,6.1,0.2,7.7c-0.4,3.1,3,1.6,3.5-0.5
			C189.8,139.9,191.6,131,190.3,128.4C190.3,128.4,190.6,128.9,190.3,128.4z"/>
		<path fill="#00959F" d="M118.5,26.4c-0.7-1.3-3.4-4.1-0.5-2.8c1.8,0.8-0.5-2.6,0.3-4c0.1-1.2-3.6-0.9-1.4-3.3
			c0.6-1.7,1.9-3.9,2.2-3.8c-1.6-0.5-3.3-2.2-4-3.1c-1.1-5.4-4.5-1.3-8.6-2.6c0.4,0,5.3-0.9,4.9-1.4c-1.4-1.9-6.7-5.4-9.8-4.7
			c1-0.8-4,5.2-3,6.4c-2.1-2.1-3.3-1.6-5,1.3C93.3,9,83.7,6.3,85,8.7c0.6,1.2-5.6,9.3-6.2,9.8c0.9-0.8,4.7,5.9,5.1,0.5
			c0.9,2.5,2.1,1.3,4.5,1.8c5.1,1.2,2.8,3.2,5,6.5c0.1,0.1,1.4-1.7,1.9-1.6c2.1,0.5,1.2,3.4,1.4,3.6c-0.7-0.6-0.1-2.6-0.9-2.6
			c-3.5,0-0.3,3.1-0.3,3.2c0,2.1-1.3,3.8,1.6,4.8c-1.7,0.8,5,6.5,6.3,5.3c1.3-0.6,1.9-4.1,2.5-4.8c-0.3-1.2,1.5-2.2,2.5-2.2
			c3.1,0,2.1-2.1,4.1-2.5c0.6-0.1,4.6-1.3,4.4-1.6c0,0-2.7-3.5-2.2-3.5C114.9,25.5,120.1,30.7,118.5,26.4
			C118.5,26.4,118.5,26.5,118.5,26.4z"/>
		<path fill="#00959F" d="M260,103.1c-0.3-0.7-0.7-1.2-1.3-1.8c-0.3,0.3-4.1,1.8-3.7,2.6C256.2,106.7,259.6,105.4,260,103.1
			C259.7,102.4,260,103.1,260,103.1z"/>
		<path fill="#00959F" d="M82.2,88.7c-1.5-0.5-3,0.7-3.7,1.9c0.9,0.4,5.2,1.5,5.3,0.4c0,0.2-0.5-1.9-0.3-1.4L82.2,88.7
			c-0.1,0-0.2-0.1-0.2-0.1S82.5,88.8,82.2,88.7z"/>
		<path fill="#00959F" d="M240.6,120.2c2-6.1-5-10.1-8.1-13.6c-0.6-0.5-1-0.6-1.5-0.3c0.6-0.2,4.1,7.4,4.2,8.3
			C235.8,118.1,238,119.6,240.6,120.2C240.6,120.1,240.6,120.2,240.6,120.2z"/>
		<path fill="#00959F" d="M236.9,103.1c-0.6-1.3-1.1-1.7-1.9-2.3c-2.4,0.4,5,13.1,5.6,10.5C239.5,108.7,238.4,105.5,236.9,103.1
			C236.7,102.6,236.9,103.1,236.9,103.1z"/>
	</g>
	<g>
		
			<line fill-rule="evenodd" clip-rule="evenodd" fill="none" stroke="#FFFFFF" stroke-width="2" stroke-linecap="square" stroke-miterlimit="10" x1="34.7" y1="41" x2="48.5" y2="63"/>
		<circle fill-rule="evenodd" clip-rule="evenodd" fill="#3DC6EC" cx="35" cy="41" r="8"/>
		<polygon fill-rule="evenodd" clip-rule="evenodd" fill="#FFFFFF" points="31.1,37.1 33.1,38.2 32.2,41.9 30,41.9 29.6,39.8 		"/>
	</g>
	<g>
		
			<line fill-rule="evenodd" clip-rule="evenodd" fill="none" stroke="#FFFFFF" stroke-width="2" stroke-linecap="square" stroke-miterlimit="10" x1="34.7" y1="8" x2="52.5" y2="48"/>
		<circle fill-rule="evenodd" clip-rule="evenodd" fill="#3DC6EC" cx="35" cy="8" r="8"/>
		<polygon fill-rule="evenodd" clip-rule="evenodd" fill="#FFFFFF" points="31.1,4.1 33.1,5.2 32.2,8.9 30,8.9 29.6,6.8 		"/>
	</g>
	<g>
		
			<line fill-rule="evenodd" clip-rule="evenodd" fill="none" stroke="#FFFFFF" stroke-width="2" stroke-linecap="square" stroke-miterlimit="10" x1="38.7" y1="71" x2="53.2" y2="85.5"/>
		<circle fill-rule="evenodd" clip-rule="evenodd" fill="#3DC6EC" cx="39" cy="71" r="8"/>
		<polygon fill-rule="evenodd" clip-rule="evenodd" fill="#FFFFFF" points="35.1,67.1 37.1,68.2 36.2,71.9 34,71.9 33.6,69.8 		"/>
	</g>
	<g>
		
			<line fill-rule="evenodd" clip-rule="evenodd" fill="none" stroke="#FFFFFF" stroke-width="2" stroke-linecap="square" stroke-miterlimit="10" x1="68.7" y1="67" x2="72" y2="86"/>
		<circle fill-rule="evenodd" clip-rule="evenodd" fill="#3DC6EC" cx="69" cy="67" r="8"/>
		<polygon fill-rule="evenodd" clip-rule="evenodd" fill="#FFFFFF" points="65.1,63.1 67.1,64.2 66.2,67.9 64,67.9 63.6,65.8 		"/>
	</g>
	<g>
		
			<line fill-rule="evenodd" clip-rule="evenodd" fill="none" stroke="#FFFFFF" stroke-width="2" stroke-linecap="square" stroke-miterlimit="10" x1="87.7" y1="66" x2="80.5" y2="89.8"/>
		<circle fill-rule="evenodd" clip-rule="evenodd" fill="#3DC6EC" cx="88" cy="66" r="8"/>
		<polygon fill-rule="evenodd" clip-rule="evenodd" fill="#FFFFFF" points="84.1,62.1 86.1,63.2 85.2,66.9 83,66.9 82.6,64.8 		"/>
	</g>
	<g>
		
			<line fill-rule="evenodd" clip-rule="evenodd" fill="none" stroke="#FFFFFF" stroke-width="2" stroke-linecap="square" stroke-miterlimit="10" x1="70.7" y1="125" x2="80" y2="107.2"/>
		<circle fill-rule="evenodd" clip-rule="evenodd" fill="#3DC6EC" cx="71" cy="125" r="8"/>
		<polygon fill-rule="evenodd" clip-rule="evenodd" fill="#FFFFFF" points="67.1,121.1 69.1,122.2 68.2,125.9 66,125.9 65.6,123.8 
					"/>
	</g>
	<g>
		
			<line fill-rule="evenodd" clip-rule="evenodd" fill="none" stroke="#FFFFFF" stroke-width="2" stroke-linecap="square" stroke-miterlimit="10" x1="49.7" y1="113" x2="62.8" y2="93"/>
		<circle fill-rule="evenodd" clip-rule="evenodd" fill="#3DC6EC" cx="50" cy="113" r="8"/>
		<polygon fill-rule="evenodd" clip-rule="evenodd" fill="#FFFFFF" points="46.1,109.1 48.1,110.2 47.2,113.9 45,113.9 44.6,111.8 
					"/>
	</g>
	<g>
		
			<line fill-rule="evenodd" clip-rule="evenodd" fill="none" stroke="#FFFFFF" stroke-width="2" stroke-linecap="square" stroke-miterlimit="10" x1="100.7" y1="96" x2="89" y2="108.5"/>
		<circle fill-rule="evenodd" clip-rule="evenodd" fill="#3DC6EC" cx="101" cy="96" r="8"/>
		<polygon fill-rule="evenodd" clip-rule="evenodd" fill="#FFFFFF" points="97.1,92.1 99.1,93.2 98.2,96.9 96,96.9 95.6,94.8 		"/>
	</g>
	<g>
		
			<line fill-rule="evenodd" clip-rule="evenodd" fill="none" stroke="#FFFFFF" stroke-width="2" stroke-linecap="square" stroke-miterlimit="10" x1="103.7" y1="150" x2="102" y2="124.8"/>
		<circle fill-rule="evenodd" clip-rule="evenodd" fill="#3DC6EC" cx="104" cy="150" r="8"/>
		<polygon fill-rule="evenodd" clip-rule="evenodd" fill="#FFFFFF" points="100.1,146.1 102.1,147.2 101.2,150.9 99,150.9 
			98.6,148.8 		"/>
	</g>
	<g>
		
			<line fill-rule="evenodd" clip-rule="evenodd" fill="none" stroke="#FFFFFF" stroke-width="2" stroke-linecap="square" stroke-miterlimit="10" x1="133.7" y1="133" x2="151" y2="106"/>
		<circle fill-rule="evenodd" clip-rule="evenodd" fill="#3DC6EC" cx="134" cy="133" r="8"/>
		<polygon fill-rule="evenodd" clip-rule="evenodd" fill="#FFFFFF" points="130.1,129.1 132.1,130.2 131.2,133.9 129,133.9 
			128.6,131.8 		"/>
	</g>
	<g>
		
			<line fill-rule="evenodd" clip-rule="evenodd" fill="none" stroke="#FFFFFF" stroke-width="2" stroke-linecap="square" stroke-miterlimit="10" x1="118.7" y1="112" x2="138.7" y2="103"/>
		<circle fill-rule="evenodd" clip-rule="evenodd" fill="#3DC6EC" cx="119" cy="112" r="8"/>
		<polygon fill-rule="evenodd" clip-rule="evenodd" fill="#FFFFFF" points="115.1,108.1 117.1,109.2 116.2,112.9 114,112.9 
			113.6,110.8 		"/>
	</g>
	<g>
		
			<line fill-rule="evenodd" clip-rule="evenodd" fill="none" stroke="#FFFFFF" stroke-width="2" stroke-linecap="square" stroke-miterlimit="10" x1="232.7" y1="56" x2="217" y2="90.5"/>
		<circle fill-rule="evenodd" clip-rule="evenodd" fill="#3DC6EC" cx="233" cy="56" r="8"/>
		<polygon fill-rule="evenodd" clip-rule="evenodd" fill="#FFFFFF" points="229.1,52.1 231.1,53.2 230.2,56.9 228,56.9 227.6,54.8 
					"/>
	</g>
	<g>
		
			<line fill-rule="evenodd" clip-rule="evenodd" fill="none" stroke="#FFFFFF" stroke-width="2" stroke-linecap="square" stroke-miterlimit="10" x1="193.7" y1="18" x2="165.7" y2="60.3"/>
		<circle fill-rule="evenodd" clip-rule="evenodd" fill="#3DC6EC" cx="194" cy="18" r="8"/>
		<polygon fill-rule="evenodd" clip-rule="evenodd" fill="#FFFFFF" points="190.1,14.1 192.1,15.2 191.2,18.9 189,18.9 188.6,16.8 
					"/>
	</g>
	<g>
		
			<line fill-rule="evenodd" clip-rule="evenodd" fill="none" stroke="#FFFFFF" stroke-width="2" stroke-linecap="square" stroke-miterlimit="10" x1="146.7" y1="8" x2="142.7" y2="43.3"/>
		<circle fill-rule="evenodd" clip-rule="evenodd" fill="#3DC6EC" cx="147" cy="8" r="8"/>
		<polygon fill-rule="evenodd" clip-rule="evenodd" fill="#FFFFFF" points="143.1,4.1 145.1,5.2 144.2,8.9 142,8.9 141.6,6.8 		"/>
	</g>
	<g>
		
			<line fill-rule="evenodd" clip-rule="evenodd" fill="none" stroke="#FFFFFF" stroke-width="2" stroke-linecap="square" stroke-miterlimit="10" x1="264.7" y1="68" x2="240.7" y2="97.7"/>
		<circle fill-rule="evenodd" clip-rule="evenodd" fill="#3DC6EC" cx="265" cy="68" r="8"/>
		<polygon fill-rule="evenodd" clip-rule="evenodd" fill="#FFFFFF" points="261.1,64.1 263.1,65.2 262.2,68.9 260,68.9 259.6,66.8 
					"/>
	</g>
	<g>
		
			<line fill-rule="evenodd" clip-rule="evenodd" fill="none" stroke="#FFFFFF" stroke-width="2" stroke-linecap="square" stroke-miterlimit="10" x1="193.7" y1="184" x2="170.3" y2="144"/>
		<circle fill-rule="evenodd" clip-rule="evenodd" fill="#3DC6EC" cx="194" cy="184" r="8"/>
		<polygon fill-rule="evenodd" clip-rule="evenodd" fill="#FFFFFF" points="190.1,180.1 192.1,181.2 191.2,184.9 189,184.9 
			188.6,182.8 		"/>
	</g>
	<g>
		<polygon fill-rule="evenodd" clip-rule="evenodd" fill="#F7BE44" points="158.9,125.9 158.9,73.1 150.7,73.1 138.7,76.8 
			138.7,86.6 139.2,86.6 147.1,84 147.1,125.9 		"/>
		<path fill-rule="evenodd" clip-rule="evenodd" fill="#F7BE44" d="M194.9,83v-9.9h-25.4l-1.3,30.3h0.5c0,0,4.1-0.6,7.3-0.6
			c6.9,0,9.2,2.3,9.2,6.9c0,4.5-2.2,6.6-7.7,6.6c-4.5,0-9.3-1.6-9.3-1.6h-0.5v9.8c0,0,4,1.5,10.2,1.5c13.3,0,19.1-6.4,19.1-17.1
			c0-9.9-4.9-15.8-15.1-15.8c-1.7,0-2.9,0.1-2.9,0.1l0.5-10.3H194.9z"/>
	</g>
	<g>
		<path fill-rule="evenodd" clip-rule="evenodd" fill="#FFFFFF" d="M139.7,44.1l0.6-2.2c0.2-0.6,0.3-1.4,0.5-2h0
			c0.2,0.6,0.4,1.4,0.5,2l0.7,2.2H139.7z M142.5,45.9l0.8,3h2.6l-3.3-10.9h-3.2l-3.3,10.9h2.5l0.8-3H142.5z"/>
		<path fill-rule="evenodd" clip-rule="evenodd" fill="#FFFFFF" d="M156,46.8c-0.5,0.2-1.3,0.4-2,0.4c-2.2,0-3.5-1.4-3.5-3.7
			c0-2.5,1.5-3.7,3.4-3.7c0.9,0,1.6,0.2,2.1,0.4l0.5-1.8c-0.4-0.2-1.4-0.4-2.7-0.4c-3.3,0-5.2,1.8-5.2,5.7c0,3.2,1.4,5.3,5,5.3
			c1.3,0,2.3-0.2,2.8-0.4L156,46.8z"/>
		<path fill-rule="evenodd" clip-rule="evenodd" fill="#FFFFFF" d="M162.1,39.9c0.2,0,0.7-0.1,1.6-0.1c1.6,0,2.5,0.6,2.5,1.6
			c0,1-1,1.7-2.8,1.7h-1.4V39.9z M160.3,48.9h1.9v-4.1h1.1c1.4,0,2.1,0.4,2.5,1.6c0.5,1.3,0.7,2.1,0.9,2.4h2
			c-0.2-0.4-0.5-1.8-0.8-2.9c-0.2-0.9-0.5-1.7-1.1-2v0c0.7-0.3,1.5-1.3,1.5-2.8c0-1.1-0.3-1.9-0.8-2.4c-0.6-0.6-1.8-0.8-4-0.8
			c-1.5,0-2.5,0.1-3.1,0.2V48.9z"/>
		<path fill-rule="evenodd" clip-rule="evenodd" fill="#FFFFFF" d="M175.8,39.8c2,0,3.1,1.7,3.1,3.7c0,2.1-1.1,3.7-3,3.7
			c-1.9,0-3.1-1.5-3.1-3.7C172.7,41.4,173.9,39.8,175.8,39.8z M175.9,38c-3.5,0-5,2.3-5,5.6c0,3.1,1.4,5.4,4.8,5.4
			c3.5,0,5.1-2,5.1-5.6C180.7,40.3,179.4,38,175.9,38z"/>
		<path fill-rule="evenodd" clip-rule="evenodd" fill="#FFFFFF" d="M183.3,48.4c0.5,0.3,1.4,0.6,2.6,0.6c3.3,0,4.4-1.4,4.4-3.2
			c0-1.6-0.7-2.6-2.3-3.4c-1.9-0.5-2.7-0.9-2.7-1.6c0-0.6,0.7-1.1,2.1-1.1c1.2,0,1.8,0.3,2.1,0.5l0.4-1.8c-0.5-0.3-1.1-0.5-2.5-0.5
			c-2.9,0-4.1,1.3-4.1,3.1c0,1.6,0.9,2.7,2.5,3.3c1.8,0.5,2.5,0.9,2.5,1.6c0,0.7-0.8,1.2-2.3,1.2c-1.1,0-1.9-0.3-2.4-0.7L183.3,48.4
			z"/>
		<path fill-rule="evenodd" clip-rule="evenodd" fill="#FFFFFF" d="M193.9,48.4c0.5,0.3,1.4,0.6,2.6,0.6c3.3,0,4.4-1.4,4.4-3.2
			c0-1.6-0.7-2.6-2.3-3.4c-1.9-0.5-2.7-0.9-2.7-1.6c0-0.6,0.7-1.1,2.1-1.1c1.2,0,1.8,0.3,2.1,0.5l0.4-1.8c-0.5-0.3-1.1-0.5-2.5-0.5
			c-2.9,0-4.1,1.3-4.1,3.1c0,1.6,0.9,2.7,2.6,3.3c1.8,0.5,2.4,0.9,2.4,1.6c0,0.7-0.8,1.2-2.3,1.2c-1.1,0-1.9-0.3-2.4-0.7L193.9,48.4
			z"/>
	</g>
	<g>
		<path fill-rule="evenodd" clip-rule="evenodd" fill="#FFFFFF" d="M129.5,162.8c-0.5,0.2-1.3,0.4-2,0.4c-2.2,0-3.4-1.4-3.4-3.7
			c0-2.5,1.5-3.7,3.4-3.7c0.9,0,1.5,0.2,2,0.4l0.5-1.8c-0.4-0.2-1.4-0.4-2.7-0.4c-3.3,0-5.2,1.8-5.2,5.7c0,3.2,1.4,5.3,5,5.3
			c1.3,0,2.3-0.2,2.8-0.4L129.5,162.8z"/>
		<path fill-rule="evenodd" clip-rule="evenodd" fill="#FFFFFF" d="M137.7,155.8c2,0,3.1,1.7,3.1,3.7c0,2.1-1.1,3.7-3,3.7
			c-1.9,0-3.1-1.5-3.1-3.7C134.6,157.4,135.8,155.8,137.7,155.8z M137.8,154c-3.5,0-5,2.3-5,5.6c0,3.1,1.4,5.4,4.8,5.4
			c3.5,0,5.1-2,5.1-5.6C142.6,156.4,141.3,154,137.8,154z"/>
		<path fill-rule="evenodd" clip-rule="evenodd" fill="#FFFFFF" d="M145.4,154.1v6.1c0,3.4,1.2,4.8,4.3,4.8c3.3,0,4.6-1.4,4.6-4.8
			v-6.1h-1.9v6.3c0,1.9-0.9,2.8-2.6,2.8c-1.6,0-2.5-1-2.5-2.8v-6.3H145.4z"/>
		<path fill-rule="evenodd" clip-rule="evenodd" fill="#FFFFFF" d="M159.8,164.9v-3.3c0-1.8,0-3.3-0.1-4.7l0,0
			c0.6,1.3,1.4,2.7,2.1,3.8l2.6,4.2h2.2v-10.9H165v3.2c0,1.6,0,3.1,0.2,4.5h0c-0.5-1.2-1.2-2.6-2-3.7l-2.6-4H158v10.9H159.8z"/>
		<polygon fill-rule="evenodd" clip-rule="evenodd" fill="#FFFFFF" points="172.6,164.9 174.4,164.9 174.4,155.8 177.4,155.8 
			177.4,154 169.7,154 169.7,155.8 172.6,155.8 		"/>
		<path fill-rule="evenodd" clip-rule="evenodd" fill="#FFFFFF" d="M183,155.9c0.2,0,0.7-0.1,1.6-0.1c1.6,0,2.6,0.6,2.6,1.6
			c0,1-1,1.7-2.8,1.7H183V155.9z M181.2,164.9h1.9v-4.1h1.1c1.4,0,2.1,0.4,2.5,1.6c0.5,1.3,0.7,2.1,0.8,2.4h2
			c-0.2-0.4-0.5-1.8-0.8-2.9c-0.2-0.9-0.5-1.7-1.1-2v0c0.7-0.3,1.5-1.3,1.5-2.8c0-1.1-0.3-1.9-0.8-2.4c-0.6-0.6-1.8-0.8-4.1-0.8
			c-1.5,0-2.4,0.1-3.1,0.2V164.9z"/>
		<rect x="191.8" y="154.1" fill-rule="evenodd" clip-rule="evenodd" fill="#FFFFFF" width="1.9" height="10.9"/>
		<polygon fill-rule="evenodd" clip-rule="evenodd" fill="#FFFFFF" points="204.2,158.1 200.2,158.1 200.2,155.8 204.4,155.8 
			204.4,154 198.4,154 198.4,165 204.7,165 204.7,163.2 200.2,163.2 200.2,159.9 204.2,159.9 		"/>
		<path fill-rule="evenodd" clip-rule="evenodd" fill="#FFFFFF" d="M208.8,164.4c0.5,0.3,1.4,0.6,2.6,0.6c3.3,0,4.4-1.4,4.4-3.2
			c0-1.6-0.7-2.6-2.3-3.3c-1.9-0.6-2.7-0.9-2.7-1.6c0-0.6,0.7-1.1,2.1-1.1c1.2,0,1.8,0.3,2.1,0.5l0.4-1.8c-0.5-0.3-1.1-0.5-2.5-0.5
			c-2.9,0-4.1,1.3-4.1,3.1c0,1.6,0.9,2.7,2.5,3.3c1.8,0.5,2.5,0.9,2.5,1.6c0,0.7-0.8,1.2-2.3,1.2c-1.1,0-1.9-0.4-2.4-0.7
			L208.8,164.4z"/>
	</g>
</g>
</svg>
