<?xml version="1.0" encoding="utf-8"?>
<!-- Generator: Adobe Illustrator 17.1.0, SVG Export Plug-In . SVG Version: 6.00 Build 0)  -->
<!DOCTYPE svg PUBLIC "-//W3C//DTD SVG 1.1//EN" "http://www.w3.org/Graphics/SVG/1.1/DTD/svg11.dtd">
<svg version="1.1" id="Layer_1" xmlns="http://www.w3.org/2000/svg" xmlns:xlink="http://www.w3.org/1999/xlink" x="0px" y="0px"
	 width="50px" height="50px" viewBox="0 0 50 50" enable-background="new 0 0 50 50" xml:space="preserve">
<path fill-rule="evenodd" clip-rule="evenodd" fill="#00329D" d="M0,25C0,11.2,11.2,0,25,0c13.8,0,25,11.2,25,25
	c0,13.8-11.2,25-25,25C11.2,50,0,38.8,0,25z"/>
<g>
	<path fill-rule="evenodd" clip-rule="evenodd" fill="#FFFFFF" d="M33.7,31.7c0.9-5.4,2.3-10.7,4.2-16.1l-6.5,0.5
		c-3,4.9-5.4,10.2-7.4,16.1L33.7,31.7z M20.9,31.7c0.9-5.4,2.3-10.7,4.2-16.1l-6.5,0.5c-3,4.9-5.4,10.2-7.4,16.1L20.9,31.7z"/>
</g>
</svg>
