<?xml version="1.0" encoding="utf-8"?>
<!-- Generator: Adobe Illustrator 17.1.0, SVG Export Plug-In . SVG Version: 6.00 Build 0)  -->
<!DOCTYPE svg PUBLIC "-//W3C//DTD SVG 1.1//EN" "http://www.w3.org/Graphics/SVG/1.1/DTD/svg11.dtd">
<svg version="1.1" id="Layer_1" xmlns="http://www.w3.org/2000/svg" xmlns:xlink="http://www.w3.org/1999/xlink" x="0px" y="0px"
	 width="160px" height="35.8px" viewBox="0 0 160 35.8" enable-background="new 0 0 160 35.8" xml:space="preserve">
<g>
	<polygon fill-rule="evenodd" clip-rule="evenodd" fill="#1B86C8" points="63.6,29.8 63.6,35.7 62.1,35.7 62.2,29.8 	"/>
	<path fill-rule="evenodd" clip-rule="evenodd" fill="#1B86C8" d="M67.2,35.7l0-6H69l1.3,2.2c0.4,0.6,0.8,1.4,1.1,2h0
		c-0.1-0.8-0.1-1.6-0.1-2.5l0-1.7h1.3l0,6h-1.5l-1.4-2.3c-0.4-0.6-0.8-1.4-1.1-2.1h0c0,0.8,0.1,1.6,0.1,2.6l0,1.8H67.2z"/>
	<polygon fill-rule="evenodd" clip-rule="evenodd" fill="#1B86C8" points="77.5,30.9 75.7,30.9 75.8,29.8 80.7,29.8 80.7,30.9 
		79,30.9 79,35.7 77.5,35.7 	"/>
	<polygon fill-rule="evenodd" clip-rule="evenodd" fill="#1B86C8" points="87.7,33.2 85.3,33.2 85.3,34.6 88,34.6 88,35.7 
		83.9,35.7 83.9,29.8 87.9,29.8 87.9,30.9 85.3,30.9 85.3,32.1 87.7,32.1 	"/>
	<path fill-rule="evenodd" clip-rule="evenodd" fill="#1B86C8" d="M92.8,32.4h0.6c0.7,0,1.2-0.3,1.2-0.9s-0.4-0.8-1.1-0.8
		c-0.4,0-0.6,0-0.7,0L92.8,32.4z M91.4,29.9c0.5-0.1,1.2-0.1,2-0.1c1,0,1.6,0.1,2.1,0.5c0.4,0.3,0.6,0.7,0.6,1.2
		c0,0.8-0.6,1.3-1.2,1.5v0c0.5,0.2,0.7,0.6,0.9,1.1c0.2,0.7,0.4,1.5,0.5,1.7h-1.5c-0.1-0.2-0.3-0.7-0.4-1.4c-0.2-0.8-0.5-1-1.1-1
		h-0.4v2.3h-1.5L91.4,29.9z"/>
	<path fill-rule="evenodd" clip-rule="evenodd" fill="#1B86C8" d="M99.4,35.7l0-6h1.7l1.3,2.2c0.4,0.6,0.8,1.4,1.1,2h0
		c-0.1-0.8-0.1-1.6-0.1-2.5v-1.7h1.3l0,6h-1.5l-1.4-2.3c-0.4-0.6-0.8-1.4-1.1-2.1h0c0,0.8,0.1,1.6,0.1,2.6v1.8H99.4z"/>
	<path fill-rule="evenodd" clip-rule="evenodd" fill="#1B86C8" d="M111.6,33.2l-0.4-1.3c-0.1-0.4-0.2-0.8-0.3-1.1h0
		c-0.1,0.4-0.2,0.8-0.3,1.1l-0.4,1.3H111.6z M109.9,34.2l-0.5,1.5H108l2-6h1.9l2,6h-1.6l-0.5-1.5H109.9z"/>
	<polygon fill-rule="evenodd" clip-rule="evenodd" fill="#1B86C8" points="117.6,30.9 115.8,30.9 115.8,29.8 120.8,29.8 120.8,30.9 
		119,30.9 119,35.7 117.6,35.7 	"/>
	
		<rect x="121.7" y="32" transform="matrix(1.680687e-03 -1 1 1.680687e-03 91.6988 157.3667)" fill-rule="evenodd" clip-rule="evenodd" fill="#1B86C8" width="6" height="1.5"/>
	<path fill-rule="evenodd" clip-rule="evenodd" fill="#1B86C8" d="M131.9,34.8c1,0,1.6-0.8,1.6-2c0-1.1-0.6-2-1.6-2
		c-1,0-1.6,0.9-1.6,2C130.3,33.9,130.9,34.8,131.9,34.8L131.9,34.8z M131.8,35.8c-1.9,0-3.1-1.3-3-3c0-1.8,1.2-3.1,3.2-3.1
		c2,0,3.1,1.4,3.1,3C135,34.7,133.7,35.8,131.8,35.8L131.8,35.8z"/>
	<path fill-rule="evenodd" clip-rule="evenodd" fill="#1B86C8" d="M138.3,35.7v-6h1.7l1.3,2.2c0.4,0.6,0.8,1.4,1.1,2h0
		c-0.1-0.8-0.1-1.6-0.1-2.5l0-1.7h1.3v6h-1.5l-1.4-2.3c-0.4-0.6-0.8-1.4-1.1-2.1h0c0.1,0.8,0.1,1.6,0.1,2.6v1.8H138.3z"/>
	<path fill-rule="evenodd" clip-rule="evenodd" fill="#1B86C8" d="M150.4,33.2l-0.4-1.3c-0.1-0.4-0.2-0.8-0.3-1.1h0
		c-0.1,0.4-0.2,0.8-0.3,1.1l-0.4,1.3H150.4z M148.8,34.2l-0.4,1.5h-1.5l2-6h1.9l2,6h-1.6l-0.5-1.5H148.8z"/>
	<polygon fill-rule="evenodd" clip-rule="evenodd" fill="#1B86C8" points="156,29.8 157.4,29.8 157.4,34.6 160,34.6 160,35.7 
		156,35.7 	"/>
	<path fill="#1B86C8" d="M54.9,27.6c-0.7-2.2-1.7-4.4-2.9-6.4H41.7c0.8,2,1.4,4.1,1.8,6.4H54.9z"/>
	<path fill="#1B86C8" d="M28.2,21.2l0,6.4h14.4c-0.4-2.3-1-4.4-1.8-6.4H28.2z"/>
	<path fill="#1B86C8" d="M51.2,20c-1-1.4-2-2.6-3.2-3.8c-0.7-0.6-1.3-1.3-2-1.8H38c1.2,1.6,2.3,3.6,3.2,5.6H51.2z"/>
	<path fill="#1B86C8" d="M28.2,14.4l0,5.6h12.1c-0.9-2.1-2.1-4-3.4-5.6H28.2z"/>
	<path fill="#1B86C8" d="M28.2,8.5L28.2,8.5l0,4.7h7.6C33.7,10.9,31.1,9.2,28.2,8.5z"/>
	<path fill="#1B86C8" d="M37.1,13.2h7.3c-4-2.8-8.8-4.5-13.7-4.9C33,9.4,35.2,11,37.1,13.2z"/>
	<path fill="#1B86C8" d="M56.1,35.6v-0.2c0-2.3-0.3-4.5-0.8-6.6H43.7c0.3,2.2,0.5,4.5,0.5,6.8h11.6H56.1z"/>
	<path fill="#1B86C8" d="M28.2,28.7l0,6.6v0.2h0.2h14.9c0-2.4-0.2-4.7-0.5-6.8H28.2z"/>
	<polygon fill="#FFFFFF" points="18.6,7.6 23.5,7.6 23.6,2.7 18.6,2.7 	"/>
	<path fill="#FFFFFF" d="M15.9,2.9c-0.6,1-1.8,1.3-2.6,0.8C12.5,3.2,12.4,2,13,1s1.8-1.3,2.6-0.8C16.4,0.7,16.5,1.9,15.9,2.9z"/>
	<path fill="#FFFFFF" d="M8.5,6.3C7.7,8,7.6,10.3,7.6,10.9c-0.1,0.5,1,0.8,2.2,0.5c1-0.2,3.9-3.9,3.9-3.9s1.3,1.1,2.5,1.7
		c1,0.5,2.2,0.4,3.4-0.2c1.3-0.6,1.2-1.3,0.2-1c-1.3,0.4-2.2,0-3.4-1c-1.1-1-1.2-1.2-1.7-1.8c-1.3-1.3-3.1-1.5-3.7-1.4
		C10.6,4,9.5,4.3,8.5,6.3z"/>
	<path fill="#FFFFFF" d="M11.7,12.6c0,0,2.3,0.4,3.1,1.7c0.8,1.3,0.4,4.1-0.2,5.5c-0.5,1.3-2,1.2-1.8-0.4c0.4-2.3,0.6-3.8-2.5-3.8
		c-2.1,0-2.8,4-3.3,5.4c-0.9,2.5-3.4,4.5-4.1,5c-0.9,0.6-1.6,0.5-1.1-0.9c0.8-2.1,3-3,3.3-6c0.1-1.2,0.1-5.5,0.9-6.3
		C7.3,11.6,11.7,12.6,11.7,12.6z"/>
	<polygon fill="#FFFFFF" points="9.3,27.6 27.1,27.6 27.1,21.2 9.3,21.2 	"/>
	<polygon fill="#FFFFFF" points="17.8,20 27.1,20 27.1,14.3 17.8,14.3 	"/>
	<polygon fill="#FFFFFF" points="27.1,35.6 0,35.6 0,28.7 27.1,28.7 	"/>
	<path fill-rule="evenodd" clip-rule="evenodd" fill="#FFFFFF" d="M70.2,7.2c0.8,0,1,0.3,1,1.1c0,6.5-5.6,7.9-5.6,14.4
		c0,0.5,0.1,0.9,0.1,1.3c0,0.4-0.7,0.4-1,0.4h-2.4c-0.6,0-0.7-0.8-0.7-1.2c0-2.5,1.4-4.3,1.4-5c0-0.7-4.8-4-4.8-9.5
		c0-1.6,0.3-1.6,1.2-1.6h1.7c0.4,0,1.2,0,1.2,0.5c0,0.2-0.2,1.3-0.2,1.6c0,3,2,5.6,2.7,5.6c0.6,0,3-3.3,3-5.7c0-0.7-0.2-1.5-0.2-1.7
		c0-0.4,0.5-0.4,0.8-0.4H70.2z"/>
	<path fill-rule="evenodd" clip-rule="evenodd" fill="#FFFFFF" d="M78.2,17.3c0-1.6-0.6-4-2.7-4s-2.7,2.3-2.7,4c0,1.7,0.5,4,2.7,4
		C77.7,21.3,78.2,18.9,78.2,17.3z M70.3,17.8c0-3.3,1.6-6.9,5.3-6.9c3.7,0,5.3,3.6,5.3,6.9c0,4.9-2.9,7-5.3,7
		C73.1,24.7,70.3,22.6,70.3,17.8z"/>
	<path fill-rule="evenodd" clip-rule="evenodd" fill="#FFFFFF" d="M91.1,11.2c0.9,0,0.9,4.4,0.9,6.3c0,7.6-0.6,7.2-2.1,7.2
		c-2.2,0-0.5-1.2-1.7-1.2c-0.2,0-0.7,0.4-1.1,0.7c-0.4,0.2-0.9,0.5-1.6,0.5c-1.7,0-3.3-1.1-3.3-7c0-0.4,0.2-6.6,1-6.6h1.9
		c0.3,0,0.8-0.1,0.8,0.3c0,0.3-1,2.4-1,6.3c0,1.2,0,4.3,1.8,4.3c0.7,0,2.3-0.2,2.3-4.7c0-2.5-0.7-5.7-0.7-6c0-0.3,0.5-0.2,0.7-0.2
		H91.1z"/>
	<path fill-rule="evenodd" clip-rule="evenodd" fill="#FFFFFF" d="M98.8,8.6c0,0.6-0.6,1.8-0.6,2.1c0,0.4,0.1,0.6,0.4,0.6
		c0.3,0,0.5-0.1,0.8-0.1c0.8,0,0.8,0.6,0.8,1.3c0,0.3,0,1.1-0.5,1.1c-0.2,0-0.6-0.2-1-0.2c-1.2,0-1.2,1.3-1.2,3.2
		c0,5.5,1.2,6.4,1.2,6.8c0,0.3-2.4,1.5-2.9,1.5c-0.8,0-1-4.6-1-5.8c0-2.6,0.1-3.5,0.1-3.9c0-0.6,0.2-1.7-0.8-1.7
		c-0.4,0-0.6,0.2-0.8,0.2c-0.3,0-0.2-0.3-0.2-0.6c0-1.6,0.5-1.8,1.3-1.8c0.1,0,0.2,0.1,0.4,0.1c0.7,0,0.7-1,0.8-1.7
		c0.1-0.8,2.5-1.4,2.9-1.4C98.7,8.1,98.8,8.2,98.8,8.6z"/>
	<path fill-rule="evenodd" clip-rule="evenodd" fill="#FFFFFF" d="M104.9,6.8c0.2,0,0.3,0.2,0.3,0.4c0,0.3-0.8,2.3-0.8,4
		c0,0.2,0,0.6,0.3,0.6c0.2,0,0.5-0.2,1-0.4c0.5-0.2,1.1-0.5,1.8-0.5c1.9,0,3.3,1.3,3.3,6.3c0,2-0.3,7.2-1,7.2h-2.2
		c-0.2,0-0.8,0.1-0.8-0.3c0-0.1,1.1-4.2,1.1-7c0-3.2-0.5-3.9-1.6-3.9c-2.1,0-2.2,3.2-2.2,4.7c0,4.1,0.5,5.5,0.5,6.1
		c0,0.3-0.4,0.3-0.6,0.3H102c-0.6,0-0.6,0.7-0.6-8.5c0-1.6,0.1-9.2,1.2-9.2H104.9z"/>
	<path fill-rule="evenodd" clip-rule="evenodd" fill="#FFFFFF" d="M116.9,17.1c-0.6,0.3-0.9,0.4-0.9,1.1c0,3.1,0.8,3.5,2.5,3.5
		c1.5,0,3-0.6,3-2.2c0-1.5-1.8-3.5-2.4-3.5c-0.3,0-0.7,0.2-0.9,0.4L116.9,17.1z M119.1,13.2c0.6-0.4,1.5-1.4,1.5-2.3
		c0-1-0.9-1.2-1.7-1.2c-2.1,0-3,0.9-3,4.1c0,0.4,0,0.9,0.5,0.9c0.2,0,0.8-0.2,1.1-0.4L119.1,13.2z M114,24.4c-0.5,0-1.2,0.4-1.1-7.4
		c0-10.2,1.1-9.9,1.5-9.9h5.4c3.7,0,4.3,1.7,4.3,3c0,2.3-2.4,3.6-2.4,4.2c0,0.7,3.4,2.4,3.4,6c0,2-1.2,4-4.7,4H114z"/>
	<path fill-rule="evenodd" clip-rule="evenodd" fill="#FFFFFF" d="M135.2,11.2c0.9,0,0.9,4.4,0.9,6.3c0,7.6-0.6,7.2-2.1,7.2
		c-2.2,0-0.5-1.2-1.7-1.2c-0.2,0-0.7,0.4-1.1,0.7c-0.4,0.2-0.9,0.5-1.6,0.5c-1.7,0-3.4-1.1-3.3-7c0-0.4,0.2-6.6,1-6.6h1.9
		c0.3,0,0.8-0.1,0.8,0.3c0,0.3-1,2.4-1,6.3c0,1.2,0,4.3,1.8,4.3c0.7,0,2.3-0.2,2.3-4.7c0-2.5-0.7-5.7-0.7-6c0-0.3,0.5-0.2,0.7-0.2
		H135.2z"/>
	<path fill-rule="evenodd" clip-rule="evenodd" fill="#FFFFFF" d="M138.3,8.2c0-0.9,0.8-1.4,1.6-1.4s1.6,0.5,1.6,1.4
		c0,0.9-0.8,1.4-1.6,1.4S138.3,9.1,138.3,8.2z M139.2,24.4c-1,0-1.1,0.4-1.1-6.9c0-7.1,0.3-6.4,1-6.4h1.2c0.9,0,0.9,0.1,0.9,0.3
		c0,0.8-0.2,1.5-0.2,3.8c0,5.2,0.8,8.4,0.8,8.6c0,0.7-0.6,0.5-1.1,0.5H139.2z"/>
	<path fill-rule="evenodd" clip-rule="evenodd" fill="#FFFFFF" d="M144.5,24.4c-0.7,0-0.6-6.9-0.6-7.4c0-1-0.1-10.3,0.9-10.3h2
		c0.2,0,0.9-0.1,0.9,0.4c0,0.1-0.9,3.1-0.9,8.3c0,5.7,0.8,8.5,0.8,8.8c0,0.4-0.5,0.2-0.8,0.2H144.5z"/>
	<path fill-rule="evenodd" clip-rule="evenodd" fill="#FFFFFF" d="M155.7,16.7c0-3.6-0.6-3.9-1.3-3.9c-0.9,0-3,1.2-3,4.9
		c0,1.4,0.6,3.6,2.3,3.6C156,21.4,155.7,18.2,155.7,16.7z M152.9,24.4c-2.4,0-4.4-2-4.4-6.2c0-4.7,3.2-7.3,5-7.3
		c0.4,0,0.9,0.5,1.2,0.5c0.4,0,0.5-0.8,0.5-1.1c0-1.7-0.5-2.4-0.5-3.2c0-0.3,0.5-0.3,0.7-0.3h2.2c0.9,0,0.9,9.3,0.9,10.3
		c0,0.5,0.1,7.4-0.7,7.4H152.9z"/>
</g>
</svg>
