<?xml version="1.0" encoding="utf-8"?>
<!-- Generator: Adobe Illustrator 17.1.0, SVG Export Plug-In . SVG Version: 6.00 Build 0)  -->
<!DOCTYPE svg PUBLIC "-//W3C//DTD SVG 1.1//EN" "http://www.w3.org/Graphics/SVG/1.1/DTD/svg11.dtd">
<svg version="1.1" id="Layer_1" xmlns="http://www.w3.org/2000/svg" xmlns:xlink="http://www.w3.org/1999/xlink" x="0px" y="0px"
	 width="150px" height="41.9px" viewBox="0 0 150 41.9" enable-background="new 0 0 150 41.9" xml:space="preserve">
<g>
	<path fill="#FFFFFF" d="M6.8,36.2c-1.1-0.1-2.4-0.1-3.5-0.3L2.8,36c0-0.1-0.2-0.1-0.1-0.2c0.2-0.3,0.7-0.1,1-0.1
		c0.3-0.3,0.4-0.7,0.6-1c0.6-1,0.9-2.4,1.7-3.4C7,31.2,7.8,31.4,9,31.4c0.3-0.3,0.5-0.7,0.5-1.1c-0.3-0.1-0.6-0.4-1-0.3
		C8,29.6,7.6,29.5,7.2,29c0.4-0.3-0.1-0.7,0.1-1.2C7.8,27,8,26.1,8.6,25.4l3.1,0.3c0-0.1,0.2-0.1,0.2-0.2c0-0.2,0.4-0.6,0.1-0.7
		c-0.9,0-1.3-1-2.1-1.3l0-0.1c0.4-0.5,0.1-1.3,0.4-1.8c0.4-0.7,0.5-1.5,1.1-2l3,0.3c0.3-0.2,0.4-0.6,0.4-0.9
		c-1.2-0.2-2.4-0.2-3.6-0.3l0.8-0.5c0.7-1.5,1.3-2.8,2-4.3c1.1-0.1,2,0.1,3.2,0.2l0.1-0.1c0-0.3,0.4-0.5,0.2-0.8l-1.8-0.1l-0.1-0.1
		c0.3-0.3,0.9-0.1,1.3-0.2c0.1-0.1-0.1-0.2-0.1-0.3c-0.5-0.4-1.2-0.4-1.8-0.8c0.5-1.2,1-2.4,1.6-3.5l1.9,0.1c0.5,0,1,0.3,1.4,0
		c0-0.3,0.4-0.6,0.1-0.8l-4-0.3l0-0.2c0.4-0.3,0.8,0.1,1.2-0.1c0.1-0.2,0.2-0.4,0.3-0.6c0.1-0.3,0.1-0.8-0.1-1
		c-0.2-0.2-0.7-0.4-1-0.3c-0.6,0.2-0.5,0.8-0.9,1.1l0,0c0-0.4-0.5-0.4-0.7-0.5c-0.3-0.2-0.4-0.6-0.5-1c-0.2-0.7-0.8-1.5-0.5-2.3
		c0.3-0.2,0.6-0.4,1-0.3c0.1-0.1,0.2-0.1,0.2-0.3c0-0.3-0.2-0.4-0.3-0.7c-0.4-0.2-0.6,0.4-1,0.4C12.7,1,12,1.6,11.3,2.1
		c-0.2,0.3-0.3,0.9-0.2,1.3h0.1c0.1-0.3,0.1-0.6,0.4-0.8c0.2-0.2,0.4-0.2,0.6-0.1c0.6,0.2,0.7,0.9,0.8,1.5c0.1,0.6,0.7,1.4,0.2,2
		c0,0.4-0.3,0.8-0.2,1.2c-0.6,1-1.6,1.8-2.4,2.5l-0.5,0C9.5,9.3,8.5,9,8.4,8.2c0.3-0.3,1-0.1,1.2-0.5c0.3-0.2,0.2-0.6,0.2-1
		c0-0.1,0-0.2-0.1-0.3c0.1-0.2,0-0.4-0.1-0.5C10,5.4,9.1,5.2,9,4.8C9,4.2,9.8,4.4,10,4C9.9,3.5,9.2,3.8,8.9,3.6L8.1,2.7
		C7,2.1,5.7,2.2,4.7,2.9C3.9,3.5,3.6,4.6,3.8,5.7C4.1,6.2,3.9,7.1,4.7,7c0.2,0.1,0.1,0.4,0.2,0.5c0,0.4,0.7,0.5,0.6,0.9
		c-1,1-1.7,2.1-2.4,3.3l-0.2,0.4c-0.2,0.5-0.2,0.5-0.3,0.8c-0.2,0.5-0.2,0.9-0.5,1.3c0.1,0.7-0.9,0.8-0.6,1.5c-0.8,0.8-0.6,2-0.5,3
		c0.2,0,0.3-0.2,0.4-0.2c-0.1,0.4,0.1,0.9,0.3,1.3C2,20,1.9,19.3,2.2,19.6c0.5,0.9,1,1.8,1.3,2.7l0,0.1c1,2,0.6,4.6,1.1,6.8
		c-0.4,1.1-1,2.2-1.5,3.3c-0.7,1.5-1.4,3.1-2.2,4.6c-0.1,0.3-0.7,1.4-0.8,1.7c-0.2,0.6-0.4,1.1-0.2,1.8c0.3,0.3,0.7,0.4,1.1,0.3
		c0.6-0.4,0.7-1,0.9-1.5c0.4-0.8,0.6-1.4,1.2-2.3l3.1,0.2C6.6,36.9,6.8,36.6,6.8,36.2z M8.1,22.3c0,0.2,0,0.3-0.2,0.3
		C7.7,22.3,8,22.2,8,21.9c0.3-0.8,0.6-1.7,0.8-2.6h0.1C8.8,20.3,8.6,21.4,8.1,22.3z M14.6,12.7c-0.3,0.1-0.9,0-1.2,0
		c-0.1-0.2,0.1-0.1,0.2-0.2C13.9,12.5,14.3,12.5,14.6,12.7z M13.1,9.2c0.4-0.4,0.8-1,1.2-1.3l0.1,0c-0.3,0.9-0.8,1.8-1.2,2.7
		c-0.3,0.1-0.6-0.2-0.9-0.3C12.4,10,12.9,9.6,13.1,9.2z M11.4,9.6c-0.1,0.1-0.1,0.2-0.2,0.2C11.1,9.6,11.3,9.6,11.4,9.6z M7.7,13.7
		c0.4-0.5,0.5-1.3,1.1-1.6c0.8,0,1.9,1,2.4,0c0.3-0.1,0.8,0,1.1,0.2c-0.1,1.1-0.9,2.1-1.3,3.1c-0.2,0.4-0.3,0.6-0.5,1
		c-0.5-0.2-1.1-0.2-1.7-0.3c-0.7-0.1-1.4-0.4-2.1-0.6C6.8,14.8,7.3,14.3,7.7,13.7z M6.5,16c1.4,0.2,2.7,0.5,4,0.9
		c0,0.1,0.2,0.1,0.1,0.3c-1-0.2-2-0.5-3-0.7c-0.4,0-0.8-0.2-1.1-0.3L6.5,16z M7.4,18.8c0.3,0.2,0.9-0.2,0.9,0.4
		c0,0.8-0.4,1.4-0.6,2.1c-0.1,0.5-0.5,1-0.2,1.5C7.4,23.5,7,24,6.8,24.6c-0.2-0.2,0-0.6-0.1-0.9c0-1.6-0.7-3-0.6-4.6
		C6.4,18.9,7,19,7.4,18.8z M4.5,4.3C4.3,5,4.4,5.9,4.7,6.6c-0.5-1-0.5-2.4,0.1-3.2c0.2-0.2,0.6-0.6,1-0.5C5.1,3,4.7,3.7,4.5,4.3z
		 M2.4,15.1c0-0.7,0.3-1.2,0.5-1.8C3.4,12,4.1,10.8,5,9.7c-0.1,0.3-0.4,0.8-0.6,1.2c-0.7,1.2-1.3,2.5-1.6,3.9L3,14.9
		C2.8,15.1,2.6,15,2.4,15.1z M4.6,23.5c-0.5-1.3-1-2.4-1.6-3.7l0.1-0.1c0.8,1.2,1.2,2.3,1.7,3.6C4.8,23.4,5,23.5,5,23.7
		c0,1.7,0.2,3.4,0.5,5c-0.4,0.2-0.3-0.3-0.4-0.5C4.9,26.7,4.7,25.1,4.6,23.5z"/>
	<path fill="#FFFFFF" d="M36.7,5.5c0.3-1.4,0.6-3.4,0-4.7c-0.4-0.5-0.9-0.7-1.5-0.7c-1.2,0.3-2.8-0.3-3.8,0.3
		c-0.5,0.2-0.2,0.9-0.3,1.4c0.7,3.5-0.9,6.6-2.6,9.2c-0.3,0.4-0.6,0.9-1.1,0.9c-0.1,0.3,0.1,0.7-0.2,0.9c-0.6-0.1-1,0-1.6,0
		c-0.1,0.4,0,0.8,0,1.3c-0.5,0.3-1.2,0-1.7,0.1c-0.2,0.4,0,0.8-0.1,1.3c-0.1,0.2-0.4,0.1-0.6,0.1c0.3,0.7,1,1.2,1.3,1.9
		c-0.3,1-0.8,1.9-1.1,2.9c-0.3,0.5-0.4,1.1-0.6,1.7c-0.4,1.4-0.5,3-0.1,4.4c0.2,0.4,0.5,0.9,1.1,0.8c1.4-0.1,3.2,0.2,4.6,0
		c1.5-0.3,0.7-1.9,0.9-2.9c-0.3-1.2,0.1-2.3,0.2-3.5C30.6,15.2,35.8,11.5,36.7,5.5z"/>
	<path fill="#FFFFFF" d="M23.4,1l0.1-0.1c0.1-0.3,0.1-0.6,0-0.8l-0.1-0.1c-1.1-0.1-2.1-0.1-3.2,0l0,0.8C21.2,1.2,22.3,1,23.4,1z"/>
	<path fill="#FFFFFF" d="M18.1,2.4c0.2-0.4,0.1-0.8,0.1-1.3c0.5-0.3,1.1,0,1.6-0.1C20,0.8,19.9,0.6,20,0.3c-0.2-0.7-1-0.1-1.4,0
		c-0.5,0.5-0.9,1.3-0.7,2.1L18.1,2.4z"/>
	<path fill="#FFFFFF" d="M24.6,1l0-0.2c-0.2-0.3-0.4-0.6-0.8-0.5l0,0.8L24.6,1z"/>
	<path fill="#FFFFFF" d="M22,1.4c-0.1,0.3,0,0.7,0,1.1c0.9,0.1,1.7,0,2.6,0c0-0.4,0.3-0.7,0.1-1.1C23.7,1.4,22.9,1.2,22,1.4z"/>
	<path fill="#FFFFFF" d="M21.7,2.4c0-0.4,0.1-0.6,0-1c-1.1,0-2.2-0.2-3.2,0c-0.1,0.3-0.1,0.7,0,1l3,0.1L21.7,2.4z"/>
	<path fill="#FFFFFF" d="M23.5,3.8l0-1l-0.1-0.1c-1,0-2.1,0-3.1,0c-0.2,0.3-0.1,0.8-0.1,1.1C21.3,4,22.4,3.9,23.5,3.8z"/>
	<path fill="#FFFFFF" d="M23.9,2.8l-0.1,1c0.1,0.2,0.3,0.1,0.5,0.1c0.3-0.2,0.1-0.8,0.2-1.1L23.9,2.8z"/>
	<path fill="#FFFFFF" d="M19.9,3.8L20,3.1l-0.1-0.4c-0.6-0.2-1.4,0.1-2.1,0c0,0.3-0.1,0.8,0,1C18.6,3.8,19.2,3.9,19.9,3.8z"/>
	<path fill="#FFFFFF" d="M23.4,11.4c-0.7-0.3-1.7,0-2.4-0.2c0-0.2,0.4-0.1,0.6-0.3c0.2-0.4,0.2-0.8,0-1.2c0.6-0.2,1.2,0,1.8-0.1
		c0.1-0.3,0.1-0.8,0-1.1l-1,0c0,0-0.1-0.1-0.1-0.1c0.9-0.3,2,0,2.9-0.2c0-0.4-0.2-0.7-0.3-1c-0.6-0.2-1.2,0-1.9-0.1l-0.1-0.1
		c0.1-0.2,0.3-0.2,0.5-0.2c0.1-0.3,0-0.7,0-1.1c-0.2,0-0.5,0-0.6-0.2c0.5-0.1,1.2,0,1.7-0.2c0.1-0.4-0.2-0.6-0.1-0.9l-0.1-0.1
		c-0.8-0.1-1.6,0-2.4,0c-0.3,0.3,0.3,1.2-0.4,1.3c-0.5,1-1,2-1.5,3h0c-0.1,0.3-0.2,0.6-0.3,0.9c-2.1,4.6-4.3,9.2-6.3,13.8
		C11.1,28.4,8.6,33.7,6.2,39c-0.2,0.8-1,1.4-0.7,2.3c0.2,0.1,0.2,0.5,0.5,0.5c0.3,0,0.8,0,1-0.3c0.6-1.4,1.3-2.8,2-4.3
		c3.2-7,6.4-14,9.6-20.9c0.7-1.3,1.1-2.7,1.8-4l2.9,0.1C23.5,12.2,23.5,11.7,23.4,11.4z"/>
	<path fill="#FFFFFF" d="M21.6,4.2c-1-0.1-2,0-3-0.1c-0.4,0.2-0.1,0.8-0.1,1.1c0.9,0.1,2,0,2.9,0c0.4-0.1,0.2-0.6,0.3-0.9L21.6,4.2z
		"/>
	<path fill="#FFFFFF" d="M18,4.1c-0.2,0.3-0.1,0.8,0,1.1l0.1,0C18.1,4.9,18.4,4.2,18,4.1z"/>
	<path fill="#FFFFFF" d="M23.8,5.7c-0.1,0.3-0.1,0.7,0,1c0.3,0.1,0.7,0.2,1,0c0-0.3,0-0.7-0.1-1C24.4,5.6,24,5.5,23.8,5.7z"/>
	<path fill="#FFFFFF" d="M20.2,6.6h0.2c0.1-0.4,0.5-0.7,0.4-1l-0.5,0L20.2,6.6z"/>
	<path fill="#FFFFFF" d="M18.3,5.5c-0.6,0.1,0,0.7-0.1,1.1l1.2,0.1c0.8,0.2,0.3-0.8,0.5-1.2L18.3,5.5z"/>
	<path fill="#FFFFFF" d="M23.8,8.6c0,0.3-0.1,0.8,0.1,1c0.7,0.1,1.3,0,2,0c0-0.4-0.3-0.7-0.4-1c-0.4-0.2-1-0.1-1.4-0.1L23.8,8.6z"/>
	<path fill="#FFFFFF" d="M19.1,9.3c0.3-0.1,0.4-0.6,0.5-0.9l-0.7,0C18.7,8.7,19,9,19.1,9.3z"/>
	<path fill="#FFFFFF" d="M25.2,9.9l-2.6-0.1L22,9.9c-0.1,0.3-0.1,0.7,0,1.1c1.2,0,2.1,0.2,3.2,0C25.2,10.7,25.3,10.3,25.2,9.9z"/>
	<path fill="#FFFFFF" d="M25.5,10.9c0.3,0.2,0.8,0.2,1.2,0c-0.2-0.3-0.4-1.1-1-1.1C25.5,10.1,25.6,10.6,25.5,10.9z"/>
	<path fill="#FFFFFF" d="M23.8,11.4c-0.1,0.3-0.1,0.8,0,1.1c1.1,0.1,2,0,3.1,0.1c0.2-0.3,0.1-0.8,0.1-1.1
		C26,11.3,24.9,11.4,23.8,11.4z"/>
	<path fill="#FFFFFF" d="M25.2,12.8c-1.1,0-2.1-0.2-3.2,0c0,0.3-0.1,0.8,0,1c1,0.1,2.1,0.1,3.1,0.1c0.3-0.2,0.1-0.5,0.2-0.7
		L25.2,12.8z"/>
	<path fill="#FFFFFF" d="M20.9,12.7c0,0.5,0.4,0.8,0.7,1.1c0.2-0.4,0-0.6,0-1L20.9,12.7z"/>
	<path fill="#FFFFFF" d="M23.4,15.2c0-0.3,0.1-0.7-0.1-1c-0.5,0-1-0.1-1.4,0c0.1,0.4,0.5,0.8,0.7,1.1C22.9,15.3,23.2,15.4,23.4,15.2
		z"/>
	<path fill="#FFFFFF" d="M124.1,20.4H123c-0.1,0-0.4,0-0.4,0.1c0,0.2,0.6,1,0.6,3.4c0,2.5-1.2,2.7-1.8,2.7c-0.7,0-1.6-0.7-1.6-2.8
		c0-2.1,0.6-3.1,0.6-3.3c0-0.1-0.1-0.1-0.2-0.1h-1.6c-0.2,0-0.6,0.8-0.6,3.7c0,2.8,1.3,4.1,3.5,4.1c2.4,0,3.5-1.6,3.5-4.3
		C124.8,20.5,124.4,20.4,124.1,20.4z"/>
	<path fill="#FFFFFF" d="M126.8,26.2c-0.7,0-1.2,0.5-1.2,1s0.6,1,1.3,1c0.7,0,1.3-0.4,1.3-1C128.1,26.6,127.5,26.2,126.8,26.2z"/>
	<path fill="#FFFFFF" d="M132.6,23.4c-0.6-0.2-1.8-0.4-1.8-1.1c0-0.5,0.7-0.8,1.3-0.8c1.2,0,1.6,0.8,1.9,0.8c0.3,0,0.9-0.8,0.9-1.1
		s-1.2-1-2.8-1c-2.3,0-3,1.3-3,2.1c0,0.8,0.3,1.7,2.8,2.3c0.7,0.2,1.7,0.5,1.7,1.1c0,0.6-0.8,0.9-1.6,0.9c-2.5,0-2.2-1.9-2.5-1.9
		c-0.1,0-0.7,0.5-0.7,1.2c0,1.5,1.6,2.2,3.2,2.2c2.4,0,3.3-1.3,3.3-2.4C135.5,24.9,135,24,132.6,23.4z"/>
	<path fill="#FFFFFF" d="M137.5,26.2c-0.7,0-1.2,0.5-1.2,1s0.6,1,1.3,1c0.7,0,1.3-0.4,1.3-1C138.8,26.6,138.2,26.2,137.5,26.2z"/>
	<path fill="#FFFFFF" d="M143.4,20.3c-0.5,0-3.9,1.8-3.9,5.8c0,1.2,0.2,2,0.7,2h1.6c0.1,0,0.2,0,0.2-0.1c0-0.1-0.7-0.9-0.7-1.7
		c0-1,1.7-1.2,2.7-1.2c0.5,0,1,0.2,1,0.6c0,1-0.9,2-0.9,2.2c0,0.1,0.3,0.1,0.4,0.1h1.3c0.3,0,0.8,0.2,0.8-2.2
		C146.7,21.6,143.8,20.3,143.4,20.3z M144.1,23.9c-1,0-2.1,0.2-2.3,0.2c-0.1,0-0.2-0.1-0.2-0.2c0-0.7,1.2-2.1,1.8-2.1
		c0.4,0,1.3,1.2,1.3,1.8C144.7,23.9,144.5,23.9,144.1,23.9z"/>
	<path fill="#FFFFFF" d="M148.7,26.2c-0.7,0-1.2,0.5-1.2,1s0.6,1,1.3,1c0.7,0,1.3-0.4,1.3-1C150,26.6,149.4,26.2,148.7,26.2z"/>
	<path fill="#FFFFFF" d="M37.4,12.8c-3.5,0-5,4-5,7.7c0,5.4,2.7,7.7,5,7.7c2.3,0,5-2.3,5-7.7C42.4,16.8,40.9,12.8,37.4,12.8z
		 M37.4,24.3c-2,0-2.5-2.6-2.5-4.4c0-1.8,0.6-4.4,2.5-4.4c2,0,2.5,2.6,2.5,4.4C40,21.7,39.4,24.3,37.4,24.3z"/>
	<path fill="#FFFFFF" d="M51.8,13.1h-1.9c-0.2,0-0.7,0-0.7,0.3c0,0.4,0.7,3.9,0.7,6.6c0,4.9-1.5,5.1-2.2,5.1c-1.7,0-1.7-3.5-1.7-4.8
		c0-4.3,0.9-6.6,0.9-7c0-0.5-0.5-0.3-0.8-0.3h-1.8c-0.8,0-1,6.9-1,7.3c0,6.6,1.5,7.7,3.2,7.7c0.7,0,1.1-0.3,1.5-0.5
		c0.4-0.3,0.8-0.8,1-0.8c1.1,0-0.5,1.3,1.6,1.3c1.4,0,2,0.4,2-8C52.6,17.9,52.6,13.1,51.8,13.1z"/>
	<path fill="#FFFFFF" d="M59.7,13.1c-0.3,0-0.5,0.1-0.8,0.1c-0.3,0-0.4-0.3-0.4-0.7c0-0.3,0.6-1.7,0.6-2.3c0-0.4-0.1-0.5-0.2-0.5
		c-0.4,0-2.6,0.6-2.7,1.5c-0.1,0.8-0.2,1.9-0.8,1.9c-0.2,0-0.3-0.1-0.4-0.1c-0.8,0-1.2,0.2-1.2,1.9c0,0.4,0,0.7,0.2,0.7
		c0.2,0,0.4-0.3,0.8-0.3c0.9,0,0.7,1.2,0.7,1.9c0,0.4-0.1,1.5-0.1,4.3c0,1.3,0.2,6.4,1,6.4c0.5,0,2.8-1.3,2.8-1.6
		c0-0.4-1.1-1.4-1.1-7.5c0-2,0-3.5,1.1-3.5c0.4,0,0.8,0.2,0.9,0.2c0.4,0,0.4-0.9,0.4-1.2C60.5,13.8,60.5,13.1,59.7,13.1z"/>
	<path fill="#FFFFFF" d="M67.6,12.8c-0.7,0-1.2,0.3-1.7,0.5c-0.4,0.3-0.8,0.5-0.9,0.5c-0.3,0-0.3-0.4-0.3-0.7c0-1.8,0.8-4.1,0.8-4.4
		c0-0.2-0.1-0.5-0.3-0.5h-2.2c-1.1,0-1.1,8.3-1.1,10.1c0,10.2,0,9.4,0.6,9.4h2c0.2,0,0.6,0,0.6-0.4c0-0.7-0.4-2.2-0.4-6.7
		c0-1.6,0-5.2,2.1-5.2c1,0,1.5,0.7,1.5,4.3c0,3-1,7.6-1,7.7c0,0.4,0.5,0.3,0.7,0.3h2.1c0.6,0,0.9-5.8,0.9-8
		C70.8,14.3,69.4,12.8,67.6,12.8z"/>
	<path fill="#FFFFFF" d="M83.3,12.1c0-1.5-0.5-3.3-4.1-3.3H74c-0.3,0-1.4-0.4-1.4,10.9c0,8.6,0.6,8.1,1.1,8.1h6
		c3.3,0,4.5-2.2,4.5-4.4c0-3.9-3.2-5.8-3.2-6.6C81,16.1,83.3,14.6,83.3,12.1z M78.5,11.4c0.8,0,1.6,0.3,1.6,1.4
		c0,0.9-0.8,2.1-1.4,2.5l-1.5,1.2c-0.3,0.2-0.8,0.5-1.1,0.5c-0.6,0-0.5-0.6-0.5-1.1C75.6,12.4,76.5,11.4,78.5,11.4z M78.1,24.9
		c-1.6,0-2.4-0.4-2.4-3.9c0-0.8,0.3-0.9,0.9-1.2l1.3-0.8c0.2-0.1,0.6-0.4,0.8-0.4c0.5,0,2.3,2.3,2.3,3.9
		C81,24.2,79.5,24.9,78.1,24.9z"/>
	<path fill="#FFFFFF" d="M93.4,13.1h-1.9c-0.2,0-0.7,0-0.7,0.3c0,0.4,0.7,3.9,0.7,6.6c0,4.9-1.5,5.1-2.2,5.1c-1.7,0-1.7-3.5-1.7-4.8
		c0-4.3,0.9-6.6,0.9-7c0-0.5-0.5-0.3-0.8-0.3H86c-0.8,0-1,6.9-1,7.3c0,6.6,1.5,7.7,3.2,7.7c0.7,0,1.1-0.3,1.5-0.5
		c0.4-0.3,0.8-0.8,1-0.8c1.1,0-0.5,1.3,1.6,1.3c1.4,0,2,0.4,2-8C94.3,17.9,94.3,13.1,93.4,13.1z"/>
	<path fill="#FFFFFF" d="M99.1,13.5c0-0.3,0-0.3-0.9-0.3h-1.1c-0.7,0-1-0.8-1,7.1c0,8.1,0.1,7.6,1.1,7.6h1.4c0.5,0,1,0.1,1-0.6
		c0-0.2-0.8-3.8-0.8-9.5C98.8,15.2,99.1,14.3,99.1,13.5z"/>
	<path fill="#FFFFFF" d="M97.9,11.4c0.8,0,1.5-0.5,1.5-1.5c0-1-0.7-1.6-1.5-1.6c-0.8,0-1.5,0.6-1.5,1.6
		C96.3,10.8,97.1,11.4,97.9,11.4z"/>
	<path fill="#FFFFFF" d="M104.3,8.3h-1.9c-0.9,0-0.8,10.3-0.8,11.3c0,0.5-0.1,8.2,0.6,8.2h2.1c0.2,0,0.7,0.1,0.7-0.3
		c0-0.3-0.8-3.4-0.8-9.7c0-5.7,0.8-9,0.8-9.1C105.1,8.2,104.5,8.3,104.3,8.3z"/>
	<path fill="#FFFFFF" d="M114.7,8.3h-2.1c-0.2,0-0.7,0-0.7,0.3c0,0.9,0.5,1.7,0.5,3.5c0,0.4-0.1,1.2-0.4,1.2c-0.3,0-0.7-0.5-1.1-0.5
		c-1.8,0-4.8,2.9-4.8,8.1c0,4.6,2,6.9,4.2,6.9h4.7c0.7,0,0.6-7.7,0.6-8.2C115.5,18.5,115.6,8.3,114.7,8.3z M111,24.4
		c-1.7,0-2.2-2.5-2.2-4c0-4.2,2-5.5,2.8-5.5c0.7,0,1.3,0.3,1.3,4.3C112.8,20.9,113.1,24.4,111,24.4z"/>
	<path fill="#FFFFFF" d="M118.8,9.5c0-0.8-0.5-1.2-1.3-1.2s-1.3,0.5-1.3,1.2c0,0.8,0.5,1.2,1.3,1.2S118.8,10.2,118.8,9.5z
		 M117.6,10.4c-0.6,0-1-0.4-1-1c0-0.6,0.4-1,1-1s1,0.4,1,1C118.6,10.1,118.2,10.4,117.6,10.4z"/>
	<path fill="#FFFFFF" d="M118.2,9.1c0-0.2-0.1-0.3-0.5-0.3h-0.5c0,0-0.1,0-0.1,0c0,0.1,0,0.2,0,0.3l0,0.5c0,0.1,0,0.5,0,0.6
		c0,0,0,0,0.1,0h0.3c0,0,0.1,0,0.1,0c0,0-0.1-0.2-0.1-0.4c0-0.1,0.1-0.2,0.2-0.2s0.2,0.3,0.2,0.5c0,0,0,0,0.1,0h0.3c0,0,0.1,0,0.1,0
		c0-0.4-0.4-0.6-0.4-0.7C117.9,9.4,118.2,9.3,118.2,9.1z M117.4,9.4C117.4,9.4,117.4,9.3,117.4,9.4c-0.1-0.4,0-0.5,0.2-0.5
		c0.1,0,0.2,0,0.2,0.1C117.8,9.3,117.5,9.4,117.4,9.4z"/>
</g>
</svg>
