<?xml version="1.0" encoding="utf-8"?>
<!-- Generator: Adobe Illustrator 17.1.0, SVG Export Plug-In . SVG Version: 6.00 Build 0)  -->
<!DOCTYPE svg PUBLIC "-//W3C//DTD SVG 1.1//EN" "http://www.w3.org/Graphics/SVG/1.1/DTD/svg11.dtd">
<svg version="1.1" id="Layer_1" xmlns="http://www.w3.org/2000/svg" xmlns:xlink="http://www.w3.org/1999/xlink" x="0px" y="0px"
	 width="174.4px" height="62.3px" viewBox="0 0 174.4 62.3" enable-background="new 0 0 174.4 62.3" xml:space="preserve">
<g>
	<path fill="#FFFFFF" d="M9.8,54c-1.6-0.1-3.5-0.2-5.1-0.5L4,53.6c-0.1-0.1-0.3-0.2-0.2-0.4c0.2-0.5,1-0.2,1.5-0.2
		c0.5-0.4,0.5-1,0.8-1.5c0.9-1.5,1.3-3.6,2.5-5.1c1.6,0.1,2.8,0.3,4.5,0.3c0.5-0.5,0.7-1.1,0.7-1.7c-0.4-0.2-0.9-0.6-1.5-0.5
		c-0.6-0.5-1.3-0.7-1.8-1.3c0.5-0.5-0.1-1.1,0.1-1.8c0.6-1.2,1-2.6,1.8-3.7l4.5,0.4c0.1-0.1,0.3-0.2,0.3-0.3c0.1-0.3,0.5-0.8,0.2-1
		c-1.3,0-1.9-1.5-3-1.9l-0.1-0.1c0.6-0.7,0.2-1.9,0.6-2.7c0.6-1,0.8-2.2,1.6-3l4.3,0.4c0.5-0.3,0.5-0.9,0.6-1.3
		c-1.7-0.2-3.5-0.3-5.3-0.5c-0.5-1,0.9,0,1.1-0.7c1-2.2,1.9-4.2,2.9-6.4c1.6-0.1,3,0.2,4.6,0.3l0.1-0.1c0.1-0.4,0.5-0.8,0.3-1.2
		l-2.6-0.2l-0.1-0.1c0.4-0.4,1.3-0.2,1.9-0.4c0.2-0.2-0.1-0.3-0.1-0.5c-0.7-0.7-1.8-0.6-2.6-1.2c0.7-1.8,1.4-3.5,2.3-5.2
		c0.8,0,1.9,0.1,2.7,0.1c0.7,0,1.4,0.4,2,0c-0.1-0.5,0.6-0.9,0.2-1.2l-5.9-0.4l0-0.4c0.5-0.5,1.2,0.1,1.8-0.1
		c0.1-0.3,0.3-0.6,0.4-0.8c0.2-0.5,0.1-1.1-0.1-1.6c-0.3-0.4-1-0.6-1.5-0.4c-0.8,0.2-0.8,1.3-1.3,1.7l-0.1-0.1c0-0.6-0.7-0.6-1-0.7
		c-0.4-0.3-0.6-0.9-0.7-1.5c-0.3-1-1.2-2.3-0.7-3.4c0.4-0.2,0.9-0.6,1.5-0.5c0.1-0.1,0.3-0.1,0.2-0.4c0-0.5-0.2-0.6-0.4-1
		c-0.6-0.2-0.8,0.6-1.4,0.7c-1.3-0.4-2.3,0.5-3.3,1.1c-0.4,0.5-0.4,1.3-0.2,1.9l0.2,0c0.2-0.4,0.2-0.9,0.5-1.2
		c0.2-0.2,0.6-0.3,0.9-0.2C18.8,4,19,4.9,19.1,5.8c0.1,0.9,1,2.1,0.2,2.9c0.1,0.7-0.5,1.1-0.3,1.7c-0.8,1.4-2.3,2.7-3.5,3.8
		l-0.7,0.1c-1-0.5-2.4-0.9-2.6-2c0.5-0.5,1.4-0.1,1.8-0.8c0.4-0.4,0.3-1,0.2-1.4c0-0.2,0-0.3-0.1-0.5c0.2-0.2,0.1-0.5-0.2-0.7
		c0.7-0.9-0.6-1.1-0.7-1.8c0.1-0.8,1.1-0.5,1.4-1.1c-0.2-0.7-1.1-0.4-1.6-0.7l-1.2-1.4c-1.5-0.8-3.4-0.6-4.8,0.3
		c-1.1,1-1.7,2.6-1.3,4.3c0.3,0.7,0.1,2,1.2,1.9c0.3,0.1,0.1,0.5,0.3,0.7c0,0.6,1,0.8,0.8,1.3c-1.5,1.5-2.5,3.2-3.5,4.9L4.1,18
		c-0.3,0.7-0.3,0.7-0.5,1.2c-0.3,0.7-0.4,1.3-0.7,1.9c0.2,1.1-1.3,1.1-0.9,2.3c-1.1,1.2-0.9,3-0.7,4.5c0.2,0,0.4-0.3,0.6-0.3
		c-0.2,0.7,0.2,1.4,0.4,1.9c0.5,0.2,0.4-0.7,0.9-0.4c0.7,1.3,1.5,2.7,2,4.1l0.1,0.1c1.4,3,0.8,6.9,1.6,10c-0.6,1.7-1.4,3.2-2.1,4.8
		c-1.1,2.3-2,4.6-3.2,6.8c-0.2,0.5-1,2-1.2,2.6c-0.3,0.9-0.6,1.6-0.3,2.7c0.4,0.4,1,0.6,1.6,0.4c0.8-0.6,0.9-1.5,1.4-2.3
		c0.6-1.3,0.9-2,1.7-3.4l4.5,0.3C9.6,54.9,10,54.5,9.8,54z M11.8,33.2c0,0.2-0.1,0.4-0.3,0.4c-0.3-0.4,0.2-0.6,0.2-0.9
		c0.5-1.2,0.9-2.5,1.2-3.8l0.1,0C12.8,30.3,12.5,31.8,11.8,33.2z M21.2,18.9c-0.5,0.1-1.3,0-1.8,0c-0.1-0.3,0.2-0.2,0.3-0.3
		C20.2,18.6,20.8,18.6,21.2,18.9z M19,13.7c0.5-0.6,1.2-1.4,1.7-1.9l0.2,0.1c-0.5,1.4-1.1,2.6-1.7,3.9c-0.4,0.1-0.9-0.3-1.3-0.4
		C18,14.9,18.8,14.3,19,13.7z M16.6,14.3c-0.1,0.1-0.2,0.3-0.3,0.3C16.2,14.4,16.4,14.4,16.6,14.3z M11.2,20.5
		c0.6-0.8,0.8-1.9,1.6-2.4c1.2,0,2.8,1.6,3.5-0.1c0.5-0.1,1.1,0,1.6,0.3c-0.2,1.7-1.4,3.1-1.9,4.6c-0.2,0.6-0.4,1-0.7,1.5
		c-0.8-0.3-1.6-0.3-2.5-0.4c-1-0.2-2-0.6-3-0.9C9.8,22,10.7,21.2,11.2,20.5z M9.4,23.8c2,0.3,4,0.8,5.8,1.3c0,0.2,0.2,0.2,0.2,0.4
		c-1.4-0.3-2.9-0.8-4.4-1c-0.6-0.1-1.1-0.2-1.6-0.5L9.4,23.8z M8.8,28.5c0.5-0.4,1.4-0.3,2.1-0.5c0.4,0.3,1.3-0.3,1.3,0.5
		c-0.1,1.1-0.6,2.1-0.9,3.1c-0.1,0.8-0.8,1.6-0.3,2.3c-0.1,1-0.6,1.9-1,2.8c-0.3-0.4,0-0.9-0.2-1.4C9.6,33,8.7,30.8,8.8,28.5z
		 M6.6,6.4C6.3,7.5,6.5,8.8,6.8,9.8C6,8.4,6.1,6.3,6.9,5.1c0.2-0.3,0.9-0.8,1.5-0.8C7.5,4.5,6.8,5.4,6.6,6.4z M3.5,22.5
		c-0.1-1,0.5-1.8,0.7-2.7c0.7-1.9,1.7-3.7,3-5.4c-0.1,0.4-0.6,1.1-0.9,1.7C5.4,18,4.5,19.8,4,22l0.3,0.3C4.1,22.5,3.7,22.4,3.5,22.5
		z M6.7,34.9C6,33,5.2,31.3,4.4,29.4l0.1-0.2c1.1,1.7,1.7,3.4,2.5,5.4c-0.1,0.3,0.2,0.4,0.2,0.7c0,2.6,0.4,5,0.8,7.5
		c-0.5,0.3-0.4-0.5-0.6-0.7C7.2,39.7,6.8,37.3,6.7,34.9z"/>
	<path fill="#FFFFFF" d="M53.5,8.3c0.4-2.1,0.8-5.1,0-7c-0.6-0.7-1.3-1.1-2.2-1.1c-1.7,0.4-4-0.5-5.6,0.5c-0.7,0.3-0.4,1.4-0.4,2
		c1.1,5.1-1.3,9.9-3.8,13.7c-0.5,0.5-0.9,1.3-1.6,1.3c-0.1,0.5,0.1,1.1-0.3,1.4c-0.9-0.1-1.5,0-2.4,0.1c-0.2,0.6,0,1.2-0.1,1.9
		c-0.7,0.4-1.7,0-2.5,0.2c-0.3,0.6,0,1.2-0.1,1.9c-0.1,0.4-0.6,0.1-0.9,0.2c0.4,1.1,1.5,1.9,1.9,2.9c-0.5,1.5-1.2,2.8-1.6,4.4
		c-0.4,0.8-0.6,1.7-0.8,2.6c-0.6,2.1-0.7,4.5-0.2,6.5c0.4,0.5,0.8,1.3,1.6,1.3c2-0.1,4.6,0.3,6.7,0c2.2-0.4,1-2.8,1.3-4.3
		c-0.4-1.8,0.1-3.5,0.3-5.3C44.6,22.7,52.2,17.1,53.5,8.3z"/>
	<path fill="#FFFFFF" d="M34,1.5l0.2-0.1c0.1-0.4,0.2-0.9,0-1.2L34,0.1c-1.6-0.1-3.1-0.1-4.6,0l0,1.2C30.9,1.8,32.5,1.5,34,1.5z"/>
	<path fill="#FFFFFF" d="M26.3,3.6c0.3-0.5,0.1-1.3,0.2-1.9c0.7-0.4,1.6,0,2.4-0.2c0.3-0.2,0.1-0.7,0.2-1c-0.2-1.1-1.4-0.2-2-0.1
		c-0.7,0.8-1.3,1.9-1,3.1L26.3,3.6z"/>
	<path fill="#FFFFFF" d="M35.8,1.5l0-0.4c-0.3-0.4-0.6-0.9-1.1-0.8l0,1.1L35.8,1.5z"/>
	<path fill="#FFFFFF" d="M32.1,2c-0.2,0.5,0,1.1,0,1.6c1.3,0.1,2.5,0,3.7,0c-0.1-0.6,0.5-1.1,0.1-1.6C34.6,2,33.4,1.8,32.1,2z"/>
	<path fill="#FFFFFF" d="M31.6,3.5c0-0.6,0.1-1,0-1.5c-1.6,0-3.2-0.3-4.6,0c-0.1,0.4-0.1,1-0.1,1.5l4.3,0.2L31.6,3.5z"/>
	<path fill="#FFFFFF" d="M34.2,5.7l0.1-1.5l-0.1-0.1c-1.5-0.1-3,0-4.5,0c-0.2,0.5-0.2,1.1-0.1,1.6C31,5.9,32.6,5.8,34.2,5.7z"/>
	<path fill="#FFFFFF" d="M34.8,4.1l-0.1,1.5c0.2,0.3,0.5,0.1,0.7,0.2c0.5-0.3,0.2-1.2,0.3-1.7L34.8,4.1z"/>
	<path fill="#FFFFFF" d="M29,5.7l0.1-1.1L29,4.1c-0.9-0.3-2,0.1-3.1,0c0,0.5-0.2,1.1,0.1,1.5C27,5.7,28,5.8,29,5.7z"/>
	<path fill="#FFFFFF" d="M34.1,17c-1-0.4-2.5,0-3.5-0.3c0.1-0.3,0.6-0.2,0.8-0.4c0.2-0.6,0.2-1.2,0.1-1.8c0.8-0.4,1.7,0,2.6-0.2
		c0.1-0.5,0.1-1.1,0.1-1.6l-1.5-0.1c0-0.1-0.2-0.1-0.1-0.2c1.3-0.5,2.9,0,4.2-0.3c-0.1-0.5-0.3-1.1-0.5-1.5c-0.9-0.4-1.7,0-2.7-0.2
		l-0.1-0.2c0.1-0.3,0.5-0.2,0.8-0.3c0.2-0.5,0-1.1,0-1.6c-0.4,0-0.7,0-0.9-0.3C34,7.9,34.9,8,35.7,7.8c0.2-0.6-0.3-0.9-0.1-1.4
		l-0.1-0.1c-1.2-0.1-2.3,0.1-3.5-0.1c-0.4,0.5,0.4,1.8-0.5,1.9c-0.7,1.4-1.5,3-2.1,4.5l-0.1,0c-0.1,0.4-0.3,0.9-0.5,1.3
		c-3.1,6.9-6.2,13.7-9.2,20.6c-3.5,7.7-7.1,15.7-10.6,23.5c-0.4,1.2-1.4,2.1-1.1,3.5c0.2,0.2,0.3,0.7,0.7,0.7c0.5,0.1,1.2,0,1.5-0.5
		c0.9-2.1,1.9-4.2,2.9-6.4c4.6-10.4,9.3-20.8,14-31.2c1-1.9,1.6-4,2.6-5.9l4.3,0.2C34.2,18.1,34.2,17.4,34.1,17z"/>
	<path fill="#FFFFFF" d="M31.5,6.2c-1.4-0.1-2.9,0-4.4-0.1c-0.5,0.4-0.2,1.1-0.1,1.7c1.3,0.1,3,0.1,4.3-0.1c0.6-0.1,0.2-0.9,0.4-1.4
		L31.5,6.2z"/>
	<path fill="#FFFFFF" d="M26.2,6.2c-0.3,0.4-0.2,1.2,0.1,1.6l0.2-0.1C26.3,7.2,26.8,6.3,26.2,6.2z"/>
	<path fill="#FFFFFF" d="M34.7,8.5c-0.1,0.5-0.1,1-0.1,1.5c0.4,0.2,1,0.3,1.4,0.1C36,9.5,36,8.9,35.8,8.4
		C35.5,8.3,34.9,8.3,34.7,8.5z"/>
	<path fill="#FFFFFF" d="M29.4,9.9l0.3,0c0.1-0.5,0.7-1,0.5-1.5c-0.2,0-0.5,0-0.7,0L29.4,9.9z"/>
	<path fill="#FFFFFF" d="M26.6,8.2c-0.9,0.2,0,1.1-0.1,1.7l1.8,0.1c1.1,0.3,0.5-1.2,0.7-1.7L26.6,8.2z"/>
	<path fill="#FFFFFF" d="M34.6,12.8c0,0.5-0.2,1.1,0.2,1.6c1,0.1,1.9,0,2.8,0c0-0.6-0.5-1-0.6-1.5c-0.6-0.3-1.4-0.1-2-0.2L34.6,12.8
		z"/>
	<path fill="#FFFFFF" d="M27.8,13.9c0.4-0.2,0.6-0.9,0.6-1.3l-1.1,0C27.3,13,27.7,13.5,27.8,13.9z"/>
	<path fill="#FFFFFF" d="M36.7,16.4c0-0.4,0.1-1.1,0-1.5c-1.2,0-2.8-0.1-3.8-0.1l-0.8,0.1c-0.2,0.5-0.2,1.1,0,1.6
		C33.8,16.4,35.2,16.6,36.7,16.4z"/>
	<path fill="#FFFFFF" d="M37.2,16.3c0.5,0.2,1.2,0.3,1.7,0.1c-0.3-0.5-0.6-1.7-1.4-1.6C37.1,15.1,37.3,15.7,37.2,16.3z"/>
	<path fill="#FFFFFF" d="M34.7,16.9c-0.1,0.4-0.2,1.2,0,1.6c1.6,0.2,2.9,0,4.5,0.1c0.2-0.4,0.2-1.2,0.1-1.6
		C37.8,16.8,36.2,16.9,34.7,16.9z"/>
	<path fill="#FFFFFF" d="M36.7,19c-1.6,0-3.1-0.3-4.7,0c0,0.4-0.1,1.1,0,1.5c1.5,0.2,3.1,0.2,4.6,0.2c0.4-0.3,0.1-0.7,0.2-1L36.7,19
		z"/>
	<path fill="#FFFFFF" d="M30.5,18.9c0,0.7,0.5,1.2,1,1.6c0.3-0.6,0-1,0.1-1.5L30.5,18.9z"/>
	<path fill="#FFFFFF" d="M34.1,22.6c0-0.5,0.2-1.1-0.1-1.5c-0.7,0-1.4-0.1-2.1,0c0.1,0.6,0.7,1.2,1,1.6C33.3,22.7,33.8,23,34.1,22.6
		z"/>
	<path fill="#FFFFFF" d="M54.5,19c-5.1,0-7.3,5.9-7.3,11.4c0,8,4,11.5,7.3,11.5c3.3,0,7.3-3.4,7.3-11.5C61.8,24.9,59.5,19,54.5,19z
		 M54.5,36.2c-2.9,0-3.7-3.9-3.7-6.6c0-2.7,0.8-6.5,3.7-6.5c2.9,0,3.7,3.8,3.7,6.5C58.2,32.3,57.4,36.2,54.5,36.2z"/>
	<path fill="#FFFFFF" d="M75.4,19.6h-2.7c-0.3,0-1,0-1,0.4c0,0.5,1,5.8,1,9.9c0,7.3-2.2,7.7-3.2,7.7c-2.5,0-2.5-5.2-2.5-7.1
		c0-6.4,1.3-9.9,1.3-10.4c0-0.7-0.8-0.5-1.2-0.5h-2.7c-1.2,0-1.4,10.2-1.4,10.8c0,9.8,2.2,11.5,4.7,11.5c1,0,1.6-0.4,2.2-0.8
		c0.5-0.4,1.2-1.1,1.5-1.1c1.7,0-0.7,1.9,2.4,1.9c2.1,0,2.8,0.6,2.8-11.9C76.6,26.7,76.6,19.6,75.4,19.6z"/>
	<path fill="#FFFFFF" d="M86.9,19.6c-0.4,0-0.7,0.2-1.1,0.2c-0.4,0-0.6-0.4-0.6-1c0-0.4,0.9-2.5,0.9-3.4c0-0.6-0.1-0.7-0.3-0.7
		c-0.6,0-3.8,1-4,2.3c-0.1,1.2-0.2,2.9-1.1,2.9c-0.2,0-0.4-0.1-0.6-0.1c-1.1,0-1.7,0.3-1.7,2.9c0,0.6,0,1.1,0.3,1.1
		c0.3,0,0.6-0.4,1.1-0.4c1.3,0,1,1.8,1,2.8c0,0.6-0.2,2.3-0.2,6.5c0,1.9,0.3,9.5,1.4,9.5c0.7,0,4-1.9,4-2.4c0-0.6-1.6-2.1-1.6-11.1
		c0-3,0-5.2,1.6-5.2c0.5,0,1.1,0.3,1.3,0.3c0.6,0,0.6-1.3,0.6-1.8C88.1,20.5,88,19.6,86.9,19.6z"/>
	<path fill="#FFFFFF" d="M98.4,19c-1,0-1.8,0.4-2.4,0.8c-0.6,0.4-1.1,0.8-1.3,0.8c-0.5,0-0.5-0.6-0.5-1.1c0-2.7,1.1-6.1,1.1-6.5
		c0-0.3-0.2-0.7-0.5-0.7h-3.2C90,12.3,90,24.7,90,27.4c0,15.1,0,14,0.8,14h2.9c0.3,0,0.8,0,0.8-0.5c0-1-0.6-3.2-0.6-10
		c0-2.4,0.1-7.7,3-7.7c1.4,0,2.2,1.1,2.2,6.3c0,4.5-1.5,11.3-1.5,11.5c0,0.5,0.8,0.4,1,0.4h3c0.9,0,1.3-8.6,1.3-11.9
		C103,21.3,101.1,19,98.4,19z"/>
	<path fill="#FFFFFF" d="M121.3,18c0-2.2-0.8-5-5.9-5h-7.5c-0.5,0-2-0.6-2,16.2c0,12.8,0.9,12.1,1.6,12.1h8.8c4.8,0,6.5-3.2,6.5-6.6
		c0-5.9-4.7-8.6-4.7-9.8C118,23.9,121.3,21.7,121.3,18z M110,23.8c0-5.3,1.3-6.8,4.2-6.8c1.1,0,2.3,0.4,2.3,2c0,1.4-1.2,3.1-2.1,3.8
		l-2.1,1.8c-0.5,0.4-1.2,0.8-1.6,0.8C110,25.4,110,24.5,110,23.8z M113.7,37c-2.4,0-3.5-0.6-3.5-5.8c0-1.1,0.5-1.3,1.3-1.8l1.9-1.2
		c0.3-0.2,0.8-0.6,1.2-0.6c0.8,0,3.3,3.4,3.3,5.8C117.9,36.1,115.8,37,113.7,37z"/>
	<path fill="#FFFFFF" d="M136,19.6h-2.7c-0.3,0-1,0-1,0.4c0,0.5,1,5.8,1,9.9c0,7.3-2.2,7.7-3.2,7.7c-2.5,0-2.5-5.2-2.5-7.1
		c0-6.4,1.3-9.9,1.3-10.4c0-0.7-0.8-0.5-1.2-0.5h-2.7c-1.2,0-1.4,10.2-1.4,10.8c0,9.8,2.2,11.5,4.7,11.5c1,0,1.6-0.4,2.2-0.8
		c0.5-0.4,1.2-1.1,1.5-1.1c1.7,0-0.7,1.9,2.4,1.9c2.1,0,2.8,0.6,2.8-11.9C137.3,26.7,137.2,19.6,136,19.6z"/>
	<path fill="#FFFFFF" d="M144.2,20.1c0-0.4,0-0.5-1.3-0.5h-1.6c-1,0-1.4-1.1-1.4,10.5c0,12,0.1,11.3,1.5,11.3h2
		c0.7,0,1.5,0.2,1.5-0.9c0-0.3-1.1-5.6-1.1-14.2C143.9,22.6,144.2,21.3,144.2,20.1z"/>
	<path fill="#FFFFFF" d="M142.5,16.9c1.2,0,2.2-0.8,2.2-2.3c0-1.5-1.1-2.4-2.2-2.4s-2.2,0.9-2.2,2.4
		C140.2,16.1,141.3,16.9,142.5,16.9z"/>
	<path fill="#FFFFFF" d="M151.9,12.3h-2.8c-1.3,0-1.2,15.3-1.2,16.9c0,0.8-0.1,12.2,0.9,12.2h3.1c0.3,0,1.1,0.2,1.1-0.4
		c0-0.4-1.1-5-1.1-14.4c0-8.5,1.2-13.4,1.2-13.6C153.1,12.2,152.2,12.3,151.9,12.3z"/>
	<path fill="#FFFFFF" d="M167,12.3h-3c-0.3,0-1,0-1,0.5c0,1.3,0.7,2.5,0.7,5.3c0,0.5-0.1,1.8-0.7,1.8c-0.4,0-1-0.8-1.7-0.8
		c-2.6,0-7,4.3-7,12.1c0,6.9,2.8,10.3,6.1,10.3h6.8c1,0,0.9-11.4,0.9-12.2C168.2,27.6,168.3,12.3,167,12.3z M161.6,36.4
		c-2.5,0-3.2-3.6-3.2-6c0-6.2,2.8-8.1,4.1-8.1c1.1,0,1.9,0.4,1.9,6.4C164.3,31.2,164.7,36.4,161.6,36.4z"/>
	<path fill="#FFFFFF" d="M173.1,14.1c0-0.3-0.2-0.7-1-0.7h-1.1c-0.1,0-0.1,0-0.2,0.1c-0.1,0.1-0.1,0.4-0.1,0.5l0,1.1
		c0,0.2,0,1,0.1,1.2c0,0.1,0.1,0.1,0.2,0.1h0.6c0,0,0.1,0,0.1,0c0,0-0.1-0.5-0.1-0.8c0-0.2,0.3-0.4,0.4-0.4c0.1,0,0.4,0.6,0.5,1.2
		c0,0.1,0.1,0,0.2,0h0.6c0.1,0,0.1,0,0.1,0c0-0.8-0.8-1.4-0.8-1.4C172.4,14.8,173.1,14.6,173.1,14.1z M171.5,14.8
		c-0.1,0-0.1-0.1-0.1-0.2c0-0.6,0.2-0.8,0.5-0.8c0.2,0,0.5,0.1,0.5,0.3C172.3,14.5,171.6,14.8,171.5,14.8z"/>
	<path fill="#FFFFFF" d="M171.8,12.3c-1.7,0-2.6,1-2.6,2.6c0,1.7,1,2.6,2.6,2.6s2.6-1,2.6-2.6C174.4,13.3,173.5,12.3,171.8,12.3z
		 M171.8,17c-1.3,0-2.1-0.8-2.1-2.1c0-1.3,0.8-2.1,2.1-2.1c1.3,0,2.1,0.8,2.1,2.1C173.8,16.2,173.1,17,171.8,17z"/>
</g>
</svg>
